<svg width="17" height="17" viewBox="0 0 17 17" fill="none" xmlns="http://www.w3.org/2000/svg">
<path d="M7.79163 9.20836H4.24996C4.04927 9.20836 3.88116 9.14036 3.74563 9.00436C3.6101 8.86836 3.5421 8.70025 3.54163 8.50002C3.54116 8.2998 3.60916 8.13169 3.74563 7.99569C3.8821 7.85969 4.05021 7.79169 4.24996 7.79169H7.79163V4.25002C7.79163 4.04933 7.85963 3.88122 7.99563 3.74569C8.13163 3.61016 8.29974 3.54216 8.49996 3.54169C8.70018 3.54122 8.86853 3.60922 9.005 3.74569C9.14148 3.88216 9.20924 4.05027 9.2083 4.25002V7.79169H12.75C12.9507 7.79169 13.119 7.85969 13.255 7.99569C13.391 8.13169 13.4588 8.2998 13.4583 8.50002C13.4578 8.70025 13.3898 8.86859 13.2543 9.00506C13.1188 9.14154 12.9507 9.2093 12.75 9.20836H9.2083V12.75C9.2083 12.9507 9.1403 13.1191 9.0043 13.2551C8.8683 13.3911 8.70018 13.4588 8.49996 13.4584C8.29974 13.4579 8.13163 13.3899 7.99563 13.2544C7.85963 13.1188 7.79163 12.9507 7.79163 12.75V9.20836Z" fill="#014754"/>
</svg>
