<svg width="20" height="20" viewBox="0 0 20 20" fill="none" xmlns="http://www.w3.org/2000/svg">
<path d="M10.247 6.125H10.2538M4.25 8.225V14.175M7.25 8.225V14.175M13.25 8.225V14.175M16.25 8.225V14.175M2.75 7.224C2.75 6.3861 3.1115 5.873 3.86 5.4838L6.9425 3.8829C8.55725 3.045 9.365 2.625 10.25 2.625C11.135 2.625 11.9427 3.045 13.5575 3.8829L16.64 5.4838C17.3878 5.873 17.75 6.3861 17.75 7.224C17.75 7.4508 17.75 7.5649 17.7238 7.658C17.5843 8.148 17.108 8.2257 16.6483 8.2257H3.85175C3.392 8.2257 2.9165 8.1487 2.77625 7.658C2.75 7.5642 2.75 7.4508 2.75 7.224ZM15.5 14.175H5C4.40326 14.175 3.83097 14.3962 3.40901 14.7901C2.98705 15.1839 2.75 15.718 2.75 16.275C2.75 16.3678 2.78951 16.4568 2.85984 16.5225C2.93016 16.5881 3.02554 16.625 3.125 16.625H17.375C17.4745 16.625 17.5698 16.5881 17.6402 16.5225C17.7105 16.4568 17.75 16.3678 17.75 16.275C17.75 15.718 17.5129 15.1839 17.091 14.7901C16.669 14.3962 16.0967 14.175 15.5 14.175Z" stroke="white" stroke-width="1.2" stroke-linecap="round" stroke-linejoin="round"/>
</svg>
