<svg width="16" height="16" viewBox="0 0 16 16" fill="none" xmlns="http://www.w3.org/2000/svg">
<path d="M6.00001 11.3333V12C6.00001 12.5304 6.21072 13.0391 6.58579 13.4142C6.96086 13.7893 7.46957 14 8.00001 14C8.53044 14 9.03915 13.7893 9.41422 13.4142C9.78929 13.0391 10 12.5304 10 12V11.3333M6.66667 3.33333C6.66667 2.97971 6.80715 2.64057 7.0572 2.39052C7.30724 2.14048 7.64638 2 8.00001 2C8.35363 2 8.69277 2.14048 8.94281 2.39052C9.19286 2.64057 9.33334 2.97971 9.33334 3.33333C10.0989 3.69535 10.7516 4.25888 11.2214 4.96353C11.6911 5.66818 11.9603 6.48738 12 7.33333V9.33333C12.0502 9.7478 12.197 10.1447 12.4285 10.4921C12.6601 10.8395 12.97 11.1276 13.3333 11.3333H2.66667C3.02996 11.1276 3.33988 10.8395 3.57146 10.4921C3.80305 10.1447 3.94984 9.7478 4.00001 9.33333V7.33333C4.03971 6.48738 4.30887 5.66818 4.77864 4.96353C5.2484 4.25888 5.90107 3.69535 6.66667 3.33333Z" stroke="#014754" stroke-width="1.2" stroke-linecap="round" stroke-linejoin="round"/>
</svg>
