<svg width="15" height="16" viewBox="0 0 15 16" fill="none" xmlns="http://www.w3.org/2000/svg">
<g clip-path="url(#clip0_1480_46909)">
<path d="M2.5 6.625V6.125H2V6.625H2.5ZM6.5 6.625V6.125H6V6.625H6.5ZM6.5 10.625H6V11.125H6.5V10.625ZM13.5 3.625H14V3.418L13.854 3.271L13.5 3.625ZM10.5 0.625L10.854 0.271L10.707 0.125H10.5V0.625ZM2.5 7.125H3.5V6.125H2.5V7.125ZM3 11.125V8.625H2V11.125H3ZM3 8.625V6.625H2V8.625H3ZM3.5 8.125H2.5V9.125H3.5V8.125ZM4 7.625C4 7.75761 3.94732 7.88479 3.85355 7.97855C3.75979 8.07232 3.63261 8.125 3.5 8.125V9.125C3.89782 9.125 4.27936 8.96696 4.56066 8.68566C4.84196 8.40436 5 8.02282 5 7.625H4ZM3.5 7.125C3.63261 7.125 3.75979 7.17768 3.85355 7.27145C3.94732 7.36521 4 7.49239 4 7.625H5C5 7.22718 4.84196 6.84564 4.56066 6.56434C4.27936 6.28304 3.89782 6.125 3.5 6.125V7.125ZM6 6.625V10.625H7V6.625H6ZM6.5 11.125H7.5V10.125H6.5V11.125ZM9 9.625V7.625H8V9.625H9ZM7.5 6.125H6.5V7.125H7.5V6.125ZM9 7.625C9 7.22718 8.84196 6.84564 8.56066 6.56434C8.27936 6.28304 7.89782 6.125 7.5 6.125V7.125C7.63261 7.125 7.75979 7.17768 7.85355 7.27145C7.94732 7.36521 8 7.49239 8 7.625H9ZM7.5 11.125C7.89782 11.125 8.27936 10.967 8.56066 10.6857C8.84196 10.4044 9 10.0228 9 9.625H8C8 9.75761 7.94732 9.88479 7.85355 9.97855C7.75979 10.0723 7.63261 10.125 7.5 10.125V11.125ZM10 6.125V11.125H11V6.125H10ZM10.5 7.125H13V6.125H10.5V7.125ZM10.5 9.125H12V8.125H10.5V9.125ZM2 5.125V1.625H1V5.125H2ZM13 3.625V5.125H14V3.625H13ZM2.5 1.125H10.5V0.125H2.5V1.125ZM10.146 0.979L13.146 3.979L13.854 3.271L10.854 0.271L10.146 0.979ZM2 1.625C2 1.49239 2.05268 1.36521 2.14645 1.27145C2.24021 1.17768 2.36739 1.125 2.5 1.125V0.125C2.10218 0.125 1.72064 0.283035 1.43934 0.56434C1.15804 0.845644 1 1.22718 1 1.625H2ZM1 12.125V13.625H2V12.125H1ZM2.5 15.125H12.5V14.125H2.5V15.125ZM14 13.625V12.125H13V13.625H14ZM12.5 15.125C12.8978 15.125 13.2794 14.967 13.5607 14.6857C13.842 14.4044 14 14.0228 14 13.625H13C13 13.7576 12.9473 13.8848 12.8536 13.9786C12.7598 14.0723 12.6326 14.125 12.5 14.125V15.125ZM1 13.625C1 14.0228 1.15804 14.4044 1.43934 14.6857C1.72064 14.967 2.10218 15.125 2.5 15.125V14.125C2.36739 14.125 2.24021 14.0723 2.14645 13.9786C2.05268 13.8848 2 13.7576 2 13.625H1Z" fill="#032C33"/>
</g>
<defs>
<clipPath id="clip0_1480_46909">
<rect width="15" height="15" fill="white" transform="translate(0 0.125)"/>
</clipPath>
</defs>
</svg>
