<svg width="25" height="26" viewBox="0 0 25 26" fill="none" xmlns="http://www.w3.org/2000/svg">
<path d="M22.3957 12.9993H20.1967M20.1967 12.9993C20.1967 15.0408 19.3863 16.9982 17.9427 18.4417C16.4992 19.8852 14.5413 20.6962 12.4998 20.6962M20.1967 12.9993C20.1967 10.9579 19.3863 8.99949 17.9427 7.55595C16.4992 6.11241 14.5413 5.30247 12.4998 5.30247M12.4998 3.10352V5.30247M12.4998 5.30247C10.4585 5.30247 8.50077 6.11235 7.05732 7.55579C5.61388 8.99924 4.80296 10.957 4.80296 12.9983C4.80296 15.0396 5.61388 16.9974 7.05732 18.4408C8.50077 19.8843 10.4585 20.6962 12.4998 20.6962M2.604 12.9993H4.80296M12.4998 22.8952V20.6962" stroke="#032C33" stroke-width="1.8" stroke-miterlimit="10" stroke-linecap="round"/>
<path d="M12.5 17.3974C13.6664 17.3974 14.785 16.934 15.6098 16.1093C16.4345 15.2845 16.8979 14.1659 16.8979 12.9995C16.8979 11.8331 16.4345 10.7145 15.6098 9.88968C14.785 9.06491 13.6664 8.60156 12.5 8.60156C11.3336 8.60156 10.2149 9.06491 9.39017 9.88968C8.5654 10.7145 8.10205 11.8331 8.10205 12.9995C8.10205 14.1659 8.5654 15.2845 9.39017 16.1093C10.2149 16.934 11.3336 17.3974 12.5 17.3974Z" stroke="#032C33" stroke-width="1.8" stroke-miterlimit="10" stroke-linecap="round"/>
</svg>
