<svg width="18" height="19" viewBox="0 0 18 19" fill="none" xmlns="http://www.w3.org/2000/svg">
<g clip-path="url(#clip0_64_112014)">
<path d="M16.1992 4.7H16.7992V4.4516L16.624 4.2752L16.1992 4.7ZM12.5992 1.1L13.024 0.6752L12.8476 0.5H12.5992V1.1ZM7.79922 8.3V7.7H7.19922V8.3H7.79922ZM7.79922 10.7H7.19922V11.3H7.79922V10.7ZM10.1992 10.7H10.7992V10.1H10.1992V10.7ZM10.1992 13.1V13.7H10.7992V13.1H10.1992ZM12.5992 11.9H11.9992V12.1484L12.1744 12.3248L12.5992 11.9ZM13.7992 13.1L13.3744 13.5248L13.7992 13.9484L14.224 13.5248L13.7992 13.1ZM14.9992 11.9L15.424 12.3248L15.5992 12.1484V11.9H14.9992ZM2.99922 8.3V7.7H2.39922V8.3H2.99922ZM2.99922 13.1H2.39922V13.7H2.99922V13.1ZM2.39922 6.5V2.3H1.19922V6.5H2.39922ZM15.5992 4.7V6.5H16.7992V4.7H15.5992ZM2.99922 1.7H12.5992V0.5H2.99922V1.7ZM12.1744 1.5248L15.7744 5.1248L16.624 4.2752L13.024 0.6752L12.1744 1.5248ZM2.39922 2.3C2.39922 2.14087 2.46243 1.98826 2.57495 1.87574C2.68748 1.76321 2.84009 1.7 2.99922 1.7V0.5C2.52183 0.5 2.06399 0.689642 1.72643 1.02721C1.38886 1.36477 1.19922 1.82261 1.19922 2.3H2.39922ZM1.19922 14.9V16.7H2.39922V14.9H1.19922ZM2.99922 18.5H14.9992V17.3H2.99922V18.5ZM16.7992 16.7V14.9H15.5992V16.7H16.7992ZM14.9992 18.5C15.4766 18.5 15.9344 18.3104 16.272 17.9728C16.6096 17.6352 16.7992 17.1774 16.7992 16.7H15.5992C15.5992 16.8591 15.536 17.0117 15.4235 17.1243C15.311 17.2368 15.1583 17.3 14.9992 17.3V18.5ZM1.19922 16.7C1.19922 17.1774 1.38886 17.6352 1.72643 17.9728C2.06399 18.3104 2.52183 18.5 2.99922 18.5V17.3C2.84009 17.3 2.68748 17.2368 2.57495 17.1243C2.46243 17.0117 2.39922 16.8591 2.39922 16.7H1.19922ZM10.7992 7.7H7.79922V8.9H10.7992V7.7ZM7.19922 8.3V10.7H8.39922V8.3H7.19922ZM7.79922 11.3H10.1992V10.1H7.79922V11.3ZM9.59922 10.7V13.1H10.7992V10.7H9.59922ZM10.1992 12.5H7.19922V13.7H10.1992V12.5ZM11.9992 7.7V11.9H13.1992V7.7H11.9992ZM12.1744 12.3248L13.3744 13.5248L14.224 12.6752L13.024 11.4752L12.1744 12.3248ZM14.224 13.5248L15.424 12.3248L14.5744 11.4752L13.3744 12.6752L14.224 13.5248ZM15.5992 11.9V7.7H14.3992V11.9H15.5992ZM5.99922 7.7H2.99922V8.9H5.99922V7.7ZM2.39922 8.3V13.1H3.59922V8.3H2.39922ZM2.99922 13.7H5.99922V12.5H2.99922V13.7Z" fill="#008BA5"/>
</g>
<defs>
<clipPath id="clip0_64_112014">
<rect width="18" height="18" fill="white" transform="translate(0 0.5)"/>
</clipPath>
</defs>
</svg>
