<svg width="19" height="20" viewBox="0 0 19 20" fill="none" xmlns="http://www.w3.org/2000/svg">
<path d="M5.94257 12.2098C5.96337 12.285 5.99876 12.3553 6.04674 12.4168C6.09471 12.4783 6.15433 12.5297 6.22218 12.5681C6.29003 12.6066 6.36479 12.6313 6.44219 12.6409C6.51959 12.6504 6.59812 12.6446 6.67328 12.6238C6.74845 12.603 6.81878 12.5676 6.88027 12.5197C6.94176 12.4717 6.99319 12.4121 7.03164 12.3442C7.07009 12.2764 7.09479 12.2016 7.10435 12.1242C7.1139 12.0468 7.10812 11.9683 7.08732 11.8931L5.94257 12.2098ZM2.53366 3.86563C2.4582 3.84359 2.37911 3.83675 2.30099 3.84551C2.22286 3.85428 2.14726 3.87847 2.07856 3.91669C2.00986 3.9549 1.94943 4.00638 1.90078 4.06813C1.85213 4.12989 1.81623 4.20069 1.79516 4.27642C1.77409 4.35216 1.76827 4.43133 1.77804 4.50933C1.78781 4.58734 1.81297 4.66263 1.85206 4.73083C1.89116 4.79904 1.94341 4.8588 2.00578 4.90665C2.06815 4.9545 2.13941 4.98949 2.21541 5.00959L2.53366 3.86563ZM15.9825 12.574C16.0598 12.5561 16.1327 12.5229 16.197 12.4763C16.2613 12.4298 16.3156 12.3708 16.3567 12.303C16.3978 12.2351 16.4248 12.1596 16.4363 12.0811C16.4477 12.0026 16.4433 11.9226 16.4233 11.8458C16.4033 11.769 16.3681 11.697 16.3198 11.634C16.2715 11.5711 16.2111 11.5185 16.1421 11.4792C16.0731 11.44 15.9969 11.4151 15.9181 11.4058C15.8393 11.3965 15.7594 11.4031 15.6832 11.4253L15.9825 12.574ZM8.07295 14.0259C8.31837 14.9125 7.78003 15.8491 6.82687 16.0969L7.12532 17.2456C8.69045 16.8395 9.64678 15.2648 9.2177 13.7092L8.07295 14.0259ZM6.82687 16.0969C5.86737 16.3463 4.9047 15.7889 4.6577 14.8943L3.51295 15.211C3.94045 16.7587 5.56653 17.6509 7.12532 17.2456L6.82687 16.0969ZM4.6577 14.8943C4.41228 14.0077 4.95062 13.0711 5.90378 12.8233L5.60532 11.6754C4.0402 12.0815 3.08307 13.6554 3.51295 15.211L4.6577 14.8943ZM5.90378 12.8233C6.86328 12.574 7.82595 13.1313 8.07295 14.0259L9.2177 13.7092C8.7902 12.1615 7.16412 11.2693 5.60532 11.6746L5.90378 12.8233ZM7.08732 11.8931L5.38366 5.72604L4.23891 6.04271L5.94257 12.2098L7.08732 11.8931ZM3.88266 4.23929L2.53366 3.86563L2.21541 5.00959L3.5652 5.38404L3.88266 4.23929ZM5.38366 5.72604C5.283 5.36978 5.09187 5.04563 4.82885 4.7851C4.56583 4.52458 4.23986 4.33655 3.88266 4.23929L3.56678 5.38404C3.90324 5.47746 4.15341 5.73317 4.23891 6.04271L5.38366 5.72604ZM8.79574 14.4423L15.9825 12.574L15.684 11.4253L8.49649 13.2936L8.79574 14.4423Z" fill="#5298A7"/>
<path d="M7.5718 7.03625C7.18784 5.64688 6.99626 4.95179 7.32243 4.40475C7.6478 3.85692 8.36426 3.67088 9.79718 3.298L11.3172 2.90375C12.7501 2.53167 13.4666 2.34484 14.031 2.66071C14.5955 2.97738 14.7878 3.67167 15.171 5.06184L15.5787 6.53592C15.9627 7.92529 16.1551 8.62038 15.8289 9.16821C15.5027 9.71525 14.7863 9.90209 13.3533 10.2742L11.8333 10.6692C10.4004 11.0413 9.68397 11.2273 9.11951 10.9115C8.55505 10.5948 8.36347 9.9005 7.97951 8.51113L7.5718 7.03625Z" stroke="#5298A7" stroke-width="1.2"/>
</svg>
