<svg width="16" height="17" viewBox="0 0 16 17" fill="none" xmlns="http://www.w3.org/2000/svg">
<g clip-path="url(#clip0_974_23852)">
<path d="M8.00016 14.7917V4.12501C8.00016 2.86768 8.00016 2.23968 7.6095 1.84901C7.21883 1.45834 6.59083 1.45834 5.3335 1.45834H4.00016C2.74283 1.45834 2.11483 1.45834 1.72416 1.84901C1.3335 2.23968 1.3335 2.86768 1.3335 4.12501V12.125C1.3335 13.3823 1.3335 14.0103 1.72416 14.401C2.11483 14.7917 2.74283 14.7917 4.00016 14.7917H8.00016ZM8.00016 14.7917H12.0002C13.2575 14.7917 13.8855 14.7917 14.2762 14.401C14.6668 14.0103 14.6668 13.3823 14.6668 12.125V8.12501C14.6668 6.86768 14.6668 6.23968 14.2762 5.84901C13.8855 5.45834 13.2575 5.45834 12.0002 5.45834H8.00016M12.3335 10.7917H10.3335M12.3335 8.12501H10.3335M5.66683 9.45834H3.66683M5.66683 6.79168H3.66683M5.66683 4.12501H3.66683" stroke="#576B6E" stroke-width="1.3" stroke-linecap="round" stroke-linejoin="round"/>
</g>
<defs>
<clipPath id="clip0_974_23852">
<rect width="16" height="16" fill="white" transform="translate(0 0.125)"/>
</clipPath>
</defs>
</svg>
