<svg width="26" height="26" viewBox="0 0 26 26" fill="none" xmlns="http://www.w3.org/2000/svg">
<path d="M18.0136 5.10315C17.9173 4.96828 17.7902 4.85833 17.6429 4.78242C17.4957 4.70651 17.3324 4.66684 17.1667 4.66669H3.62502C3.43373 4.66686 3.24619 4.7197 3.08295 4.81942C2.91971 4.91914 2.78708 5.06188 2.6996 5.23199C2.61212 5.4021 2.57317 5.59302 2.58703 5.7838C2.60088 5.97459 2.66701 6.15787 2.77814 6.31356L7.55314 13L2.7771 19.6865C2.66591 19.8422 2.59978 20.0256 2.58597 20.2165C2.57216 20.4074 2.61119 20.5984 2.6988 20.7685C2.7864 20.9387 2.91918 21.0814 3.08257 21.181C3.24596 21.2807 3.43364 21.3334 3.62502 21.3334H17.1667C17.3324 21.3332 17.4957 21.2935 17.6429 21.2176C17.7902 21.1417 17.9173 21.0318 18.0136 20.8969L23.2219 13.6052C23.348 13.4286 23.4157 13.217 23.4157 13C23.4157 12.783 23.348 12.5714 23.2219 12.3948L18.0136 5.10315ZM16.6302 19.25H5.64898L9.68023 13.6052C9.80631 13.4286 9.87408 13.217 9.87408 13C9.87408 12.783 9.80631 12.5714 9.68023 12.3948L5.64898 6.75002H16.6302L21.0948 13L16.6302 19.25Z" fill="#576B6E"/>
</svg>
