<svg width="27" height="27" viewBox="0 0 27 27" fill="none" xmlns="http://www.w3.org/2000/svg">
<path d="M18.9146 4.97138C18.8106 4.82572 18.6734 4.70698 18.5143 4.62499C18.3553 4.54301 18.1789 4.50016 18 4.5H3.37499C3.1684 4.50019 2.96585 4.55726 2.78955 4.66495C2.61325 4.77264 2.47001 4.9268 2.37553 5.11053C2.28106 5.29425 2.23899 5.50044 2.25396 5.70648C2.26892 5.91253 2.34033 6.11048 2.46036 6.27863L7.61736 13.5L2.45924 20.7214C2.33915 20.8896 2.26773 21.0877 2.25281 21.2938C2.23789 21.4999 2.28005 21.7062 2.37467 21.89C2.46928 22.0737 2.61268 22.2279 2.78914 22.3355C2.9656 22.4431 3.1683 22.5 3.37499 22.5H18C18.1789 22.4998 18.3553 22.457 18.5143 22.375C18.6734 22.293 18.8106 22.1743 18.9146 22.0286L24.5396 14.1536C24.6758 13.9629 24.749 13.7344 24.749 13.5C24.749 13.2656 24.6758 13.0371 24.5396 12.8464L18.9146 4.97138ZM17.4206 20.25H5.56086L9.91461 14.1536C10.0508 13.9629 10.124 13.7344 10.124 13.5C10.124 13.2656 10.0508 13.0371 9.91461 12.8464L5.56086 6.75H17.4206L22.2424 13.5L17.4206 20.25Z" fill="#376366"/>
</svg>
