<svg width="28" height="27" viewBox="0 0 28 27" fill="none" xmlns="http://www.w3.org/2000/svg">
<path d="M11.75 10.125C11.75 9.52826 11.9871 8.95597 12.409 8.53401C12.831 8.11205 13.4033 7.875 14 7.875C14.5967 7.875 15.169 8.11205 15.591 8.53401C16.0129 8.95597 16.25 9.52826 16.25 10.125C16.25 10.7217 16.0129 11.294 15.591 11.716C15.169 12.1379 14.5967 12.375 14 12.375C13.4033 12.375 12.831 12.1379 12.409 11.716C11.9871 11.294 11.75 10.7217 11.75 10.125ZM12.875 14.0625C11.9799 14.0625 11.1214 14.4181 10.4885 15.051C9.85558 15.6839 9.5 16.5424 9.5 17.4375C9.5 17.7359 9.61853 18.022 9.82951 18.233C10.0405 18.444 10.3266 18.5625 10.625 18.5625H17.375C17.6734 18.5625 17.9595 18.444 18.1705 18.233C18.3815 18.022 18.5 17.7359 18.5 17.4375C18.5 16.5424 18.1444 15.6839 17.5115 15.051C16.8786 14.4181 16.0201 14.0625 15.125 14.0625H12.875Z" fill="#65523C"/>
<path fill-rule="evenodd" clip-rule="evenodd" d="M8.98588 3.24339C12.3111 2.76506 15.6877 2.76506 19.013 3.24339C19.8141 3.35805 20.5531 3.73961 21.1104 4.32636C21.6678 4.9131 22.0109 5.67071 22.0843 6.47664L22.226 8.04714C22.5556 11.6753 22.5556 15.3259 22.226 18.9529L22.0831 20.5234C22.009 21.3289 21.6658 22.0859 21.1088 22.6725C20.5519 23.2591 19.8136 23.641 19.013 23.7566C15.6877 24.235 12.3111 24.235 8.98588 23.7566C8.18551 23.6407 7.44747 23.2587 6.89071 22.6722C6.33396 22.0856 5.99092 21.3287 5.91688 20.5234L5.774 18.9529C5.44398 15.3251 5.44398 11.6749 5.774 8.04714L5.91688 6.47664C5.99092 5.67132 6.33396 4.91439 6.89071 4.32783C7.44747 3.74128 8.18551 3.35928 8.98588 3.24339ZM18.7734 4.91289C15.6074 4.45747 12.3926 4.45747 9.22663 4.91289C8.80183 4.9747 8.41017 5.17764 8.11469 5.48903C7.81921 5.80043 7.63709 6.20218 7.59763 6.62964L7.45475 8.20014C7.13399 11.7261 7.13399 15.2739 7.45475 18.7999L7.59763 20.3704C7.67638 21.2513 8.35138 21.9611 9.22663 22.0871C12.3927 22.541 15.6073 22.541 18.7734 22.0871C19.1985 22.0261 19.5906 21.8234 19.8862 21.5118C20.1818 21.2003 20.3637 20.7981 20.4024 20.3704L20.5453 18.7999C20.866 15.2739 20.866 11.7261 20.5453 8.20014L20.4024 6.62964C20.3629 6.20218 20.1808 5.80043 19.8853 5.48903C19.5898 5.17764 19.1982 4.9747 18.7734 4.91289Z" fill="#65523C"/>
</svg>
