<svg width="27" height="27" viewBox="0 0 27 27" fill="none" xmlns="http://www.w3.org/2000/svg">
<path d="M0 5.0625V6.75H16.0312V19.4062H10.8371C10.4608 17.9558 9.15637 16.875 7.59375 16.875C6.03113 16.875 4.72669 17.9558 4.35038 19.4062H3.375V15.1875H1.6875V21.0938H4.35038C4.72669 22.5442 6.03113 23.625 7.59375 23.625C9.15637 23.625 10.4608 22.5442 10.8371 21.0938H17.8504C18.2267 22.5442 19.5311 23.625 21.0938 23.625C22.6564 23.625 23.9608 22.5442 24.3371 21.0938H27V14.2121L26.9468 14.0797L25.2593 9.01716L25.0763 8.4375H17.7188V5.0625H0ZM0.84375 8.4375V10.125H8.4375V8.4375H0.84375ZM17.7188 10.125H23.8621L25.3125 14.4492V19.4062H24.3371C23.9608 17.9558 22.6564 16.875 21.0938 16.875C19.5311 16.875 18.2267 17.9558 17.8504 19.4062H17.7188V10.125ZM1.6875 11.8125V13.5H6.75V11.8125H1.6875ZM7.59375 18.5625C8.53622 18.5625 9.28125 19.3075 9.28125 20.25C9.28125 21.1925 8.53622 21.9375 7.59375 21.9375C6.65128 21.9375 5.90625 21.1925 5.90625 20.25C5.90625 19.3075 6.65128 18.5625 7.59375 18.5625ZM21.0938 18.5625C22.0362 18.5625 22.7812 19.3075 22.7812 20.25C22.7812 21.1925 22.0362 21.9375 21.0938 21.9375C20.1513 21.9375 19.4062 21.1925 19.4062 20.25C19.4062 19.3075 20.1513 18.5625 21.0938 18.5625Z" fill="#3E614B"/>
</svg>
