<svg width="27" height="27" viewBox="0 0 27 27" fill="none" xmlns="http://www.w3.org/2000/svg">
<path d="M2.25 13.5C2.25 9.52088 2.25 7.53075 3.43462 6.20213C3.62437 5.98913 3.83213 5.79338 4.05788 5.61488C5.46975 4.5 7.58362 4.5 11.8125 4.5H15.1875C19.4164 4.5 21.5303 4.5 22.941 5.61375C23.1675 5.79375 23.3756 5.98988 23.5654 6.20213C24.75 7.52962 24.75 9.52088 24.75 13.5C24.75 17.4791 24.75 19.4692 23.5654 20.7979C23.3746 21.0113 23.1657 21.2078 22.941 21.3851C21.5303 22.5 19.4175 22.5 15.1875 22.5H11.8125C7.58362 22.5 5.46975 22.5 4.05788 21.3863C3.8335 21.2085 3.62497 21.0117 3.43462 20.7979C2.25 19.4704 2.25 17.4791 2.25 13.5Z" stroke="#614F79" stroke-width="1.8" stroke-linecap="round" stroke-linejoin="round"/>
<path d="M5.625 13.5H6.75M20.25 13.5H21.375M16.3699 13.5C16.3699 14.2459 16.0736 14.9613 15.5461 15.4887C15.0187 16.0162 14.3033 16.3125 13.5574 16.3125C12.8115 16.3125 12.0961 16.0162 11.5686 15.4887C11.0412 14.9613 10.7449 14.2459 10.7449 13.5C10.7449 12.7541 11.0412 12.0387 11.5686 11.5113C12.0961 10.9838 12.8115 10.6875 13.5574 10.6875C14.3033 10.6875 15.0187 10.9838 15.5461 11.5113C16.0736 12.0387 16.3699 12.7541 16.3699 13.5Z" stroke="#614F79" stroke-width="1.8" stroke-linecap="round" stroke-linejoin="round"/>
</svg>
