<svg width="18" height="18" viewBox="0 0 18 18" fill="none" xmlns="http://www.w3.org/2000/svg">
<path d="M6.75011 12.1274L4.14761 9.52487C4.00738 9.38464 3.81718 9.30586 3.61886 9.30586C3.42054 9.30586 3.23034 9.38464 3.09011 9.52487C2.94988 9.66511 2.87109 9.8553 2.87109 10.0536C2.87109 10.1518 2.89044 10.2491 2.92801 10.3398C2.96559 10.4305 3.02067 10.5129 3.09011 10.5824L6.22511 13.7174C6.51761 14.0099 6.99011 14.0099 7.28261 13.7174L15.2176 5.78237C15.3578 5.64214 15.4366 5.45194 15.4366 5.25362C15.4366 5.05531 15.3578 4.86511 15.2176 4.72487C15.0774 4.58464 14.8872 4.50586 14.6889 4.50586C14.4905 4.50586 14.3003 4.58464 14.1601 4.72487L6.75011 12.1274Z" fill="white"/>
</svg>
