<svg width="14" height="14" viewBox="0 0 14 14" fill="none" xmlns="http://www.w3.org/2000/svg">
<path d="M5.25004 9.43175L3.22588 7.40758C3.11681 7.29851 2.96888 7.23724 2.81463 7.23724C2.66038 7.23724 2.51245 7.29851 2.40338 7.40758C2.29431 7.51665 2.23303 7.66459 2.23303 7.81883C2.23303 7.89521 2.24808 7.97084 2.2773 8.0414C2.30653 8.11196 2.34937 8.17608 2.40338 8.23008L4.84171 10.6684C5.06921 10.8959 5.43671 10.8959 5.66421 10.6684L11.8359 4.49675C11.9449 4.38768 12.0062 4.23975 12.0062 4.0855C12.0062 3.93125 11.9449 3.78332 11.8359 3.67425C11.7268 3.56518 11.5789 3.50391 11.4246 3.50391C11.2704 3.50391 11.1224 3.56518 11.0134 3.67425L5.25004 9.43175Z" fill="#032C33"/>
</svg>
