<svg width="17" height="17" viewBox="0 0 17 17" fill="none" xmlns="http://www.w3.org/2000/svg">
<path d="M2.83334 12.0416C2.63264 12.0416 2.46453 11.9736 2.329 11.8376C2.19347 11.7016 2.12547 11.5335 2.125 11.3333C2.12453 11.133 2.19253 10.9649 2.329 10.8289C2.46547 10.6929 2.63359 10.6249 2.83334 10.6249H11.3333C11.534 10.6249 11.7024 10.6929 11.8384 10.8289C11.9744 10.9649 12.0421 11.133 12.0417 11.3333C12.0412 11.5335 11.9732 11.7018 11.8377 11.8383C11.7021 11.9748 11.534 12.0425 11.3333 12.0416H2.83334ZM4.25 9.20825C4.04931 9.20825 3.8812 9.14025 3.74567 9.00425C3.61014 8.86825 3.54214 8.70014 3.54167 8.49992C3.5412 8.2997 3.6092 8.13159 3.74567 7.99559C3.88214 7.85959 4.05025 7.79159 4.25 7.79159H12.75C12.9507 7.79159 13.119 7.85959 13.255 7.99559C13.391 8.13159 13.4588 8.2997 13.4583 8.49992C13.4579 8.70014 13.3899 8.86849 13.2543 9.00496C13.1188 9.14143 12.9507 9.2092 12.75 9.20825H4.25ZM5.66667 6.37492C5.46597 6.37492 5.29786 6.30692 5.16234 6.17092C5.02681 6.03492 4.95881 5.86681 4.95834 5.66659C4.95786 5.46636 5.02586 5.29825 5.16234 5.16225C5.29881 5.02625 5.46692 4.95825 5.66667 4.95825H14.1667C14.3674 4.95825 14.5357 5.02625 14.6717 5.16225C14.8077 5.29825 14.8755 5.46636 14.875 5.66659C14.8745 5.86681 14.8065 6.03515 14.671 6.17163C14.5355 6.3081 14.3674 6.37586 14.1667 6.37492H5.66667Z" fill="#032C33"/>
</svg>
