<svg width="17" height="17" viewBox="0 0 17 17" fill="none" xmlns="http://www.w3.org/2000/svg">
<path d="M7.08329 6.37501C7.08329 5.99929 7.23255 5.63895 7.49822 5.37328C7.7639 5.1076 8.12424 4.95834 8.49996 4.95834C8.87568 4.95834 9.23602 5.1076 9.50169 5.37328C9.76737 5.63895 9.91663 5.99929 9.91663 6.37501C9.91663 6.75073 9.76737 7.11107 9.50169 7.37674C9.23602 7.64242 8.87568 7.79168 8.49996 7.79168C8.12424 7.79168 7.7639 7.64242 7.49822 7.37674C7.23255 7.11107 7.08329 6.75073 7.08329 6.37501ZM7.79163 8.85418C7.22804 8.85418 6.68754 9.07806 6.28902 9.47657C5.89051 9.87509 5.66663 10.4156 5.66663 10.9792C5.66663 11.167 5.74125 11.3472 5.87409 11.48C6.00693 11.6129 6.1871 11.6875 6.37496 11.6875H10.625C10.8128 11.6875 10.993 11.6129 11.1258 11.48C11.2587 11.3472 11.3333 11.167 11.3333 10.9792C11.3333 10.4156 11.1094 9.87509 10.7109 9.47657C10.3124 9.07806 9.77188 8.85418 9.20829 8.85418H7.79163Z" fill="#014754"/>
<path fill-rule="evenodd" clip-rule="evenodd" d="M5.34293 2.04213C7.43662 1.74096 9.56262 1.74096 11.6563 2.04213C12.1607 2.11432 12.626 2.35457 12.9769 2.724C13.3278 3.09343 13.5439 3.57044 13.5901 4.07788L13.6793 5.06671C13.8868 7.35109 13.8868 9.64963 13.6793 11.9333L13.5893 12.9221C13.5427 13.4293 13.3266 13.906 12.9759 14.2753C12.6252 14.6446 12.1604 14.8851 11.6563 14.9579C9.56262 15.259 7.43662 15.259 5.34293 14.9579C4.839 14.8849 4.37431 14.6444 4.02376 14.2751C3.67321 13.9058 3.45722 13.4292 3.4106 12.9221L3.32064 11.9333C3.11285 9.64915 3.11285 7.35086 3.32064 5.06671L3.4106 4.07788C3.45722 3.57083 3.67321 3.09424 4.02376 2.72493C4.37431 2.35562 4.839 2.1151 5.34293 2.04213ZM11.5054 3.0933C9.51205 2.80655 7.4879 2.80655 5.49452 3.0933C5.22705 3.13222 4.98045 3.25999 4.79441 3.45605C4.60837 3.65212 4.4937 3.90507 4.46885 4.17421L4.37889 5.16305C4.17693 7.3831 4.17693 9.61691 4.37889 11.837L4.46885 12.8258C4.51843 13.3804 4.94343 13.8274 5.49452 13.9067C7.48796 14.1925 9.51198 14.1925 11.5054 13.9067C11.7731 13.8683 12.02 13.7406 12.2061 13.5445C12.3922 13.3483 12.5067 13.0951 12.5311 12.8258L12.6211 11.837C12.823 9.61691 12.823 7.3831 12.6211 5.16305L12.5311 4.17421C12.5063 3.90507 12.3916 3.65212 12.2055 3.45605C12.0195 3.25999 11.7729 3.13222 11.5054 3.0933Z" fill="#014754"/>
</svg>
