<svg width="26" height="26" viewBox="0 0 26 26" fill="none" xmlns="http://www.w3.org/2000/svg">
<path d="M5.96875 8.27189V22.375H20.0312V8.27189L13.9891 3.32814C13.71 3.09993 13.3605 2.97526 13 2.97526C12.6395 2.97526 12.29 3.09993 12.0109 3.32814L5.96875 8.27189ZM14.9781 2.11877L21.3062 7.29689C21.396 7.37008 21.4683 7.4623 21.5181 7.56688C21.5678 7.67146 21.5936 7.78578 21.5938 7.90158V23.1563C21.5938 23.3635 21.5114 23.5622 21.3649 23.7087C21.2184 23.8552 21.0197 23.9375 20.8125 23.9375H5.1875C4.9803 23.9375 4.78159 23.8552 4.63507 23.7087C4.48856 23.5622 4.40625 23.3635 4.40625 23.1563V7.90158C4.40617 7.78591 4.43178 7.67166 4.48123 7.56709C4.53068 7.46252 4.60273 7.37023 4.69219 7.29689L11.0203 2.11877C11.5786 1.66194 12.2778 1.41235 12.9992 1.41235C13.7206 1.41235 14.4198 1.66194 14.9781 2.11877Z" fill="#576B6E"/>
<path d="M13 11.4375C13.4144 11.4375 13.8118 11.2729 14.1049 10.9799C14.3979 10.6868 14.5625 10.2894 14.5625 9.875C14.5625 9.4606 14.3979 9.06317 14.1049 8.77015C13.8118 8.47712 13.4144 8.3125 13 8.3125C12.5856 8.3125 12.1882 8.47712 11.8951 8.77015C11.6021 9.06317 11.4375 9.4606 11.4375 9.875C11.4375 10.2894 11.6021 10.6868 11.8951 10.9799C12.1882 11.2729 12.5856 11.4375 13 11.4375ZM13 13C12.1712 13 11.3763 12.6708 10.7903 12.0847C10.2042 11.4987 9.875 10.7038 9.875 9.875C9.875 9.0462 10.2042 8.25134 10.7903 7.66529C11.3763 7.07924 12.1712 6.75 13 6.75C13.8288 6.75 14.6237 7.07924 15.2097 7.66529C15.7958 8.25134 16.125 9.0462 16.125 9.875C16.125 10.7038 15.7958 11.4987 15.2097 12.0847C14.6237 12.6708 13.8288 13 13 13Z" fill="#576B6E"/>
</svg>
