<svg width="16" height="16" viewBox="0 0 16 16" fill="none" xmlns="http://www.w3.org/2000/svg">
<g clip-path="url(#clip0_241_125209)">
<path d="M4.3335 11.6673H2.3335V13.6673M13.6668 13.6673H11.6668V11.6673M11.6668 4.33398H13.6668V2.33398M2.3335 2.33398H4.3335V4.33398" stroke="#032C33" stroke-width="1.2" stroke-linecap="round" stroke-linejoin="round"/>
<path d="M4.3335 2.43199C2.52616 3.62432 1.3335 5.67332 1.3335 8.00065C1.33372 8.34065 1.3585 8.67399 1.40783 9.00065M9.00016 14.593C8.66917 14.6428 8.33489 14.6677 8.00016 14.6673C5.67283 14.6673 3.62383 13.4747 2.4315 11.6673M14.5925 7.00065C14.6418 7.32732 14.6666 7.66065 14.6668 8.00065C14.6668 10.328 13.4742 12.377 11.6668 13.5693M7.00016 1.40865C7.33115 1.35869 7.66543 1.33373 8.00016 1.33399C10.3275 1.33399 12.3765 2.52665 13.5688 4.33399" stroke="#032C33" stroke-width="1.2" stroke-linecap="round" stroke-linejoin="round"/>
</g>
<defs>
<clipPath id="clip0_241_125209">
<rect width="16" height="16" fill="white"/>
</clipPath>
</defs>
</svg>
