<svg width="17" height="17" viewBox="0 0 17 17" fill="none" xmlns="http://www.w3.org/2000/svg">
<path d="M9.20833 5.66667V2.83333C9.20833 2.63264 9.27633 2.46453 9.41233 2.329C9.54833 2.19347 9.71644 2.12547 9.91667 2.125H14.1667C14.3674 2.125 14.5357 2.193 14.6717 2.329C14.8077 2.465 14.8755 2.63311 14.875 2.83333V5.66667C14.875 5.86736 14.807 6.03571 14.671 6.17171C14.535 6.30771 14.3669 6.37547 14.1667 6.375H9.91667C9.71597 6.375 9.54786 6.307 9.41233 6.171C9.27681 6.035 9.20881 5.86689 9.20833 5.66667ZM2.125 8.5V2.83333C2.125 2.63264 2.193 2.46453 2.329 2.329C2.465 2.19347 2.63311 2.12547 2.83333 2.125H7.08333C7.28403 2.125 7.45237 2.193 7.58838 2.329C7.72438 2.465 7.79214 2.63311 7.79167 2.83333V8.5C7.79167 8.70069 7.72367 8.86904 7.58767 9.00504C7.45167 9.14104 7.28356 9.20881 7.08333 9.20833H2.83333C2.63264 9.20833 2.46453 9.14033 2.329 9.00433C2.19347 8.86833 2.12547 8.70022 2.125 8.5ZM9.20833 14.1667V8.5C9.20833 8.29931 9.27633 8.13119 9.41233 7.99567C9.54833 7.86014 9.71644 7.79214 9.91667 7.79167H14.1667C14.3674 7.79167 14.5357 7.85967 14.6717 7.99567C14.8077 8.13167 14.8755 8.29978 14.875 8.5V14.1667C14.875 14.3674 14.807 14.5357 14.671 14.6717C14.535 14.8077 14.3669 14.8755 14.1667 14.875H9.91667C9.71597 14.875 9.54786 14.807 9.41233 14.671C9.27681 14.535 9.20881 14.3669 9.20833 14.1667ZM2.125 14.1667V11.3333C2.125 11.1326 2.193 10.9645 2.329 10.829C2.465 10.6935 2.63311 10.6255 2.83333 10.625H7.08333C7.28403 10.625 7.45237 10.693 7.58838 10.829C7.72438 10.965 7.79214 11.1331 7.79167 11.3333V14.1667C7.79167 14.3674 7.72367 14.5357 7.58767 14.6717C7.45167 14.8077 7.28356 14.8755 7.08333 14.875H2.83333C2.63264 14.875 2.46453 14.807 2.329 14.671C2.19347 14.535 2.12547 14.3669 2.125 14.1667ZM3.54167 7.79167H6.375V3.54167H3.54167V7.79167ZM10.625 13.4583H13.4583V9.20833H10.625V13.4583ZM10.625 4.95833H13.4583V3.54167H10.625V4.95833ZM3.54167 13.4583H6.375V12.0417H3.54167V13.4583Z" fill="#014754"/>
</svg>
