<svg width="25" height="26" viewBox="0 0 25 26" fill="none" xmlns="http://www.w3.org/2000/svg">
<path d="M13.5417 8.83333V4.66667C13.5417 4.37153 13.6417 4.12431 13.8417 3.925C14.0417 3.72569 14.2889 3.62569 14.5833 3.625H20.8333C21.1285 3.625 21.376 3.725 21.576 3.925C21.776 4.125 21.8757 4.37222 21.875 4.66667V8.83333C21.875 9.12847 21.775 9.37604 21.575 9.57604C21.375 9.77604 21.1278 9.87569 20.8333 9.875H14.5833C14.2882 9.875 14.041 9.775 13.8417 9.575C13.6424 9.375 13.5424 9.12778 13.5417 8.83333ZM3.125 13V4.66667C3.125 4.37153 3.225 4.12431 3.425 3.925C3.625 3.72569 3.87222 3.62569 4.16667 3.625H10.4167C10.7118 3.625 10.9594 3.725 11.1594 3.925C11.3594 4.125 11.459 4.37222 11.4583 4.66667V13C11.4583 13.2951 11.3583 13.5427 11.1583 13.7427C10.9583 13.9427 10.7111 14.0424 10.4167 14.0417H4.16667C3.87153 14.0417 3.62431 13.9417 3.425 13.7417C3.22569 13.5417 3.12569 13.2944 3.125 13ZM13.5417 21.3333V13C13.5417 12.7049 13.6417 12.4576 13.8417 12.2583C14.0417 12.059 14.2889 11.959 14.5833 11.9583H20.8333C21.1285 11.9583 21.376 12.0583 21.576 12.2583C21.776 12.4583 21.8757 12.7056 21.875 13V21.3333C21.875 21.6285 21.775 21.876 21.575 22.076C21.375 22.276 21.1278 22.3757 20.8333 22.375H14.5833C14.2882 22.375 14.041 22.275 13.8417 22.075C13.6424 21.875 13.5424 21.6278 13.5417 21.3333ZM3.125 21.3333V17.1667C3.125 16.8715 3.225 16.6243 3.425 16.425C3.625 16.2257 3.87222 16.1257 4.16667 16.125H10.4167C10.7118 16.125 10.9594 16.225 11.1594 16.425C11.3594 16.625 11.459 16.8722 11.4583 17.1667V21.3333C11.4583 21.6285 11.3583 21.876 11.1583 22.076C10.9583 22.276 10.7111 22.3757 10.4167 22.375H4.16667C3.87153 22.375 3.62431 22.275 3.425 22.075C3.22569 21.875 3.12569 21.6278 3.125 21.3333ZM5.20833 11.9583H9.375V5.70833H5.20833V11.9583ZM15.625 20.2917H19.7917V14.0417H15.625V20.2917ZM15.625 7.79167H19.7917V5.70833H15.625V7.79167ZM5.20833 20.2917H9.375V18.2083H5.20833V20.2917Z" fill="#032C33"/>
</svg>
