<svg width="21" height="22" viewBox="0 0 21 22" fill="none" xmlns="http://www.w3.org/2000/svg">
<path d="M6.56795 13.4819C6.59094 13.565 6.63006 13.6427 6.68308 13.7107C6.7361 13.7786 6.80199 13.8355 6.87699 13.878C6.95198 13.9205 7.03461 13.9478 7.12016 13.9583C7.20571 13.9689 7.2925 13.9625 7.37558 13.9395C7.45866 13.9165 7.53639 13.8774 7.60435 13.8244C7.67231 13.7714 7.72916 13.7055 7.77166 13.6305C7.81415 13.5555 7.84146 13.4728 7.85202 13.3873C7.86258 13.3018 7.85619 13.215 7.8332 13.1319L6.56795 13.4819ZM2.8002 4.25938C2.7168 4.23502 2.62939 4.22747 2.54304 4.23715C2.45669 4.24684 2.37313 4.27358 2.2972 4.31582C2.22127 4.35806 2.15448 4.41495 2.10071 4.48321C2.04694 4.55146 2.00726 4.62971 1.98397 4.71342C1.96068 4.79713 1.95425 4.88464 1.96505 4.97085C1.97584 5.05707 2.00365 5.14028 2.04686 5.21566C2.09007 5.29105 2.14782 5.3571 2.21676 5.40999C2.2857 5.46288 2.36445 5.50155 2.44845 5.52376L2.8002 4.25938ZM17.6647 13.8844C17.7502 13.8646 17.8308 13.8279 17.9018 13.7765C17.9728 13.725 18.0328 13.6599 18.0783 13.5849C18.1237 13.5098 18.1536 13.4265 18.1663 13.3397C18.1789 13.2529 18.174 13.1644 18.1519 13.0796C18.1298 12.9947 18.0909 12.9151 18.0375 12.8455C17.9841 12.7759 17.9173 12.7178 17.8411 12.6744C17.7648 12.6311 17.6807 12.6035 17.5936 12.5933C17.5065 12.583 17.4182 12.5903 17.334 12.6148L17.6647 13.8844ZM8.92258 15.4891C9.19383 16.4691 8.59883 17.5043 7.54533 17.7781L7.8752 19.0478C9.60508 18.5989 10.6621 16.8585 10.1878 15.1391L8.92258 15.4891ZM7.54533 17.7781C6.48483 18.0538 5.42083 17.4378 5.14783 16.449L3.88258 16.799C4.35508 18.5096 6.15233 19.4958 7.8752 19.0478L7.54533 17.7781ZM5.14783 16.449C4.87658 15.469 5.47158 14.4339 6.52508 14.16L6.1952 12.8913C4.46533 13.3401 3.40745 15.0796 3.88258 16.799L5.14783 16.449ZM6.52508 14.16C7.58558 13.8844 8.64958 14.5004 8.92258 15.4891L10.1878 15.1391C9.71533 13.4285 7.91808 12.4424 6.1952 12.8904L6.52508 14.16ZM7.8332 13.1319L5.9502 6.31563L4.68495 6.66563L6.56795 13.4819L7.8332 13.1319ZM4.2912 4.67238L2.8002 4.25938L2.44845 5.52376L3.94033 5.93763L4.2912 4.67238ZM5.9502 6.31563C5.83895 5.92187 5.6277 5.5636 5.33699 5.27565C5.04628 4.9877 4.68601 4.77987 4.2912 4.67238L3.94208 5.93763C4.31395 6.04088 4.59045 6.32351 4.68495 6.66563L5.9502 6.31563ZM9.72145 15.9494L17.6647 13.8844L17.3348 12.6148L9.39071 14.6798L9.72145 15.9494Z" fill="#032C33"/>
<path d="M8.36945 7.76376C7.94507 6.22813 7.73333 5.45988 8.09383 4.85526C8.45345 4.24976 9.24533 4.04413 10.8291 3.63201L12.5091 3.19626C14.0928 2.78501 14.8847 2.57851 15.5086 2.92763C16.1325 3.27763 16.3451 4.04501 16.7686 5.58151L17.2192 7.21076C17.6436 8.74638 17.8562 9.51463 17.4957 10.1201C17.1352 10.7248 16.3433 10.9313 14.7596 11.3425L13.0796 11.7791C11.4958 12.1904 10.704 12.396 10.0801 12.0469C9.4562 11.6969 9.24445 10.9295 8.82007 9.39388L8.36945 7.76376Z" stroke="#032C33" stroke-width="1.7"/>
</svg>
