<svg width="23" height="23" viewBox="0 0 23 23" fill="none" xmlns="http://www.w3.org/2000/svg">
<rect width="23" height="23" rx="11.5" fill="#30B1CD"/>
<g clip-path="url(#clip0_741_12909)">
<path d="M5.00012 7.2688V8.02505H12.1845V13.6969H9.85676C9.68812 13.0469 9.10353 12.5625 8.40325 12.5625C7.70296 12.5625 7.11838 13.0469 6.94973 13.6969H6.51262V11.8063H5.75637V14.4532H6.94973C7.11838 15.1032 7.70296 15.5875 8.40325 15.5875C9.10353 15.5875 9.68812 15.1032 9.85676 14.4532H12.9997C13.1684 15.1032 13.753 15.5875 14.4532 15.5875C15.1535 15.5875 15.7381 15.1032 15.9068 14.4532H17.1001V11.3692L17.0763 11.3098L16.3201 9.04107L16.238 8.7813H12.9407V7.2688H5.00012ZM5.37825 8.7813V9.53755H8.78137V8.7813H5.37825ZM12.9407 9.53755H15.6939L16.3439 11.4754V13.6969H15.9068C15.7381 13.0469 15.1535 12.5625 14.4532 12.5625C13.753 12.5625 13.1684 13.0469 12.9997 13.6969H12.9407V9.53755ZM5.75637 10.2938V11.05H8.02512V10.2938H5.75637ZM8.40325 13.3188C8.82561 13.3188 9.1595 13.6527 9.1595 14.075C9.1595 14.4974 8.82561 14.8313 8.40325 14.8313C7.98088 14.8313 7.647 14.4974 7.647 14.075C7.647 13.6527 7.98088 13.3188 8.40325 13.3188ZM14.4532 13.3188C14.8756 13.3188 15.2095 13.6527 15.2095 14.075C15.2095 14.4974 14.8756 14.8313 14.4532 14.8313C14.0309 14.8313 13.697 14.4974 13.697 14.075C13.697 13.6527 14.0309 13.3188 14.4532 13.3188Z" fill="white"/>
</g>
<defs>
<clipPath id="clip0_741_12909">
<rect width="12.1" height="12.1" fill="white" transform="translate(5.00006 5)"/>
</clipPath>
</defs>
</svg>
