<svg width="18" height="18" viewBox="0 0 18 18" fill="none" xmlns="http://www.w3.org/2000/svg">
<path d="M6.75 9.75H11.25C11.4625 9.75 11.6407 9.678 11.7847 9.534C11.9288 9.39 12.0005 9.212 12 9C11.9995 8.788 11.9275 8.61 11.784 8.466C11.6405 8.322 11.4625 8.25 11.25 8.25H6.75C6.5375 8.25 6.3595 8.322 6.216 8.466C6.0725 8.61 6.0005 8.788 6 9C5.9995 9.212 6.0715 9.39025 6.216 9.53475C6.3605 9.67925 6.5385 9.751 6.75 9.75ZM6.75 12H11.25C11.4625 12 11.6407 11.928 11.7847 11.784C11.9288 11.64 12.0005 11.462 12 11.25C11.9995 11.038 11.9275 10.86 11.784 10.716C11.6405 10.572 11.4625 10.5 11.25 10.5H6.75C6.5375 10.5 6.3595 10.572 6.216 10.716C6.0725 10.86 6.0005 11.038 6 11.25C5.9995 11.462 6.0715 11.6403 6.216 11.7847C6.3605 11.9292 6.5385 12.001 6.75 12ZM6.75 14.25H9C9.2125 14.25 9.39075 14.178 9.53475 14.034C9.67875 13.89 9.7505 13.712 9.75 13.5C9.7495 13.288 9.6775 13.11 9.534 12.966C9.3905 12.822 9.2125 12.75 9 12.75H6.75C6.5375 12.75 6.3595 12.822 6.216 12.966C6.0725 13.11 6.0005 13.288 6 13.5C5.9995 13.712 6.0715 13.8902 6.216 14.0347C6.3605 14.1792 6.5385 14.251 6.75 14.25ZM4.5 16.5C4.0875 16.5 3.7345 16.3533 3.441 16.0597C3.1475 15.7662 3.0005 15.413 3 15V3C3 2.5875 3.147 2.2345 3.441 1.941C3.735 1.6475 4.088 1.5005 4.5 1.5H9.88125C10.0813 1.5 10.272 1.5375 10.4535 1.6125C10.635 1.6875 10.7943 1.79375 10.9312 1.93125L14.5687 5.56875C14.7062 5.70625 14.8125 5.86575 14.8875 6.04725C14.9625 6.22875 15 6.41925 15 6.61875V15C15 15.4125 14.8533 15.7657 14.5597 16.0597C14.2662 16.3538 13.913 16.5005 13.5 16.5H4.5ZM13.5 6.75H10.875C10.5625 6.75 10.297 6.64075 10.0785 6.42225C9.86 6.20375 9.7505 5.938 9.75 5.625V3H4.5V15H13.5V6.75Z" fill="#032C33"/>
</svg>
