<svg width="14" height="14" viewBox="0 0 14 14" fill="none" xmlns="http://www.w3.org/2000/svg">
<path fill-rule="evenodd" clip-rule="evenodd" d="M7.41242 9.16239C7.30303 9.27175 7.15468 9.33318 7 9.33318C6.84532 9.33318 6.69698 9.27175 6.58758 9.16239L3.28767 5.86248C3.23195 5.80867 3.18751 5.7443 3.15694 5.67313C3.12637 5.60196 3.11028 5.52541 3.1096 5.44796C3.10893 5.37051 3.12369 5.29369 3.15302 5.222C3.18235 5.15031 3.22567 5.08518 3.28044 5.03041C3.33521 4.97564 3.40034 4.93233 3.47203 4.903C3.54372 4.87367 3.62053 4.85891 3.69799 4.85958C3.77544 4.86025 3.85198 4.87635 3.92315 4.90692C3.99432 4.93749 4.05869 4.98193 4.1125 5.03764L7 7.92514L9.8875 5.03764C9.99752 4.93138 10.1449 4.87259 10.2978 4.87392C10.4508 4.87525 10.5971 4.93659 10.7052 5.04475C10.8134 5.1529 10.8747 5.29921 10.8761 5.45216C10.8774 5.60511 10.8186 5.75246 10.7123 5.86248L7.41242 9.16239Z" fill="#014754"/>
</svg>
