<svg width="19" height="19" viewBox="0 0 19 19" fill="none" xmlns="http://www.w3.org/2000/svg">
<path d="M15.8333 12.0742C15.9908 12.0742 16.1418 12.1368 16.2532 12.2481C16.3645 12.3595 16.4271 12.5105 16.4271 12.668V13.4596C16.4271 14.247 16.1143 15.0021 15.5576 15.5589C15.0008 16.1156 14.2457 16.4284 13.4583 16.4284H5.54166C4.7543 16.4284 3.99919 16.1156 3.44244 15.5589C2.88569 15.0021 2.57291 14.247 2.57291 13.4596V12.6711C2.57291 12.5137 2.63547 12.3626 2.74682 12.2513C2.85817 12.1399 3.00919 12.0774 3.16666 12.0774C3.32414 12.0774 3.47516 12.1399 3.58651 12.2513C3.69786 12.3626 3.76041 12.5137 3.76041 12.6711V13.4596C3.76041 13.9321 3.94808 14.3851 4.28213 14.7192C4.61618 15.0532 5.06925 15.2409 5.54166 15.2409H13.4583C13.9307 15.2409 14.3838 15.0532 14.7179 14.7192C15.0519 14.3851 15.2396 13.9321 15.2396 13.4596V12.668C15.2396 12.5105 15.3021 12.3595 15.4135 12.2481C15.5248 12.1368 15.6759 12.0742 15.8333 12.0742Z" fill="#014754"/>
<path d="M10.0937 3.5625C10.0937 3.40503 10.0312 3.254 9.91984 3.14266C9.80849 3.03131 9.65747 2.96875 9.49999 2.96875C9.34252 2.96875 9.1915 3.03131 9.08015 3.14266C8.9688 3.254 8.90624 3.40503 8.90624 3.5625V9.08042H6.30958C6.19839 9.19174 6.13593 9.34266 6.13593 9.5C6.13593 9.65734 6.19839 9.80825 6.30958 9.91958L9.08041 12.6904C9.19174 12.8016 9.34265 12.8641 9.49999 12.8641C9.65734 12.8641 9.80825 12.8016 9.91958 12.6904L12.6904 9.91958C12.8016 9.80825 12.8641 9.65734 12.8641 9.5C12.8641 9.34266 12.8016 9.19174 12.6904 9.08042H10.0937V3.5625Z" fill="#014754"/>
</svg>
