<svg width="12" height="12" viewBox="0 0 12 12" fill="none" xmlns="http://www.w3.org/2000/svg">
<g clip-path="url(#clip0_1346_42868)">
<path fill-rule="evenodd" clip-rule="evenodd" d="M6.3977 8.08471C6.29221 8.19016 6.14916 8.2494 6.00001 8.2494C5.85085 8.2494 5.70781 8.19016 5.60232 8.08471L2.42026 4.90265C2.36654 4.85076 2.32368 4.78869 2.2942 4.72006C2.26472 4.65143 2.24921 4.57762 2.24856 4.50293C2.24791 4.42825 2.26214 4.35418 2.29042 4.28505C2.31871 4.21592 2.36047 4.15311 2.41329 4.1003C2.4661 4.04748 2.52891 4.00572 2.59804 3.97743C2.66716 3.94915 2.74123 3.93492 2.81592 3.93557C2.89061 3.93622 2.96442 3.95173 3.03305 3.98121C3.10168 4.01069 3.16375 4.05355 3.21563 4.10727L6.00001 6.89165L8.78439 4.10727C8.89047 4.00481 9.03256 3.94811 9.18005 3.94939C9.32753 3.95067 9.46862 4.00983 9.57291 4.11412C9.6772 4.21842 9.73636 4.3595 9.73764 4.50698C9.73892 4.65447 9.68222 4.79656 9.57976 4.90265L6.3977 8.08471Z" fill="#032C33"/>
</g>
<defs>
<clipPath id="clip0_1346_42868">
<rect width="12" height="12" fill="white"/>
</clipPath>
</defs>
</svg>
