<svg width="18" height="19" viewBox="0 0 18 19" fill="none" xmlns="http://www.w3.org/2000/svg">
<g clip-path="url(#clip0_818_7962)">
<path fill-rule="evenodd" clip-rule="evenodd" d="M9.53026 12.2802C9.38962 12.4209 9.19889 12.4998 9.00001 12.4998C8.80114 12.4998 8.61041 12.4209 8.46976 12.2802L4.22701 8.0375C4.15538 7.96831 4.09824 7.88555 4.05894 7.79405C4.01963 7.70255 3.99894 7.60413 3.99808 7.50455C3.99721 7.40496 4.01619 7.3062 4.0539 7.21403C4.09161 7.12186 4.1473 7.03812 4.21772 6.9677C4.28814 6.89728 4.37188 6.84159 4.46405 6.80388C4.55622 6.76617 4.65498 6.74719 4.75456 6.74806C4.85415 6.74893 4.95256 6.76962 5.04407 6.80892C5.13557 6.84823 5.21833 6.90536 5.28751 6.977L9.00001 10.6895L12.7125 6.977C12.854 6.84038 13.0434 6.76478 13.2401 6.76649C13.4367 6.7682 13.6248 6.84708 13.7639 6.98613C13.9029 7.12519 13.9818 7.3133 13.9835 7.50995C13.9852 7.70659 13.9096 7.89605 13.773 8.0375L9.53026 12.2802Z" fill="#7C9297"/>
</g>
<defs>
<clipPath id="clip0_818_7962">
<rect width="18" height="18" fill="white" transform="translate(0 0.5)"/>
</clipPath>
</defs>
</svg>
