<svg width="16" height="18" viewBox="0 0 16 18" fill="none" xmlns="http://www.w3.org/2000/svg">
<path d="M12.9241 2.80887C12.4137 2.80887 11.975 4.36546 11.783 6.59264C11.7788 6.64438 11.7029 6.64332 11.6997 6.59052C11.4888 3.23973 10.8698 0.811915 10.1389 0.811915C9.54834 0.811915 9.03053 2.39702 8.74263 4.77309C8.72364 4.93255 8.49163 4.93255 8.4737 4.77309C8.18158 2.28825 7.64584 0.624998 7.03418 0.624998C6.55961 0.624998 6.13144 1.624 5.82666 3.23023C5.77182 3.51747 5.35736 3.51747 5.30358 3.23023C4.9988 1.624 4.57063 0.624998 4.09606 0.624998C3.75859 0.624998 3.44432 1.13189 3.18173 2.00312C3.09314 2.29775 2.67868 2.29775 2.5901 2.00312C2.3275 1.13189 2.01323 0.624998 1.67576 0.624998C0.749818 0.624998 0 4.43094 0 9.125C0 13.8191 0.749818 17.625 1.67576 17.625C2.01323 17.625 2.3275 17.1181 2.5901 16.2469C2.67868 15.9522 3.09314 15.9522 3.18173 16.2469C3.44432 17.1181 3.75859 17.625 4.09606 17.625C4.57063 17.625 4.9988 16.626 5.30358 15.0198C5.35842 14.7325 5.77288 14.7325 5.82666 15.0198C6.13144 16.626 6.55961 17.625 7.03418 17.625C7.64584 17.625 8.18158 15.9607 8.4737 13.4759C8.49269 13.3164 8.72364 13.3164 8.74368 13.4759C9.03159 15.853 9.54939 17.437 10.14 17.437C10.8708 17.437 11.4899 15.0103 11.7008 11.6584C11.7039 11.6067 11.7799 11.6046 11.7841 11.6563C11.976 13.8835 12.4147 15.4401 12.9252 15.4401C13.5759 15.4401 14.1095 12.9109 14.1654 9.68681C14.1749 9.06692 14.1706 9.06269 14.1654 8.56107C14.1095 5.33701 13.5759 2.80781 12.9252 2.80781L12.9241 2.80887Z" fill="#444CE7"/>
<path d="M14.7772 7.44068C14.6328 7.44068 14.5104 7.90955 14.464 8.56218C14.464 8.56218 14.4197 9.16307 14.464 9.68792C14.5094 10.3405 14.6328 10.8094 14.7772 10.8094C14.9607 10.8094 15.1094 10.0554 15.1094 9.12505C15.1094 8.19468 14.9607 7.44068 14.7772 7.44068Z" fill="#444CE7"/>
</svg>
