<svg width="14" height="15" viewBox="0 0 14 15" fill="none" xmlns="http://www.w3.org/2000/svg">
<path d="M2.91667 11.5833H3.74792L9.45 5.88125L8.61875 5.05L2.91667 10.7521V11.5833ZM2.33333 12.75C2.16806 12.75 2.02961 12.694 1.918 12.582C1.80639 12.47 1.75039 12.3316 1.75 12.1667V10.7521C1.75 10.5965 1.77917 10.4482 1.8375 10.307C1.89583 10.1658 1.97847 10.042 2.08542 9.93542L9.45 2.58542C9.56667 2.47847 9.69558 2.39583 9.83675 2.3375C9.97792 2.27917 10.1261 2.25 10.2812 2.25C10.4364 2.25 10.5871 2.27917 10.7333 2.3375C10.8796 2.39583 11.0059 2.48333 11.1125 2.6L11.9146 3.41667C12.0312 3.52361 12.1162 3.65 12.1695 3.79583C12.2228 3.94167 12.2496 4.0875 12.25 4.23333C12.25 4.38889 12.2232 4.53725 12.1695 4.67842C12.1158 4.81958 12.0309 4.94831 11.9146 5.06458L4.56458 12.4146C4.45764 12.5215 4.33358 12.6042 4.19242 12.6625C4.05125 12.7208 3.90308 12.75 3.74792 12.75H2.33333ZM9.02708 5.47292L8.61875 5.05L9.45 5.88125L9.02708 5.47292Z" fill="#014754"/>
</svg>
