<svg width="18" height="18" viewBox="0 0 18 18" fill="none" xmlns="http://www.w3.org/2000/svg">
<path d="M14.6668 4.4668C14.6668 4.07013 14.6668 3.8718 14.5889 3.72022C14.5212 3.58705 14.4131 3.4787 14.2801 3.41067C14.1285 3.33347 13.9302 3.33347 13.5335 3.33347H4.46683C4.07016 3.33347 3.87183 3.33347 3.72025 3.41067C3.58697 3.47858 3.47861 3.58694 3.4107 3.72022C3.3335 3.8718 3.3335 4.07013 3.3335 4.4668V4.98884C3.3335 5.16238 3.3335 5.2488 3.35333 5.33026C3.37067 5.40278 3.39936 5.4721 3.43833 5.53567C3.48154 5.60651 3.54316 5.66813 3.665 5.79067L7.25129 9.37626C7.37383 9.4988 7.43545 9.56042 7.47866 9.63126C7.51786 9.69548 7.54619 9.76395 7.56366 9.83667C7.5835 9.91742 7.5835 10.0031 7.5835 10.1724V13.5413C7.5835 14.1483 7.5835 14.4522 7.711 14.6349C7.76631 14.714 7.83719 14.7809 7.91929 14.8315C8.00138 14.8822 8.09296 14.9156 8.18841 14.9296C8.4087 14.9622 8.6807 14.8269 9.22329 14.5549L9.78995 14.2715C10.018 14.1582 10.1314 14.1015 10.2142 14.0165C10.2878 13.9415 10.3437 13.851 10.3779 13.7516C10.4168 13.6397 10.4168 13.5122 10.4168 13.2579V10.1781C10.4168 10.0045 10.4168 9.91813 10.4367 9.83667C10.454 9.76415 10.4827 9.69483 10.5217 9.63126C10.5642 9.56042 10.6258 9.49951 10.7462 9.37909L10.749 9.37626L14.3353 5.79067C14.4572 5.66813 14.5181 5.60651 14.562 5.53567C14.6012 5.47145 14.6295 5.40298 14.647 5.33026C14.6668 5.25022 14.6668 5.1638 14.6668 4.99451V4.4668Z" stroke="#032C33" stroke-width="1.3" stroke-linecap="round" stroke-linejoin="round"/>
</svg>
