<svg width="24" height="24" viewBox="0 0 24 24" fill="none" xmlns="http://www.w3.org/2000/svg">
<path fill-rule="evenodd" clip-rule="evenodd" d="M13.2321 2.28692C13.3826 2.33589 13.5138 2.43124 13.6069 2.55931C13.6999 2.68738 13.7501 2.84161 13.7501 2.99992V9.24992H19.0001C19.1385 9.24985 19.2742 9.28807 19.3922 9.36033C19.5101 9.43259 19.6059 9.53608 19.6687 9.65936C19.7315 9.78263 19.759 9.92089 19.7481 10.0588C19.7373 10.1968 19.6885 10.329 19.6071 10.4409L11.6071 21.4409C11.5141 21.5691 11.3829 21.6645 11.2323 21.7136C11.0817 21.7626 10.9194 21.7627 10.7688 21.7138C10.6181 21.665 10.4868 21.5697 10.3936 21.4416C10.3005 21.3136 10.2502 21.1593 10.2501 21.0009V14.7509H5.00011C4.86158 14.7511 4.7257 14.7129 4.60754 14.6406C4.48938 14.5683 4.39355 14.4647 4.33069 14.3413C4.26783 14.2178 4.24038 14.0794 4.2514 13.9413C4.26242 13.8032 4.31147 13.6708 4.39311 13.5589L12.3931 2.55892C12.4863 2.43077 12.6177 2.33542 12.7684 2.28656C12.9191 2.23769 13.0815 2.23782 13.2321 2.28692Z" fill="#032C33"/>
</svg>
