<svg width="14" height="14" viewBox="0 0 14 14" fill="none" xmlns="http://www.w3.org/2000/svg">
<path d="M6.99997 7.81615L4.14163 10.6745C4.03469 10.7814 3.89858 10.8349 3.7333 10.8349C3.56802 10.8349 3.43191 10.7814 3.32497 10.6745C3.21802 10.5675 3.16455 10.4314 3.16455 10.2661C3.16455 10.1009 3.21802 9.96476 3.32497 9.85781L6.1833 6.99948L3.32497 4.14115C3.21802 4.0342 3.16455 3.89809 3.16455 3.73281C3.16455 3.56753 3.21802 3.43142 3.32497 3.32448C3.43191 3.21753 3.56802 3.16406 3.7333 3.16406C3.89858 3.16406 4.03469 3.21753 4.14163 3.32448L6.99997 6.18281L9.8583 3.32448C9.96524 3.21753 10.1014 3.16406 10.2666 3.16406C10.4319 3.16406 10.568 3.21753 10.675 3.32448C10.7819 3.43142 10.8354 3.56753 10.8354 3.73281C10.8354 3.89809 10.7819 4.0342 10.675 4.14115L7.81663 6.99948L10.675 9.85781C10.7819 9.96476 10.8354 10.1009 10.8354 10.2661C10.8354 10.4314 10.7819 10.5675 10.675 10.6745C10.568 10.7814 10.4319 10.8349 10.2666 10.8349C10.1014 10.8349 9.96524 10.7814 9.8583 10.6745L6.99997 7.81615Z" fill="#576B6E"/>
</svg>
