<svg width="21" height="22" viewBox="0 0 21 22" fill="none" xmlns="http://www.w3.org/2000/svg">
<path d="M10.0363 3.59915C10.1593 3.47625 10.3261 3.40723 10.5 3.40723C10.6739 3.40723 10.8407 3.47625 10.9637 3.59915L14.0263 6.66165C14.1491 6.7847 14.2182 6.95149 14.2182 7.1254C14.2182 7.29931 14.1491 7.4661 14.0263 7.58915H11.1562V13.6879C11.1562 13.8619 11.0871 14.0289 10.964 14.1519C10.841 14.275 10.674 14.3441 10.5 14.3441C10.326 14.3441 10.159 14.275 10.036 14.1519C9.91289 14.0289 9.84375 13.8619 9.84375 13.6879V7.58915H6.97375C6.85086 7.4661 6.78183 7.29931 6.78183 7.1254C6.78183 6.95149 6.85086 6.7847 6.97375 6.66165L10.0363 3.59915ZM17.5 13.4691C17.674 13.4691 17.841 13.5383 17.964 13.6614C18.0871 13.7844 18.1562 13.9514 18.1562 14.1254V15.0004C18.1562 15.8706 17.8105 16.7052 17.1952 17.3206C16.5798 17.9359 15.7452 18.2816 14.875 18.2816H6.125C5.25476 18.2816 4.42016 17.9359 3.80481 17.3206C3.18945 16.7052 2.84375 15.8706 2.84375 15.0004V14.1289C2.84375 13.9549 2.91289 13.7879 3.03596 13.6649C3.15903 13.5418 3.32595 13.4726 3.5 13.4726C3.67405 13.4726 3.84097 13.5418 3.96404 13.6649C4.08711 13.7879 4.15625 13.9549 4.15625 14.1289V15.0004C4.15625 15.5225 4.36367 16.0233 4.73288 16.3925C5.1021 16.7617 5.60285 16.9691 6.125 16.9691H14.875C15.3971 16.9691 15.8979 16.7617 16.2671 16.3925C16.6363 16.0233 16.8438 15.5225 16.8438 15.0004V14.1254C16.8438 13.9514 16.9129 13.7844 17.036 13.6614C17.159 13.5383 17.326 13.4691 17.5 13.4691Z" fill="#3E7E58"/>
</svg>
