<svg width="18" height="18" viewBox="0 0 18 18" fill="none" xmlns="http://www.w3.org/2000/svg">
<path d="M16.2002 4.2H16.8002V3.9516L16.625 3.7752L16.2002 4.2ZM12.6002 0.6L13.025 0.1752L12.8486 0H12.6002V0.6ZM2.4002 6V1.8H1.2002V6H2.4002ZM15.6002 4.2V6H16.8002V4.2H15.6002ZM3.0002 1.2H12.6002V0H3.0002V1.2ZM12.1754 1.0248L15.7754 4.6248L16.625 3.7752L13.025 0.1752L12.1754 1.0248ZM2.4002 1.8C2.4002 1.64087 2.46341 1.48826 2.57593 1.37574C2.68845 1.26321 2.84107 1.2 3.0002 1.2V0C2.52281 0 2.06497 0.189642 1.7274 0.527208C1.38984 0.864773 1.2002 1.32261 1.2002 1.8H2.4002ZM1.2002 14.4V16.2H2.4002V14.4H1.2002ZM3.0002 18H15.0002V16.8H3.0002V18ZM16.8002 16.2V14.4H15.6002V16.2H16.8002ZM15.0002 18C15.4776 18 15.9354 17.8104 16.273 17.4728C16.6106 17.1352 16.8002 16.6774 16.8002 16.2H15.6002C15.6002 16.3591 15.537 16.5117 15.4245 16.6243C15.3119 16.7368 15.1593 16.8 15.0002 16.8V18ZM1.2002 16.2C1.2002 16.6774 1.38984 17.1352 1.7274 17.4728C2.06497 17.8104 2.52281 18 3.0002 18V16.8C2.84107 16.8 2.68845 16.7368 2.57593 16.6243C2.46341 16.5117 2.4002 16.3591 2.4002 16.2H1.2002Z" fill="#3E7E58"/>
<path fill-rule="evenodd" clip-rule="evenodd" d="M8.77625 11.5978C8.78325 11.7873 8.83049 11.9732 8.91493 12.1437C8.99937 12.3141 9.11914 12.4653 9.26654 12.5875C9.42549 12.7174 9.62071 12.8184 9.85221 12.8906C10.0837 12.9635 10.3547 13 10.6653 13C11.0786 13 11.4282 12.9367 11.7144 12.81C12.0037 12.6833 12.2238 12.507 12.3746 12.2809C12.5288 12.0461 12.6084 11.7715 12.6032 11.492C12.6032 11.2226 12.5482 10.9981 12.4382 10.8186C12.3263 10.6384 12.1682 10.4903 11.9797 10.3893C11.7637 10.2712 11.5308 10.1861 11.2889 10.1367L10.5296 9.96355C10.3505 9.93017 10.1814 9.85786 10.0344 9.7519C9.97883 9.70946 9.93409 9.65487 9.90374 9.59245C9.87339 9.53003 9.85826 9.46151 9.85954 9.39234C9.85954 9.20474 9.93454 9.05081 10.0845 8.93056C10.2378 8.8087 10.4468 8.74777 10.7118 8.74777C10.8862 8.74777 11.037 8.77503 11.1641 8.82954C11.2814 8.87554 11.3845 8.95051 11.4637 9.0472C11.539 9.13647 11.5895 9.24334 11.6104 9.35746H12.5274C12.512 9.11279 12.4278 8.87714 12.2841 8.67682C12.13 8.46055 11.9186 8.29001 11.6728 8.18377C11.3727 8.05372 11.0469 7.99127 10.7191 8.00098C10.3604 8.00098 10.0438 8.06111 9.76907 8.18136C9.49519 8.30082 9.2804 8.46958 9.12471 8.68764C8.96984 8.9065 8.8924 9.16265 8.8924 9.45607C8.8924 9.69819 8.94253 9.90823 9.04279 10.0862C9.14305 10.2642 9.28611 10.4113 9.47195 10.5275C9.65862 10.6422 9.8787 10.7276 10.1322 10.7837L10.8878 10.9569C11.1405 11.0154 11.3288 11.0927 11.4527 11.189C11.5136 11.2347 11.5624 11.2942 11.595 11.3625C11.6276 11.4307 11.6429 11.5057 11.6398 11.581C11.6425 11.705 11.6062 11.8268 11.5358 11.9297C11.4571 12.0353 11.3487 12.1159 11.2241 12.1618C11.0871 12.2179 10.9188 12.246 10.7191 12.246C10.5756 12.246 10.4452 12.23 10.3278 12.1979C10.219 12.1694 10.116 12.1226 10.0234 12.0596C9.94208 12.0077 9.87247 11.9399 9.81885 11.8605C9.76522 11.7811 9.72872 11.6917 9.7116 11.5978H8.77625ZM4.22054 8.09959H5.31239L3.7547 10.5131L5.28794 12.9086H4.17775L3.13847 11.207H3.09567L2.05273 12.9086H1L2.51612 10.4843L1.01467 8.09959H2.15299L3.17026 9.82886H3.21427L4.22054 8.09959ZM6.57176 12.0981H8.64665V12.9086H5.60462V8.09959H6.57176V12.0981ZM15.9081 8.09959H17L15.4423 10.5131L16.9755 12.9086H15.8654L14.8261 11.207H14.7833L13.7403 12.9086H12.6876L14.2037 10.4843L12.7023 8.09959H13.8406L14.8579 9.82886H14.9019L15.9081 8.09959Z" fill="#3E7E58"/>
</svg>
