<svg width="18" height="18" viewBox="0 0 18 18" fill="none" xmlns="http://www.w3.org/2000/svg">
<path d="M16.2002 4.2H16.8002V3.9516L16.625 3.7752L16.2002 4.2ZM12.6002 0.6L13.025 0.1752L12.8486 0H12.6002V0.6ZM2.4002 6V1.8H1.2002V6H2.4002ZM15.6002 4.2V6H16.8002V4.2H15.6002ZM3.0002 1.2H12.6002V0H3.0002V1.2ZM12.1754 1.0248L15.7754 4.6248L16.625 3.7752L13.025 0.1752L12.1754 1.0248ZM2.4002 1.8C2.4002 1.64087 2.46341 1.48826 2.57593 1.37574C2.68845 1.26321 2.84107 1.2 3.0002 1.2V0C2.52281 0 2.06497 0.189642 1.7274 0.527208C1.38984 0.864773 1.2002 1.32261 1.2002 1.8H2.4002ZM1.2002 13.5V16.2H2.4002V13.5H1.2002ZM3.0002 18H15.0002V16.8H3.0002V18ZM16.8002 16.2V13.5H15.6002V16.2H16.8002ZM15.0002 18C15.4776 18 15.9354 17.8104 16.273 17.4728C16.6106 17.1352 16.8002 16.6774 16.8002 16.2H15.6002C15.6002 16.3591 15.537 16.5117 15.4245 16.6243C15.3119 16.7368 15.1593 16.8 15.0002 16.8V18ZM1.2002 16.2C1.2002 16.6774 1.38984 17.1352 1.7274 17.4728C2.06497 17.8104 2.52281 18 3.0002 18V16.8C2.84107 16.8 2.68845 16.7368 2.57593 16.6243C2.46341 16.5117 2.4002 16.3591 2.4002 16.2H1.2002Z" fill="#3E7E58"/>
<path d="M17 7V12H15.9333L14.8667 9V12H13.8V7H14.8667L15.9333 10V7H17ZM11.8448 12H10.4224C10.1868 11.9996 9.96102 11.9117 9.79439 11.7556C9.62776 11.5995 9.5339 11.3878 9.53333 11.167V7.8335C9.53376 7.61265 9.62749 7.40095 9.79401 7.24474C9.96054 7.08853 10.1863 7.00053 10.4219 7H11.8443C12.0798 7.0004 12.3057 7.08827 12.4723 7.24439C12.6389 7.4005 12.7328 7.61215 12.7333 7.833V11.1665C12.7329 11.3873 12.6392 11.599 12.4727 11.7553C12.3061 11.9115 12.0804 11.9995 11.8448 12ZM10.6 11H11.6667V8H10.6V11ZM7.57813 12H5.26667V11H7.4V10H6.33333C6.05044 10 5.77913 9.89464 5.57909 9.70711C5.37905 9.51957 5.26667 9.26522 5.26667 9V7.833C5.26723 7.61224 5.36102 7.40067 5.52753 7.24456C5.69405 7.08846 5.91972 7.00053 6.1552 7H8.46667V8H6.33333V9H7.4C7.6829 9 7.95421 9.10536 8.15425 9.29289C8.35429 9.48043 8.46667 9.73478 8.46667 10V11.167C8.4661 11.3878 8.37231 11.5993 8.2058 11.7554C8.03929 11.9115 7.81361 11.9995 7.57813 12ZM3.31147 12H1.88907C1.65349 11.9996 1.42768 11.9117 1.26106 11.7556C1.09443 11.5995 1.00056 11.3878 1 11.167V10H2.06667V11H3.13333V7H4.2V11.167C4.19944 11.3878 4.10564 11.5993 3.93913 11.7554C3.77262 11.9115 3.54695 11.9995 3.31147 12Z" fill="#3E7E58"/>
</svg>
