<svg width="18" height="19" viewBox="0 0 18 19" fill="none" xmlns="http://www.w3.org/2000/svg">
<g clip-path="url(#clip0_30_25107)">
<path d="M3.0002 7.925V7.325H2.4002V7.925H3.0002ZM7.80019 7.925V7.325H7.20019V7.925H7.80019ZM7.80019 12.725H7.20019V13.325H7.80019V12.725ZM16.2002 4.325H16.8002V4.0766L16.625 3.9002L16.2002 4.325ZM12.6002 0.725L13.025 0.3002L12.8486 0.125H12.6002V0.725ZM3.0002 8.525H4.2002V7.325H3.0002V8.525ZM3.6002 13.325V10.325H2.4002V13.325H3.6002ZM3.6002 10.325V7.925H2.4002V10.325H3.6002ZM4.2002 9.725H3.0002V10.925H4.2002V9.725ZM4.8002 9.125C4.8002 9.28413 4.73698 9.43674 4.62446 9.54926C4.51194 9.66179 4.35932 9.725 4.2002 9.725V10.925C4.67758 10.925 5.13542 10.7354 5.47299 10.3978C5.81055 10.0602 6.0002 9.60239 6.0002 9.125H4.8002ZM4.2002 8.525C4.35932 8.525 4.51194 8.58821 4.62446 8.70074C4.73698 8.81326 4.8002 8.96587 4.8002 9.125H6.0002C6.0002 8.64761 5.81055 8.18977 5.47299 7.85221C5.13542 7.51464 4.67758 7.325 4.2002 7.325V8.525ZM7.20019 7.925V12.725H8.4002V7.925H7.20019ZM7.80019 13.325H9.0002V12.125H7.80019V13.325ZM10.8002 11.525V9.125H9.60019V11.525H10.8002ZM9.0002 7.325H7.80019V8.525H9.0002V7.325ZM10.8002 9.125C10.8002 8.64761 10.6106 8.18977 10.273 7.85221C9.93542 7.51464 9.47758 7.325 9.0002 7.325V8.525C9.15932 8.525 9.31194 8.58821 9.42446 8.70074C9.53698 8.81326 9.60019 8.96587 9.60019 9.125H10.8002ZM9.0002 13.325C9.47758 13.325 9.93542 13.1354 10.273 12.7978C10.6106 12.4602 10.8002 12.0024 10.8002 11.525H9.60019C9.60019 11.6841 9.53698 11.8367 9.42446 11.9493C9.31194 12.0618 9.15932 12.125 9.0002 12.125V13.325ZM12.0002 7.325V13.325H13.2002V7.325H12.0002ZM12.6002 8.525H15.6002V7.325H12.6002V8.525ZM12.6002 10.925H14.4002V9.725H12.6002V10.925ZM2.4002 6.125V1.925H1.2002V6.125H2.4002ZM15.6002 4.325V6.125H16.8002V4.325H15.6002ZM3.0002 1.325H12.6002V0.125H3.0002V1.325ZM12.1754 1.1498L15.7754 4.7498L16.625 3.9002L13.025 0.3002L12.1754 1.1498ZM2.4002 1.925C2.4002 1.76587 2.46341 1.61326 2.57593 1.50074C2.68845 1.38821 2.84107 1.325 3.0002 1.325V0.125C2.52281 0.125 2.06497 0.314642 1.7274 0.652208C1.38984 0.989773 1.2002 1.44761 1.2002 1.925H2.4002ZM1.2002 14.525V16.325H2.4002V14.525H1.2002ZM3.0002 18.125H15.0002V16.925H3.0002V18.125ZM16.8002 16.325V14.525H15.6002V16.325H16.8002ZM15.0002 18.125C15.4776 18.125 15.9354 17.9354 16.273 17.5978C16.6106 17.2602 16.8002 16.8024 16.8002 16.325H15.6002C15.6002 16.4841 15.537 16.6367 15.4245 16.7493C15.3119 16.8618 15.1593 16.925 15.0002 16.925V18.125ZM1.2002 16.325C1.2002 16.8024 1.38984 17.2602 1.7274 17.5978C2.06497 17.9354 2.52281 18.125 3.0002 18.125V16.925C2.84107 16.925 2.68845 16.8618 2.57593 16.7493C2.46341 16.6367 2.4002 16.4841 2.4002 16.325H1.2002Z" fill="#3E7E58"/>
</g>
<defs>
<clipPath id="clip0_30_25107">
<rect width="18" height="18" fill="white" transform="translate(0 0.125)"/>
</clipPath>
</defs>
</svg>
