<svg width="18" height="18" viewBox="0 0 18 18" fill="none" xmlns="http://www.w3.org/2000/svg">
<path d="M16.1992 4.2H16.7992V3.9516L16.624 3.7752L16.1992 4.2ZM12.5992 0.6L13.024 0.1752L12.8476 0H12.5992V0.6ZM7.79922 7.8V7.2H7.19922V7.8H7.79922ZM7.79922 10.2H7.19922V10.8H7.79922V10.2ZM10.1992 10.2H10.7992V9.6H10.1992V10.2ZM10.1992 12.6V13.2H10.7992V12.6H10.1992ZM12.5992 11.4H11.9992V11.6484L12.1744 11.8248L12.5992 11.4ZM13.7992 12.6L13.3744 13.0248L13.7992 13.4484L14.224 13.0248L13.7992 12.6ZM14.9992 11.4L15.424 11.8248L15.5992 11.6484V11.4H14.9992ZM2.99922 7.8V7.2H2.39922V7.8H2.99922ZM2.99922 12.6H2.39922V13.2H2.99922V12.6ZM2.39922 6V1.8H1.19922V6H2.39922ZM15.5992 4.2V6H16.7992V4.2H15.5992ZM2.99922 1.2H12.5992V0H2.99922V1.2ZM12.1744 1.0248L15.7744 4.6248L16.624 3.7752L13.024 0.1752L12.1744 1.0248ZM2.39922 1.8C2.39922 1.64087 2.46243 1.48826 2.57495 1.37574C2.68748 1.26321 2.84009 1.2 2.99922 1.2V0C2.52183 0 2.06399 0.189642 1.72643 0.527208C1.38886 0.864773 1.19922 1.32261 1.19922 1.8H2.39922ZM1.19922 14.4V16.2H2.39922V14.4H1.19922ZM2.99922 18H14.9992V16.8H2.99922V18ZM16.7992 16.2V14.4H15.5992V16.2H16.7992ZM14.9992 18C15.4766 18 15.9344 17.8104 16.272 17.4728C16.6096 17.1352 16.7992 16.6774 16.7992 16.2H15.5992C15.5992 16.3591 15.536 16.5117 15.4235 16.6243C15.311 16.7368 15.1583 16.8 14.9992 16.8V18ZM1.19922 16.2C1.19922 16.6774 1.38886 17.1352 1.72643 17.4728C2.06399 17.8104 2.52183 18 2.99922 18V16.8C2.84009 16.8 2.68748 16.7368 2.57495 16.6243C2.46243 16.5117 2.39922 16.3591 2.39922 16.2H1.19922ZM10.7992 7.2H7.79922V8.4H10.7992V7.2ZM7.19922 7.8V10.2H8.39922V7.8H7.19922ZM7.79922 10.8H10.1992V9.6H7.79922V10.8ZM9.59922 10.2V12.6H10.7992V10.2H9.59922ZM10.1992 12H7.19922V13.2H10.1992V12ZM11.9992 7.2V11.4H13.1992V7.2H11.9992ZM12.1744 11.8248L13.3744 13.0248L14.224 12.1752L13.024 10.9752L12.1744 11.8248ZM14.224 13.0248L15.424 11.8248L14.5744 10.9752L13.3744 12.1752L14.224 13.0248ZM15.5992 11.4V7.2H14.3992V11.4H15.5992ZM5.99922 7.2H2.99922V8.4H5.99922V7.2ZM2.39922 7.8V12.6H3.59922V7.8H2.39922ZM2.99922 13.2H5.99922V12H2.99922V13.2Z" fill="#3E7E58"/>
</svg>
