<svg width="49" height="50" viewBox="0 0 49 50" fill="none" xmlns="http://www.w3.org/2000/svg">
<rect y="0.5" width="49" height="49" rx="24.5" fill="#E9D1FF"/>
<path d="M25 33.9998V25.9998M25 25.9998C25 26.5518 25.448 27.0043 25.998 26.9513C29.406 26.6213 33.583 24.5153 33.971 18.0033M25 25.9998V21.8138C25 21.6973 25.02 21.5798 25.0625 21.4718C26.5585 17.5993 30.1415 17.0773 33 17.0098C33.5525 16.9963 34.003 17.4518 33.97 18.0033M16.999 16.0358C21.6635 16.3783 24.0975 19.0813 24.917 20.8148C24.9745 20.9358 25 21.0688 25 21.2028V24.9548C25 25.5248 24.52 25.9823 23.953 25.9248C16.6685 25.1918 16.055 20.3928 16.0045 16.9998C15.9965 16.4468 16.4485 15.9948 17 16.0358" stroke="#674288" stroke-width="2" stroke-linecap="round" stroke-linejoin="round"/>
</svg>
