<svg width="24" height="24" viewBox="0 0 24 24" fill="none" xmlns="http://www.w3.org/2000/svg">
<path d="M16.813 4.419C16.7206 4.28953 16.5986 4.18398 16.4572 4.11111C16.3158 4.03823 16.1591 4.00014 16 4H3C2.81636 4.00017 2.63632 4.05089 2.47961 4.14662C2.3229 4.24235 2.19557 4.37938 2.11159 4.54269C2.02762 4.706 1.99023 4.88928 2.00353 5.07243C2.01683 5.25558 2.08031 5.43154 2.187 5.581L6.771 12L2.186 18.419C2.07926 18.5685 2.01577 18.7446 2.00251 18.9278C1.98925 19.1111 2.02672 19.2944 2.11082 19.4578C2.19492 19.6211 2.32239 19.7581 2.47925 19.8538C2.6361 19.9494 2.81628 20 3 20H16C16.1591 19.9999 16.3158 19.9618 16.4572 19.8889C16.5986 19.816 16.7206 19.7105 16.813 19.581L21.813 12.581C21.934 12.4114 21.9991 12.2083 21.9991 12C21.9991 11.7917 21.934 11.5886 21.813 11.419L16.813 4.419ZM15.485 18H4.943L8.813 12.581C8.93403 12.4114 8.99909 12.2083 8.99909 12C8.99909 11.7917 8.93403 11.5886 8.813 11.419L4.943 6H15.485L19.771 12L15.485 18Z" fill="#03333C"/>
</svg>
