<svg width="17" height="17" viewBox="0 0 17 17" fill="none" xmlns="http://www.w3.org/2000/svg">
<path d="M8.46454 12.75C8.71246 12.75 8.92213 12.6643 9.09354 12.4929C9.26496 12.3214 9.35043 12.112 9.34996 11.8646C9.34949 11.6171 9.26402 11.4075 9.09354 11.2356C8.92307 11.0637 8.7134 10.9782 8.46454 10.9792C8.21568 10.9801 8.00625 11.0658 7.83625 11.2363C7.66625 11.4068 7.58054 11.6162 7.57913 11.8646C7.57771 12.113 7.66342 12.3226 7.83625 12.4936C8.00909 12.6645 8.21852 12.75 8.46454 12.75ZM8.49996 15.5833C7.5201 15.5833 6.59927 15.3973 5.73746 15.0252C4.87566 14.653 4.126 14.1485 3.4885 13.5114C2.851 12.8744 2.34643 12.1248 1.97479 11.2625C1.60315 10.4002 1.4171 9.47938 1.41663 8.49999C1.41615 7.5206 1.60221 6.59977 1.97479 5.73749C2.34738 4.87521 2.85195 4.12556 3.4885 3.48853C4.12506 2.8515 4.87471 2.34693 5.73746 1.97482C6.60021 1.60271 7.52104 1.41666 8.49996 1.41666C9.47888 1.41666 10.3997 1.60271 11.2625 1.97482C12.1252 2.34693 12.8749 2.8515 13.5114 3.48853C14.148 4.12556 14.6528 4.87521 15.0258 5.73749C15.3989 6.59977 15.5847 7.5206 15.5833 8.49999C15.5819 9.47938 15.3958 10.4002 15.0251 11.2625C14.6544 12.1248 14.1499 12.8744 13.5114 13.5114C12.873 14.1485 12.1233 14.6533 11.2625 15.0259C10.4016 15.3984 9.48077 15.5843 8.49996 15.5833ZM8.49996 14.1667C10.0819 14.1667 11.4218 13.6177 12.5198 12.5198C13.6177 11.4219 14.1666 10.0819 14.1666 8.49999C14.1666 6.91805 13.6177 5.57811 12.5198 4.4802C11.4218 3.38228 10.0819 2.83332 8.49996 2.83332C6.91802 2.83332 5.57809 3.38228 4.48017 4.4802C3.38225 5.57811 2.83329 6.91805 2.83329 8.49999C2.83329 10.0819 3.38225 11.4219 4.48017 12.5198C5.57809 13.6177 6.91802 14.1667 8.49996 14.1667ZM8.57079 5.45416C8.86593 5.45416 9.12282 5.5486 9.34146 5.73749C9.5601 5.92638 9.66918 6.16249 9.66871 6.44582C9.66871 6.70555 9.58914 6.93575 9.43 7.13645C9.27086 7.33714 9.09071 7.52603 8.88954 7.70311C8.61802 7.93923 8.37907 8.19895 8.17271 8.48228C7.96635 8.76561 7.86293 9.08436 7.86246 9.43853C7.86246 9.60381 7.92456 9.74264 8.04875 9.85503C8.17295 9.96742 8.31745 10.0234 8.48225 10.0229C8.65934 10.0229 8.80997 9.96388 8.93417 9.84582C9.05836 9.72777 9.13793 9.5802 9.17288 9.40311C9.2201 9.1552 9.32635 8.93396 9.49163 8.73941C9.6569 8.54485 9.83399 8.3588 10.0229 8.18124C10.2944 7.92152 10.5277 7.63818 10.7227 7.33124C10.9177 7.0243 11.015 6.68193 11.0145 6.30416C11.0145 5.70207 10.7697 5.20931 10.28 4.82586C9.79031 4.44242 9.22057 4.25046 8.57079 4.24999C8.12218 4.24999 7.69435 4.34443 7.28729 4.53332C6.88024 4.72221 6.57022 5.01145 6.35725 5.40103C6.27461 5.5427 6.24817 5.69334 6.27792 5.85295C6.30767 6.01256 6.38724 6.13345 6.51663 6.21561C6.6819 6.31006 6.85309 6.33957 7.03017 6.30416C7.20725 6.26874 7.35482 6.16839 7.47288 6.00312C7.60274 5.82603 7.76518 5.69027 7.96021 5.59582C8.15524 5.50138 8.35877 5.45416 8.57079 5.45416Z" fill="#014754"/>
</svg>
