<svg width="18" height="18" viewBox="0 0 18 18" fill="none" xmlns="http://www.w3.org/2000/svg">
<path fill-rule="evenodd" clip-rule="evenodd" d="M10.1895 1.5C10.5417 1.50009 10.8826 1.62408 11.1525 1.85025L11.25 1.9395L14.5605 5.25C14.8095 5.49902 14.963 5.82771 14.994 6.1785L15 6.3105V15C15.0001 15.3784 14.8572 15.7429 14.5999 16.0204C14.3426 16.2979 13.9899 16.4679 13.6125 16.4963L13.5 16.5H9V15H13.5V7.5H10.125C9.84534 7.49999 9.57571 7.39581 9.36869 7.20779C9.16166 7.01976 9.0321 6.76137 9.00525 6.483L9 6.375V3H4.5V9H3V3C2.99988 2.62157 3.1428 2.25708 3.40012 1.97959C3.65744 1.7021 4.01013 1.53213 4.3875 1.50375L4.5 1.5H10.1895ZM5.78025 10.8488L7.902 12.9697C8.0426 13.1104 8.12159 13.3011 8.12159 13.5C8.12159 13.6989 8.0426 13.8896 7.902 14.0303L5.78025 16.1512C5.71106 16.2229 5.62831 16.28 5.5368 16.3193C5.4453 16.3586 5.34689 16.3793 5.2473 16.3802C5.14772 16.3811 5.04896 16.3621 4.95678 16.3244C4.86461 16.2867 4.78087 16.231 4.71045 16.1605C4.64003 16.0901 4.58434 16.0064 4.54663 15.9142C4.50892 15.822 4.48995 15.7233 4.49081 15.6237C4.49168 15.5241 4.51237 15.4257 4.55167 15.3342C4.59098 15.2427 4.64812 15.1599 4.71975 15.0907L5.5605 14.25H2.25C2.05109 14.25 1.86032 14.171 1.71967 14.0303C1.57902 13.8897 1.5 13.6989 1.5 13.5C1.5 13.3011 1.57902 13.1103 1.71967 12.9697C1.86032 12.829 2.05109 12.75 2.25 12.75H5.5605L4.71975 11.9093C4.65007 11.8396 4.59478 11.7569 4.55705 11.6659C4.51932 11.5749 4.49988 11.4774 4.49985 11.3789C4.49978 11.1799 4.57874 10.9891 4.71938 10.8484C4.86001 10.7076 5.05078 10.6285 5.24973 10.6285C5.34825 10.6284 5.4458 10.6478 5.53683 10.6855C5.62785 10.7231 5.71057 10.7784 5.78025 10.848V10.8488ZM10.5 3.3105V6H13.1895L10.5 3.3105Z" fill="#032C33"/>
</svg>
