<svg width="23" height="24" viewBox="0 0 23 24" fill="none" xmlns="http://www.w3.org/2000/svg">
<path d="M21.0834 12C21.0834 13.2586 20.8355 14.5048 20.3539 15.6676C19.8722 16.8303 19.1663 17.8869 18.2764 18.7768C17.3864 19.6667 16.3299 20.3727 15.1672 20.8543C14.0044 21.3359 12.7581 21.5838 11.4996 21.5838C10.241 21.5838 8.99478 21.3359 7.83202 20.8543C6.66926 20.3727 5.61274 19.6667 4.72281 18.7768C3.83287 17.8869 3.12693 16.8303 2.6453 15.6676C2.16366 14.5048 1.91577 13.2586 1.91577 12C1.91577 9.45823 2.92549 7.02055 4.72281 5.22323C6.52012 3.42592 8.9578 2.4162 11.4996 2.4162C14.0414 2.4162 16.479 3.42592 18.2764 5.22323C20.0737 7.02055 21.0834 9.45823 21.0834 12Z" stroke="#576B6E" stroke-width="1.7"/>
<path d="M15.3335 12C15.3335 13.2583 15.2338 14.5051 15.0412 15.6676C14.8495 16.83 14.5668 17.8861 14.2103 18.7764C13.8548 19.6667 13.4321 20.372 12.9673 20.8541C12.5016 21.3351 12.0033 21.5834 11.5001 21.5834C10.997 21.5834 10.4987 21.3351 10.0339 20.8541C9.56813 20.372 9.14551 19.6657 8.78997 18.7764C8.43347 17.8861 8.15076 16.831 7.95813 15.6676C7.76158 14.455 7.66415 13.2284 7.6668 12C7.6668 10.7417 7.76551 9.49494 7.95813 8.33248C8.15076 7.17002 8.43347 6.11394 8.78997 5.22365C9.14551 4.33335 9.56813 3.62802 10.0329 3.14598C10.4987 2.66585 10.997 2.41669 11.5001 2.41669C12.0033 2.41669 12.5016 2.6649 12.9664 3.14598C13.4321 3.62802 13.8548 4.33431 14.2103 5.22365C14.5668 6.11394 14.8495 7.16906 15.0412 8.33248C15.2348 9.49494 15.3335 10.7417 15.3335 12Z" stroke="#576B6E" stroke-width="1.7"/>
<path d="M1.91675 12H21.0834" stroke="#576B6E" stroke-width="1.7" stroke-linecap="round"/>
</svg>
