<svg width="23" height="23" viewBox="0 0 23 23" fill="none" xmlns="http://www.w3.org/2000/svg">
<rect width="23" height="23" rx="11.5" fill="#008BA5"/>
<path d="M8.46668 7.5782C9.27394 6.78709 10.3608 6.34652 11.491 6.35223C12.6213 6.35794 13.7036 6.80946 14.5029 7.60868C15.3021 8.40791 15.7536 9.49025 15.7593 10.6205C15.765 11.7508 15.3245 12.8376 14.5334 13.6449L12.2659 15.9123C12.0628 16.1154 11.7873 16.2295 11.5 16.2295C11.2128 16.2295 10.9373 16.1154 10.7341 15.9123L8.46668 13.6449C7.66225 12.8403 7.21033 11.7492 7.21033 10.6115C7.21033 9.47383 7.66225 8.38272 8.46668 7.5782Z" stroke="white" stroke-width="1.00549" stroke-linejoin="round"/>
<path d="M11.4999 12.2367C12.3973 12.2367 13.1249 11.5092 13.1249 10.6117C13.1249 9.71423 12.3973 8.98669 11.4999 8.98669C10.6024 8.98669 9.87488 9.71423 9.87488 10.6117C9.87488 11.5092 10.6024 12.2367 11.4999 12.2367Z" stroke="white" stroke-width="1.00549" stroke-linecap="round" stroke-linejoin="round"/>
</svg>
