<svg width="17" height="17" viewBox="0 0 17 17" fill="none" xmlns="http://www.w3.org/2000/svg">
<path d="M2.83329 14.1666C2.44371 14.1666 2.11032 14.028 1.83313 13.7509C1.55593 13.4737 1.4171 13.14 1.41663 12.75V4.24998C1.41663 3.8604 1.55546 3.52701 1.83313 3.24981C2.11079 2.97262 2.44418 2.83379 2.83329 2.83331H14.1666C14.5562 2.83331 14.8898 2.97215 15.1675 3.24981C15.4452 3.52748 15.5838 3.86087 15.5833 4.24998V12.75C15.5833 13.1396 15.4447 13.4732 15.1675 13.7509C14.8903 14.0285 14.5567 14.1671 14.1666 14.1666H2.83329ZM14.1666 5.66665L8.87183 8.97811C8.81281 9.01352 8.75095 9.0402 8.68625 9.05815C8.62156 9.07609 8.55946 9.08483 8.49996 9.08435C8.44046 9.08388 8.3786 9.07515 8.31438 9.05815C8.25015 9.04115 8.18806 9.01447 8.12808 8.97811L2.83329 5.66665V12.75H14.1666V5.66665ZM8.49996 7.79165L14.1666 4.24998H2.83329L8.49996 7.79165ZM2.83329 5.84373V4.79894V4.81665V4.80815V5.84373Z" fill="#014754"/>
</svg>
