<svg width="13" height="14" viewBox="0 0 13 14" fill="none" xmlns="http://www.w3.org/2000/svg">
<path d="M5.14583 11.4535C6.34653 11.4535 7.36901 11.0315 8.21329 10.1876C9.05757 9.3437 9.47953 8.32121 9.47917 7.12016C9.47881 5.9191 9.05685 4.89662 8.21329 4.0527C7.36974 3.20878 6.34725 2.78682 5.14583 2.78682H4.86146C4.77118 2.78682 4.68542 2.79585 4.60417 2.81391C5.11875 3.40974 5.51832 4.07563 5.80288 4.81157C6.08743 5.54752 6.22953 6.31705 6.22917 7.12016C6.22881 7.92327 6.08653 8.69298 5.80233 9.42928C5.51814 10.1656 5.11875 10.8313 4.60417 11.4264C4.68542 11.4445 4.77118 11.4535 4.86146 11.4535H5.14583ZM5.14583 12.5368C4.66736 12.5368 4.20008 12.476 3.744 12.3543C3.28792 12.2326 2.85242 12.0497 2.4375 11.8056C3.27708 11.3181 3.93846 10.659 4.42163 9.82849C4.90479 8.99794 5.14619 8.09516 5.14583 7.12016C5.14547 6.14516 4.90389 5.24238 4.42108 4.41182C3.93828 3.58127 3.27708 2.92224 2.4375 2.43474C2.85278 2.19099 3.28846 2.00827 3.74454 1.88657C4.20063 1.76488 4.66772 1.70385 5.14583 1.70349C5.89514 1.70349 6.59931 1.84577 7.25833 2.13032C7.91736 2.41488 8.49063 2.80073 8.97813 3.28787C9.46563 3.77501 9.85165 4.34827 10.1362 5.00766C10.4208 5.66705 10.5629 6.37121 10.5625 7.12016C10.5621 7.8691 10.4199 8.57327 10.1357 9.23266C9.85147 9.89205 9.46563 10.4653 8.97813 10.9525C8.49063 11.4396 7.91736 11.8256 7.25833 12.1105C6.59931 12.3954 5.89514 12.5375 5.14583 12.5368Z" fill="#E4EDF0"/>
</svg>
