<svg width="12" height="13" viewBox="0 0 12 13" fill="none" xmlns="http://www.w3.org/2000/svg">
<path d="M6 9C5.73478 9 5.48043 8.89464 5.29289 8.70711C5.10536 8.51957 5 8.26522 5 8C5 7.445 5.445 7 6 7C6.26522 7 6.51957 7.10536 6.70711 7.29289C6.89464 7.48043 7 7.73478 7 8C7 8.26522 6.89464 8.51957 6.70711 8.70711C6.51957 8.89464 6.26522 9 6 9ZM9 10.5V5.5H3V10.5H9ZM9 4.5C9.26522 4.5 9.51957 4.60536 9.70711 4.79289C9.89464 4.98043 10 5.23478 10 5.5V10.5C10 10.7652 9.89464 11.0196 9.70711 11.2071C9.51957 11.3946 9.26522 11.5 9 11.5H3C2.73478 11.5 2.48043 11.3946 2.29289 11.2071C2.10536 11.0196 2 10.7652 2 10.5V5.5C2 4.945 2.445 4.5 3 4.5H3.5V3.5C3.5 2.83696 3.76339 2.20107 4.23223 1.73223C4.70107 1.26339 5.33696 1 6 1C6.3283 1 6.65339 1.06466 6.95671 1.1903C7.26002 1.31594 7.53562 1.50009 7.76777 1.73223C7.99991 1.96438 8.18406 2.23998 8.3097 2.54329C8.43534 2.84661 8.5 3.1717 8.5 3.5V4.5H9ZM6 2C5.60218 2 5.22064 2.15804 4.93934 2.43934C4.65804 2.72064 4.5 3.10218 4.5 3.5V4.5H7.5V3.5C7.5 3.10218 7.34196 2.72064 7.06066 2.43934C6.77936 2.15804 6.39782 2 6 2Z" fill="#032C33"/>
</svg>
