<svg width="12" height="13" viewBox="0 0 12 13" fill="none" xmlns="http://www.w3.org/2000/svg">
<path d="M10.855 4.85496C11.48 4.22996 11.195 3.49996 10.855 3.14496L9.35499 1.64496C8.72499 1.01996 8 1.30496 7.645 1.64496L6.795 2.49996H5.5C4.55 2.49996 3.99999 2.99996 3.72 3.57496L1.5 5.79496V7.79496L1.145 8.14496C0.519995 8.77496 0.804995 9.49996 1.145 9.85496L2.64499 11.355C2.91499 11.625 3.20499 11.725 3.48 11.725C3.835 11.725 4.16 11.55 4.355 11.355L5.705 9.99996H7.5C8.35 9.99996 8.78 9.46996 8.935 8.94996C9.5 8.79996 9.81 8.36996 9.935 7.94996C10.71 7.74996 11 7.01496 11 6.49996V4.99996H10.705L10.855 4.85496ZM10 6.49996C10 6.72496 9.90499 6.99996 9.5 6.99996H9V7.49996C9 7.72496 8.90499 7.99996 8.5 7.99996H8V8.49996C8 8.72496 7.905 8.99996 7.5 8.99996H5.295L3.65499 10.64C3.49999 10.785 3.41 10.7 3.355 10.645L1.86 9.15496C1.715 8.99996 1.8 8.90996 1.855 8.85496L2.49999 8.20496V6.20496L3.49999 5.20496V5.99996C3.49999 6.60496 3.9 7.49996 5 7.49996C6.1 7.49996 6.5 6.60496 6.5 5.99996H10V6.49996ZM10.145 4.14496L9.295 4.99996H5.5V5.99996C5.5 6.22496 5.405 6.49996 5 6.49996C4.595 6.49996 4.49999 6.22496 4.49999 5.99996V4.49996C4.49999 4.26996 4.585 3.49996 5.5 3.49996H7.205L8.345 2.35996C8.5 2.21496 8.59 2.29996 8.645 2.35496L10.14 3.84496C10.285 3.99996 10.2 4.08996 10.145 4.14496Z" fill="#032C33"/>
</svg>
