<svg width="17" height="17" viewBox="0 0 17 17" fill="none" xmlns="http://www.w3.org/2000/svg">
<path d="M13.1324 6.37576L6.28991 2.45159C5.91965 2.23779 5.4994 2.12579 5.07185 2.12696C4.6443 2.12814 4.22467 2.24245 3.8556 2.45828C3.48652 2.67411 3.18114 2.98378 2.97048 3.35584C2.75981 3.72789 2.65137 4.14907 2.65616 4.57659V12.4533C2.65616 13.0957 2.91138 13.7119 3.36569 14.1662C3.82 14.6205 4.43617 14.8758 5.07866 14.8758C5.50397 14.875 5.92164 14.7627 6.28991 14.5499L13.1324 10.6258C13.5001 10.413 13.8053 10.1072 14.0175 9.73924C14.2297 9.37123 14.3414 8.9539 14.3414 8.52909C14.3414 8.10429 14.2297 7.68696 14.0175 7.31895C13.8053 6.95095 13.5001 6.64522 13.1324 6.43243V6.37576ZM12.4241 9.34368L5.58157 13.3245C5.42821 13.4114 5.25494 13.4571 5.07866 13.4571C4.90238 13.4571 4.72911 13.4114 4.57574 13.3245C4.42281 13.2362 4.29582 13.1092 4.20754 12.9563C4.11926 12.8033 4.07279 12.6299 4.07282 12.4533V4.54826C4.07279 4.37167 4.11926 4.19819 4.20754 4.04525C4.29582 3.89231 4.42281 3.76531 4.57574 3.67701C4.72963 3.59114 4.90245 3.54489 5.07866 3.54243C5.2547 3.54604 5.42725 3.59222 5.58157 3.67701L12.4241 7.62951C12.5771 7.71777 12.7041 7.84475 12.7924 7.99769C12.8808 8.15064 12.9273 8.32414 12.9273 8.50076C12.9273 8.67738 12.8808 8.85089 12.7924 9.00383C12.7041 9.15677 12.5771 9.28375 12.4241 9.37201V9.34368Z" fill="#014754"/>
</svg>
