<svg width="13" height="14" viewBox="0 0 13 14" fill="none" xmlns="http://www.w3.org/2000/svg">
<path d="M5.95833 7.54165H3.25C3.09652 7.54165 2.96797 7.48965 2.86433 7.38565C2.76069 7.28165 2.70869 7.15309 2.70833 6.99998C2.70797 6.84687 2.75997 6.71831 2.86433 6.61432C2.96869 6.51031 3.09725 6.45831 3.25 6.45831H5.95833V3.74998C5.95833 3.59651 6.01033 3.46795 6.11433 3.36431C6.21833 3.26068 6.34689 3.20868 6.5 3.20831C6.65311 3.20795 6.78184 3.25995 6.88621 3.36431C6.99057 3.46868 7.04239 3.59723 7.04166 3.74998V6.45831H9.75C9.90347 6.45831 10.0322 6.51031 10.1362 6.61432C10.2402 6.71831 10.292 6.84687 10.2917 6.99998C10.2913 7.15309 10.2393 7.28183 10.1357 7.38619C10.032 7.49055 9.90347 7.54237 9.75 7.54165H7.04166V10.25C7.04166 10.4035 6.98966 10.5322 6.88566 10.6362C6.78166 10.7402 6.65311 10.792 6.5 10.7916C6.34689 10.7913 6.21833 10.7393 6.11433 10.6356C6.01033 10.532 5.95833 10.4035 5.95833 10.25V7.54165Z" fill="#014754"/>
</svg>
