<svg width="49" height="50" viewBox="0 0 49 50" fill="none" xmlns="http://www.w3.org/2000/svg">
<rect y="0.5" width="49" height="49" rx="24.5" fill="#E5F9C0"/>
<path d="M19.0001 19.9999C19.0003 19.1795 19.1689 18.3678 19.4953 17.615C19.8217 16.8623 20.299 16.1845 20.8977 15.6235C21.4965 15.0625 22.2039 14.6303 22.9763 14.3536C23.7487 14.0768 24.5696 13.9614 25.3884 14.0145C26.2071 14.0676 27.0063 14.2881 27.7365 14.6623C28.4666 15.0365 29.1123 15.5564 29.6336 16.19C30.1548 16.8236 30.5406 17.5574 30.767 18.346C30.9935 19.1346 31.0558 19.9613 30.9501 20.7749C32.1046 21.4267 33.0108 22.4425 33.5271 23.6637C34.0433 24.8849 34.1405 26.2427 33.8035 27.525C33.4665 28.8073 32.7143 29.9418 31.6644 30.7514C30.6144 31.561 29.3259 32 28.0001 31.9999H26.0001V34.9999H24.0001V31.9999H21.5001C20.2463 32.0005 19.03 31.5727 18.0526 30.7874C17.0752 30.0021 16.3955 28.9064 16.1261 27.6819C15.8566 26.4575 16.0136 25.1777 16.5711 24.0546C17.1285 22.9316 18.0529 22.0327 19.1911 21.5069C19.0638 21.0147 18.9996 20.5083 19.0001 19.9999ZM20.0101 23.3319C19.2914 23.6717 18.7097 24.2458 18.3606 24.96C18.0115 25.6742 17.9158 26.4859 18.0892 27.2616C18.2625 28.0374 18.6946 28.7312 19.3145 29.2288C19.9344 29.7264 20.7051 29.9984 21.5001 29.9999H28.0001C28.9333 30.0009 29.8376 29.6755 30.5562 29.0801C31.2749 28.4847 31.7627 27.6567 31.9353 26.7395C32.1078 25.8224 31.9543 24.8737 31.5011 24.0578C31.048 23.242 30.3239 22.6102 29.4541 22.2719L28.6131 21.9439C28.7901 21.3039 29.0001 20.6719 29.0001 19.9999C29.0001 19.3181 28.8258 18.6476 28.4938 18.0521C28.1617 17.4566 27.683 16.9558 27.103 16.5973C26.523 16.2389 25.861 16.0346 25.1799 16.004C24.4987 15.9733 23.8211 16.1173 23.2112 16.4222C22.6014 16.7271 22.0796 17.1829 21.6954 17.7462C21.3113 18.3095 21.0775 18.9616 21.0162 19.6407C20.955 20.3198 21.0684 21.0032 21.3456 21.6262C21.6228 22.2491 22.0546 22.7908 22.6001 23.1999L21.4001 24.7999C20.857 24.3927 20.387 23.8964 20.0101 23.3319Z" fill="#607637"/>
</svg>
