<svg width="18" height="19" viewBox="0 0 18 19" fill="none" xmlns="http://www.w3.org/2000/svg">
<g clip-path="url(#clip0_30_25862)">
<path d="M7.8002 7.925V7.325H7.2002V7.925H7.8002ZM12.6002 12.725H12.0002V13.325H12.6002V12.725ZM15.0002 12.725V13.325H15.6002V12.725H15.0002ZM16.2002 4.325H16.8002V4.0766L16.625 3.9002L16.2002 4.325ZM12.6002 0.725L13.025 0.3002L12.8486 0.125H12.6002V0.725ZM5.4002 7.925H6.0002V7.325H5.4002V7.925ZM5.4002 12.725V13.325H6.0002V12.725H5.4002ZM3.0002 12.725H2.4002V13.325H3.0002V12.725ZM7.8002 8.525H9.0002V7.325H7.8002V8.525ZM8.4002 13.325V10.325H7.2002V13.325H8.4002ZM8.4002 10.325V7.925H7.2002V10.325H8.4002ZM9.0002 9.725H7.8002V10.925H9.0002V9.725ZM9.6002 9.125C9.6002 9.28413 9.53698 9.43674 9.42446 9.54926C9.31194 9.66179 9.15933 9.725 9.0002 9.725V10.925C9.47758 10.925 9.93542 10.7354 10.273 10.3978C10.6106 10.0602 10.8002 9.60239 10.8002 9.125H9.6002ZM9.0002 8.525C9.15933 8.525 9.31194 8.58821 9.42446 8.70074C9.53698 8.81326 9.6002 8.96587 9.6002 9.125H10.8002C10.8002 8.64761 10.6106 8.18977 10.273 7.85221C9.93542 7.51464 9.47758 7.325 9.0002 7.325V8.525ZM12.0002 7.325V12.725H13.2002V7.325H12.0002ZM12.6002 13.325H15.0002V12.125H12.6002V13.325ZM15.6002 12.725V10.325H14.4002V12.725H15.6002ZM12.6002 8.525H15.6002V7.325H12.6002V8.525ZM2.4002 6.125V1.925H1.2002V6.125H2.4002ZM15.6002 4.325V6.125H16.8002V4.325H15.6002ZM3.0002 1.325H12.6002V0.125H3.0002V1.325ZM12.1754 1.1498L15.7754 4.7498L16.625 3.9002L13.025 0.3002L12.1754 1.1498ZM2.4002 1.925C2.4002 1.76587 2.46341 1.61326 2.57593 1.50074C2.68845 1.38821 2.84107 1.325 3.0002 1.325V0.125C2.52281 0.125 2.06497 0.314642 1.7274 0.652208C1.38984 0.989773 1.2002 1.44761 1.2002 1.925H2.4002ZM1.2002 14.525V16.325H2.4002V14.525H1.2002ZM3.0002 18.125H15.0002V16.925H3.0002V18.125ZM16.8002 16.325V14.525H15.6002V16.325H16.8002ZM15.0002 18.125C15.4776 18.125 15.9354 17.9354 16.273 17.5978C16.6106 17.2602 16.8002 16.8024 16.8002 16.325H15.6002C15.6002 16.4841 15.537 16.6367 15.4245 16.7493C15.3119 16.8618 15.1593 16.925 15.0002 16.925V18.125ZM1.2002 16.325C1.2002 16.8024 1.38984 17.2602 1.7274 17.5978C2.06497 17.9354 2.52281 18.125 3.0002 18.125V16.925C2.84107 16.925 2.68845 16.8618 2.57593 16.7493C2.46341 16.6367 2.4002 16.4841 2.4002 16.325H1.2002ZM2.4002 8.525H5.4002V7.325H2.4002V8.525ZM4.8002 7.925V12.725H6.0002V7.925H4.8002ZM5.4002 12.125H3.0002V13.325H5.4002V12.125ZM3.6002 12.725V10.925H2.4002V12.725H3.6002Z" fill="#6E5691"/>
</g>
<defs>
<clipPath id="clip0_30_25862">
<rect width="18" height="18" fill="white" transform="translate(0 0.125)"/>
</clipPath>
</defs>
</svg>
