<svg width="18" height="18" viewBox="0 0 18 18" fill="none" xmlns="http://www.w3.org/2000/svg">
<path d="M3.0002 12.6H2.4002V13.2H3.0002V12.6ZM5.4002 12.6V13.2H6.0002V12.6H5.4002ZM16.2002 4.2H16.8002V3.9516L16.625 3.7752L16.2002 4.2ZM12.6002 0.6L13.025 0.1752L12.8486 0H12.6002V0.6ZM2.4002 7.2V12.6H3.6002V7.2H2.4002ZM3.0002 13.2H5.4002V12H3.0002V13.2ZM6.0002 12.6V10.2H4.8002V12.6H6.0002ZM3.6002 8.4H6.0002V7.2H3.6002V8.4ZM2.4002 6V1.8H1.2002V6H2.4002ZM15.6002 4.2V6H16.8002V4.2H15.6002ZM3.0002 1.2H12.6002V0H3.0002V1.2ZM12.1754 1.0248L15.7754 4.6248L16.625 3.7752L13.025 0.1752L12.1754 1.0248ZM2.4002 1.8C2.4002 1.64087 2.46341 1.48826 2.57593 1.37574C2.68845 1.26321 2.84107 1.2 3.0002 1.2V0C2.52281 0 2.06497 0.189642 1.7274 0.527208C1.38984 0.864773 1.2002 1.32261 1.2002 1.8H2.4002ZM1.2002 14.4V16.2H2.4002V14.4H1.2002ZM3.0002 18H15.0002V16.8H3.0002V18ZM16.8002 16.2V14.4H15.6002V16.2H16.8002ZM15.0002 18C15.4776 18 15.9354 17.8104 16.273 17.4728C16.6106 17.1352 16.8002 16.6774 16.8002 16.2H15.6002C15.6002 16.3591 15.537 16.5117 15.4245 16.6243C15.3119 16.7368 15.1593 16.8 15.0002 16.8V18ZM1.2002 16.2C1.2002 16.6774 1.38984 17.1352 1.7274 17.4728C2.06497 17.8104 2.52281 18 3.0002 18V16.8C2.84107 16.8 2.68845 16.7368 2.57593 16.6243C2.46341 16.5117 2.4002 16.3591 2.4002 16.2H1.2002ZM7.2002 8.4H10.8002V7.2H7.2002V8.4ZM7.2002 13.2H10.8002V12H7.2002V13.2ZM8.4002 7.8V12.6H9.6002V7.8H8.4002ZM12.6002 8.4H15.6002V7.2H12.6002V8.4ZM12.0002 7.2V13.2H13.2002V7.2H12.0002ZM12.6002 10.8H14.4002V9.6H12.6002V10.8Z" fill="#6E5691"/>
</svg>
