<svg width="18" height="18" viewBox="0 0 18 18" fill="none" xmlns="http://www.w3.org/2000/svg">
<path d="M3.0002 7.8V7.2H2.4002V7.8H3.0002ZM12.6002 12.6H12.0002V13.2H12.6002V12.6ZM15.0002 12.6V13.2H15.6002V12.6H15.0002ZM16.2002 4.2H16.8002V3.9516L16.625 3.7752L16.2002 4.2ZM12.6002 0.6L13.025 0.1752L12.8486 0H12.6002V0.6ZM7.8002 7.8L8.3366 7.5312L7.2002 7.8H7.8002ZM7.2002 12.6V13.2H8.4002V12.6H7.2002ZM10.2002 12.6L9.6638 12.8688C9.72433 12.9896 9.82387 13.0864 9.94628 13.1436C10.0687 13.2008 10.2068 13.2149 10.3383 13.1838C10.4698 13.1527 10.5869 13.0782 10.6708 12.9722C10.7546 12.8663 10.8002 12.7351 10.8002 12.6H10.2002ZM10.8002 7.8V7.2H9.6002V7.8H10.8002ZM3.0002 8.4H4.2002V7.2H3.0002V8.4ZM3.6002 13.2V10.2H2.4002V13.2H3.6002ZM3.6002 10.2V7.8H2.4002V10.2H3.6002ZM4.2002 9.6H3.0002V10.8H4.2002V9.6ZM4.8002 9C4.8002 9.15913 4.73698 9.31174 4.62446 9.42426C4.51194 9.53679 4.35933 9.6 4.2002 9.6V10.8C4.67759 10.8 5.13542 10.6104 5.47299 10.2728C5.81055 9.93523 6.0002 9.47739 6.0002 9H4.8002ZM4.2002 8.4C4.35933 8.4 4.51194 8.46321 4.62446 8.57574C4.73698 8.68826 4.8002 8.84087 4.8002 9H6.0002C6.0002 8.52261 5.81055 8.06477 5.47299 7.72721C5.13542 7.38964 4.67759 7.2 4.2002 7.2V8.4ZM12.0002 7.2V12.6H13.2002V7.2H12.0002ZM12.6002 13.2H15.0002V12H12.6002V13.2ZM15.6002 12.6V10.2H14.4002V12.6H15.6002ZM12.6002 8.4H15.6002V7.2H12.6002V8.4ZM2.4002 6V1.8H1.2002V6H2.4002ZM15.6002 4.2V6H16.8002V4.2H15.6002ZM3.0002 1.2H12.6002V0H3.0002V1.2ZM12.1754 1.0248L15.7754 4.6248L16.625 3.7752L13.025 0.1752L12.1754 1.0248ZM2.4002 1.8C2.4002 1.64087 2.46341 1.48826 2.57593 1.37574C2.68845 1.26321 2.84107 1.2 3.0002 1.2V0C2.52281 0 2.06497 0.189642 1.7274 0.527208C1.38984 0.864773 1.2002 1.32261 1.2002 1.8H2.4002ZM1.2002 14.4V16.2H2.4002V14.4H1.2002ZM3.0002 18H15.0002V16.8H3.0002V18ZM16.8002 16.2V14.4H15.6002V16.2H16.8002ZM15.0002 18C15.4776 18 15.9354 17.8104 16.273 17.4728C16.6106 17.1352 16.8002 16.6774 16.8002 16.2H15.6002C15.6002 16.3591 15.537 16.5117 15.4245 16.6243C15.3119 16.7368 15.1593 16.8 15.0002 16.8V18ZM1.2002 16.2C1.2002 16.6774 1.38984 17.1352 1.7274 17.4728C2.06497 17.8104 2.52281 18 3.0002 18V16.8C2.84107 16.8 2.68845 16.7368 2.57593 16.6243C2.46341 16.5117 2.4002 16.3591 2.4002 16.2H1.2002ZM7.2002 7.8V12.6H8.4002V7.8H7.2002ZM7.2638 8.0688L9.6638 12.8688L10.7366 12.3312L8.3366 7.5312L7.2638 8.0688ZM9.6002 7.8V12.6H10.8002V7.8H9.6002Z" fill="#6E5691"/>
</svg>
