<svg width="21" height="22" viewBox="0 0 21 22" fill="none" xmlns="http://www.w3.org/2000/svg">
<path fill-rule="evenodd" clip-rule="evenodd" d="M5.5 4.625H15.5C16.0304 4.625 16.5391 4.83571 16.9142 5.21079C17.2893 5.58586 17.5 6.09457 17.5 6.625V14.625C17.5 15.1554 17.2893 15.6641 16.9142 16.0392C16.5391 16.4143 16.0304 16.625 15.5 16.625H5.5C4.96957 16.625 4.46086 16.4143 4.08579 16.0392C3.71071 15.6641 3.5 15.1554 3.5 14.625V6.625C3.5 6.09457 3.71071 5.58586 4.08579 5.21079C4.46086 4.83571 4.96957 4.625 5.5 4.625Z" stroke="#6E5691" stroke-width="1.2" stroke-linecap="round" stroke-linejoin="round"/>
<path d="M5.5 11.625H10.5M5.5 13.625H10.5M13.5 6.625H14.5C14.7652 6.625 15.0196 6.73036 15.2071 6.91789C15.3946 7.10543 15.5 7.35978 15.5 7.625V8.625C15.5 8.89022 15.3946 9.14457 15.2071 9.33211C15.0196 9.51964 14.7652 9.625 14.5 9.625H13.5C13.2348 9.625 12.9804 9.51964 12.7929 9.33211C12.6054 9.14457 12.5 8.89022 12.5 8.625V7.625C12.5 7.35978 12.6054 7.10543 12.7929 6.91789C12.9804 6.73036 13.2348 6.625 13.5 6.625Z" stroke="#6E5691" stroke-width="1.2" stroke-linecap="round" stroke-linejoin="round"/>
</svg>
