<svg width="16" height="16" viewBox="0 0 16 16" fill="none" xmlns="http://www.w3.org/2000/svg">
<path d="M7.99984 13.3327C6.51095 13.3327 5.24984 12.816 4.2165 11.7827C3.18317 10.7494 2.6665 9.48824 2.6665 7.99935C2.6665 6.51046 3.18317 5.24935 4.2165 4.21602C5.24984 3.18268 6.51095 2.66602 7.99984 2.66602C8.7665 2.66602 9.49984 2.82424 10.1998 3.14068C10.8998 3.45713 11.4998 3.91002 11.9998 4.49935V3.33268C11.9998 3.1438 12.0638 2.98557 12.1918 2.85802C12.3198 2.73046 12.4781 2.66646 12.6665 2.66602C12.8549 2.66557 13.0134 2.72957 13.1418 2.85802C13.2703 2.98646 13.3341 3.14468 13.3332 3.33268V6.66602C13.3332 6.85491 13.2692 7.01335 13.1412 7.14135C13.0132 7.26935 12.8549 7.33313 12.6665 7.33268H9.33317C9.14428 7.33268 8.98606 7.26868 8.8585 7.14068C8.73095 7.01268 8.66695 6.85446 8.6665 6.66602C8.66606 6.47757 8.73006 6.31935 8.8585 6.19135C8.98695 6.06335 9.14517 5.99935 9.33317 5.99935H11.4665C11.1109 5.37713 10.6249 4.88824 10.0085 4.53268C9.39206 4.17713 8.7225 3.99935 7.99984 3.99935C6.88873 3.99935 5.94428 4.38824 5.1665 5.16602C4.38873 5.9438 3.99984 6.88824 3.99984 7.99935C3.99984 9.11046 4.38873 10.0549 5.1665 10.8327C5.94428 11.6105 6.88873 11.9994 7.99984 11.9994C8.75539 11.9994 9.44717 11.8078 10.0752 11.4247C10.7032 11.0416 11.1892 10.5276 11.5332 9.88268C11.6221 9.72713 11.7472 9.61891 11.9085 9.55802C12.0698 9.49713 12.2336 9.49424 12.3998 9.54935C12.5776 9.60491 12.7054 9.72157 12.7832 9.89935C12.8609 10.0771 12.8554 10.2438 12.7665 10.3994C12.3109 11.2882 11.6609 11.9994 10.8165 12.5327C9.97206 13.066 9.03317 13.3327 7.99984 13.3327Z" fill="#008BA5"/>
</svg>
