<svg width="23" height="23" viewBox="0 0 23 23" fill="none" xmlns="http://www.w3.org/2000/svg">
<rect width="23" height="23" rx="11.5" fill="#D03B3D"/>
<g clip-path="url(#clip0_741_12895)">
<path fill-rule="evenodd" clip-rule="evenodd" d="M11.0325 6.01992C11.9817 5.93891 12.9357 6.10586 13.8011 6.50441C14.6664 6.90297 15.4133 7.51945 15.9688 8.29348V7.20311C15.9688 7.06636 16.0231 6.9352 16.1198 6.83851C16.2165 6.74181 16.3476 6.68748 16.4844 6.68748C16.6211 6.68748 16.7523 6.74181 16.849 6.83851C16.9457 6.9352 17 7.06636 17 7.20311V10.125H14.0781C13.9414 10.125 13.8102 10.0707 13.7135 9.97396C13.6168 9.87726 13.5625 9.74611 13.5625 9.60936C13.5625 9.47261 13.6168 9.34145 13.7135 9.24476C13.8102 9.14806 13.9414 9.09373 14.0781 9.09373H15.2654C14.7953 8.35804 14.1199 7.7762 13.3227 7.42008C12.5255 7.06395 11.6415 6.94915 10.7798 7.08985C9.91815 7.23055 9.11655 7.62059 8.47407 8.21179C7.83158 8.80299 7.37636 9.56945 7.16463 10.4165C7.14901 10.483 7.12032 10.5458 7.08022 10.6011C7.04013 10.6565 6.98943 10.7033 6.93108 10.7389C6.87272 10.7745 6.80788 10.7981 6.74031 10.8084C6.67275 10.8187 6.60381 10.8155 6.5375 10.7989C6.4712 10.7823 6.40886 10.7527 6.3541 10.7118C6.29934 10.6709 6.25326 10.6195 6.21853 10.5606C6.18381 10.5018 6.16113 10.4366 6.15182 10.3689C6.14251 10.3012 6.14676 10.2323 6.16431 10.1662C6.44244 9.05415 7.06109 8.05676 7.93379 7.31348C8.8065 6.57021 9.88964 6.11819 11.0318 6.02061L11.0325 6.01992ZM8.695 16.2307C9.43199 16.6675 10.2608 16.9261 11.1155 16.9859C11.9701 17.0457 12.8269 16.905 13.6175 16.5751C14.4082 16.2451 15.1108 15.735 15.6694 15.0855C16.228 14.4359 16.6271 13.6649 16.835 12.8337C16.866 12.7019 16.8438 12.5631 16.7733 12.4475C16.7027 12.3318 16.5896 12.2486 16.4582 12.2157C16.3268 12.1828 16.1877 12.203 16.071 12.2718C15.9544 12.3406 15.8695 12.4526 15.8347 12.5835C15.6228 13.4303 15.1676 14.1966 14.5252 14.7877C13.8827 15.3787 13.0813 15.7686 12.2197 15.9093C11.3582 16.05 10.4743 15.9353 9.67724 15.5793C8.88016 15.2233 8.20481 14.6417 7.73456 13.9062H8.92188C9.05863 13.9062 9.18978 13.8519 9.28648 13.7552C9.38318 13.6585 9.4375 13.5274 9.4375 13.3906C9.4375 13.2539 9.38318 13.1227 9.28648 13.026C9.18978 12.9293 9.05863 12.875 8.92188 12.875H6V15.7969C6 15.9336 6.05432 16.0648 6.15102 16.1615C6.24772 16.2582 6.37887 16.3125 6.51562 16.3125C6.65238 16.3125 6.78353 16.2582 6.88023 16.1615C6.97693 16.0648 7.03125 15.9336 7.03125 15.7969V14.7065C7.47454 15.3241 8.04104 15.843 8.695 16.2307Z" fill="white"/>
</g>
<defs>
<clipPath id="clip0_741_12895">
<rect width="11" height="11" fill="white" transform="translate(6 6)"/>
</clipPath>
</defs>
</svg>
