<svg width="18" height="19" viewBox="0 0 18 19" fill="none" xmlns="http://www.w3.org/2000/svg">
<path d="M12.1875 16.3125V12.7388C12.1873 12.582 12.1562 12.4269 12.096 12.2822C12.0358 12.1375 11.9477 12.0061 11.8366 11.8954C11.7256 11.7848 11.5939 11.6972 11.4489 11.6375C11.304 11.5779 11.1487 11.5474 10.992 11.5478H7.008C6.85127 11.5474 6.696 11.5779 6.55108 11.6375C6.40615 11.6972 6.2744 11.7848 6.16337 11.8954C6.05233 12.0061 5.96419 12.1375 5.90399 12.2822C5.84379 12.4269 5.8127 12.582 5.8125 12.7388V16.3125M12.1875 3.02626V4.79776C12.1873 4.95449 12.1562 5.10964 12.096 5.25434C12.0358 5.39904 11.9477 5.53046 11.8366 5.64107C11.7256 5.75169 11.5939 5.83933 11.4489 5.89899C11.304 5.95865 11.1487 5.98915 10.992 5.98876H7.008C6.85127 5.98915 6.696 5.95865 6.55108 5.89899C6.40615 5.83933 6.2744 5.75169 6.16337 5.64107C6.05233 5.53046 5.96419 5.39904 5.90399 5.25434C5.84379 5.10964 5.8127 4.95449 5.8125 4.79776V2.81251M12.1875 3.02626C11.8765 2.8854 11.5389 2.81252 11.1975 2.81251H5.8125M12.1875 3.02626C12.4455 3.14326 12.6833 3.30676 12.888 3.51001L14.6745 5.29126C14.8963 5.512 15.0724 5.77436 15.1926 6.0633C15.3128 6.35224 15.3748 6.66206 15.375 6.97501V13.929C15.3748 14.2425 15.3128 14.5529 15.1925 14.8425C15.0722 15.132 14.8961 15.395 14.6741 15.6163C14.4521 15.8377 14.1886 16.0132 13.8987 16.1326C13.6088 16.2521 13.2983 16.3132 12.9847 16.3125H5.016C4.70248 16.3133 4.39188 16.2523 4.10198 16.1329C3.81207 16.0135 3.54854 15.8382 3.32647 15.6169C3.10439 15.3956 2.92813 15.1326 2.80777 14.8432C2.6874 14.5537 2.62529 14.2433 2.625 13.9298V5.19451C2.62539 4.88105 2.68757 4.57075 2.80798 4.28134C2.92839 3.99193 3.10467 3.7291 3.32673 3.50787C3.5488 3.28664 3.81229 3.11136 4.10215 2.99204C4.39201 2.87273 4.70255 2.81172 5.016 2.81251H5.8125" stroke="#032C33" stroke-width="1.5" stroke-linecap="round" stroke-linejoin="round"/>
</svg>
