<svg width="19" height="19" viewBox="0 0 19 19" fill="none" xmlns="http://www.w3.org/2000/svg">
<path d="M12.3128 12.3128C12.8318 11.7938 13.2436 11.1776 13.5245 10.4994C13.8054 9.82126 13.9499 9.09442 13.9499 8.36039C13.9499 7.62636 13.8054 6.89952 13.5245 6.22137C13.2436 5.54322 12.8318 4.92703 12.3128 4.40799C11.7938 3.88896 11.1776 3.47724 10.4994 3.19634C9.82127 2.91544 9.09443 2.77086 8.36041 2.77086C7.62638 2.77086 6.89954 2.91544 6.22138 3.19634C5.54323 3.47724 4.92705 3.88896 4.40801 4.40799C3.35977 5.45624 2.77087 6.87795 2.77087 8.36039C2.77087 9.84283 3.35977 11.2645 4.40801 12.3128C5.45625 13.361 6.87797 13.9499 8.36041 13.9499C9.84284 13.9499 11.2646 13.361 12.3128 12.3128ZM12.3128 12.3128L15.8333 15.8333" stroke="#7D9195" stroke-width="1.5" stroke-linecap="round" stroke-linejoin="round"/>
</svg>
