<svg width="12" height="13" viewBox="0 0 12 13" fill="none" xmlns="http://www.w3.org/2000/svg">
<path d="M2 3.2C2 3.01435 2.07375 2.8363 2.20503 2.70503C2.3363 2.57375 2.51435 2.5 2.7 2.5H5.8C5.98565 2.5 6.1637 2.57375 6.29497 2.70503C6.42625 2.8363 6.5 3.01435 6.5 3.2V4.5C6.5 4.63261 6.55268 4.75979 6.64645 4.85355C6.74021 4.94732 6.86739 5 7 5C7.13261 5 7.25979 4.94732 7.35355 4.85355C7.44732 4.75979 7.5 4.63261 7.5 4.5V3.2C7.5 2.97675 7.45603 2.75569 7.37059 2.54944C7.28516 2.34318 7.15994 2.15578 7.00208 1.99792C6.84422 1.84006 6.65682 1.71484 6.45056 1.6294C6.24431 1.54397 6.02325 1.5 5.8 1.5H2.7C2.24913 1.5 1.81673 1.67911 1.49792 1.99792C1.17911 2.31673 1 2.74913 1 3.2V9.8C1 10.2509 1.17911 10.6833 1.49792 11.0021C1.81673 11.3209 2.24913 11.5 2.7 11.5H5.8C6.25087 11.5 6.68327 11.3209 7.00208 11.0021C7.32089 10.6833 7.5 10.2509 7.5 9.8V8.5C7.5 8.36739 7.44732 8.24021 7.35355 8.14645C7.25979 8.05268 7.13261 8 7 8C6.86739 8 6.74021 8.05268 6.64645 8.14645C6.55268 8.24021 6.5 8.36739 6.5 8.5V9.8C6.5 9.98565 6.42625 10.1637 6.29497 10.295C6.1637 10.4262 5.98565 10.5 5.8 10.5H2.7C2.51435 10.5 2.3363 10.4262 2.20503 10.295C2.07375 10.1637 2 9.98565 2 9.8V3.2Z" fill="#032C33"/>
<path d="M8.6465 4.64639C8.74026 4.55266 8.86742 4.5 9 4.5C9.13258 4.5 9.25974 4.55266 9.3535 4.64639L10.8535 6.14639C10.9472 6.24016 10.9999 6.36731 10.9999 6.49989C10.9999 6.63248 10.9472 6.75963 10.8535 6.85339L9.3535 8.35339C9.2592 8.44447 9.1329 8.49487 9.0018 8.49373C8.8707 8.49259 8.74529 8.44001 8.65259 8.3473C8.55989 8.2546 8.5073 8.12919 8.50616 7.99809C8.50502 7.867 8.55542 7.74069 8.6465 7.64639L9.293 6.99989H3.5C3.36739 6.99989 3.24021 6.94721 3.14645 6.85345C3.05268 6.75968 3 6.6325 3 6.49989C3 6.36728 3.05268 6.24011 3.14645 6.14634C3.24021 6.05257 3.36739 5.99989 3.5 5.99989H9.293L8.6465 5.35339C8.55276 5.25963 8.50011 5.13248 8.50011 4.99989C8.50011 4.86731 8.55276 4.74016 8.6465 4.64639Z" fill="#032C33"/>
</svg>
