<svg width="17" height="17" viewBox="0 0 17 17" fill="none" xmlns="http://www.w3.org/2000/svg">
<path d="M2.31975 10.8348C1.71767 10.0528 1.41663 9.66112 1.41663 8.50016C1.41663 7.3385 1.71767 6.9482 2.31975 6.1655C3.52179 4.60433 5.53771 2.8335 8.49996 2.8335C11.4622 2.8335 13.4781 4.60433 14.6802 6.1655C15.2823 6.94891 15.5833 7.3392 15.5833 8.50016C15.5833 9.66183 15.2823 10.0521 14.6802 10.8348C13.4781 12.396 11.4622 14.1668 8.49996 14.1668C5.53771 14.1668 3.52179 12.396 2.31975 10.8348Z" stroke="#014754" stroke-width="1.2"/>
<path d="M10.625 8.5C10.625 9.06358 10.4011 9.60409 10.0026 10.0026C9.60409 10.4011 9.06358 10.625 8.5 10.625C7.93641 10.625 7.39591 10.4011 6.9974 10.0026C6.59888 9.60409 6.375 9.06358 6.375 8.5C6.375 7.93641 6.59888 7.39591 6.9974 6.9974C7.39591 6.59888 7.93641 6.375 8.5 6.375C9.06358 6.375 9.60409 6.59888 10.0026 6.9974C10.4011 7.39591 10.625 7.93641 10.625 8.5Z" stroke="#014754" stroke-width="1.2"/>
</svg>
