<svg width="25" height="26" viewBox="0 0 25 26" fill="none" xmlns="http://www.w3.org/2000/svg">
<path d="M2.08337 13C2.08337 9.31565 2.08337 7.47294 3.18025 6.24273C3.35594 6.04551 3.5483 5.86426 3.75733 5.69898C5.06462 4.66669 7.02192 4.66669 10.9375 4.66669H14.0625C17.9782 4.66669 19.9355 4.66669 21.2417 5.69794C21.4514 5.8646 21.6441 6.0462 21.8198 6.24273C22.9167 7.4719 22.9167 9.31565 22.9167 13C22.9167 16.6844 22.9167 18.5271 21.8198 19.7573C21.6432 19.9549 21.4498 20.1369 21.2417 20.3011C19.9355 21.3334 17.9792 21.3334 14.0625 21.3334H10.9375C7.02192 21.3334 5.06462 21.3334 3.75733 20.3021C3.54958 20.1375 3.3565 19.9553 3.18025 19.7573C2.08337 18.5281 2.08337 16.6844 2.08337 13Z" stroke="#576B6E" stroke-width="1.8" stroke-linecap="round" stroke-linejoin="round"/>
<path d="M5.20837 13H6.25004M18.75 13H19.7917M15.1573 13C15.1573 13.6907 14.883 14.3531 14.3946 14.8415C13.9062 15.3298 13.2438 15.6042 12.5532 15.6042C11.8625 15.6042 11.2001 15.3298 10.7117 14.8415C10.2234 14.3531 9.949 13.6907 9.949 13C9.949 12.3094 10.2234 11.647 10.7117 11.1586C11.2001 10.6702 11.8625 10.3959 12.5532 10.3959C13.2438 10.3959 13.9062 10.6702 14.3946 11.1586C14.883 11.647 15.1573 12.3094 15.1573 13Z" stroke="#576B6E" stroke-width="1.8" stroke-linecap="round" stroke-linejoin="round"/>
</svg>
