<svg width="13" height="14" viewBox="0 0 13 14" fill="none" xmlns="http://www.w3.org/2000/svg">
<rect y="0.5" width="13" height="13" rx="6.5" fill="#C0F9C0"/>
<g clip-path="url(#clip0_741_12837)">
<g clip-path="url(#clip1_741_12837)">
<path d="M8.01188 5.27549C8.17106 5.27549 8.33025 5.27549 8.4629 5.30202C8.51596 5.91222 8.51596 7.13263 7.79963 7.98161C7.26902 8.64487 6.36698 8.98977 5.14657 8.98977H4.80167C4.74861 7.76936 4.98739 6.81426 5.54453 6.20406C6.2078 5.43467 7.26902 5.27549 8.01188 5.27549ZM8.01188 4.74487C6.55269 4.74487 3.8731 5.30202 4.29759 9.46732C4.58943 9.49385 4.88127 9.52038 5.14657 9.52038C9.89555 9.52038 8.94045 4.82446 8.94045 4.82446C8.94045 4.82446 8.56902 4.74487 8.01188 4.74487ZM7.95882 5.8061C5.30576 5.8061 5.30576 8.45916 5.30576 8.45916C6.36698 6.33671 7.95882 5.8061 7.95882 5.8061Z" fill="#297529"/>
</g>
</g>
<defs>
<clipPath id="clip0_741_12837">
<rect width="7.16327" height="7.16327" fill="white" transform="translate(2.91828 3.55103)"/>
</clipPath>
<clipPath id="clip1_741_12837">
<rect width="6.36735" height="6.36735" fill="white" transform="translate(3.44885 3.94897)"/>
</clipPath>
</defs>
</svg>
