<svg width="14" height="15" viewBox="0 0 14 15" fill="none" xmlns="http://www.w3.org/2000/svg">
<g clip-path="url(#clip0_741_52991)">
<path fill-rule="evenodd" clip-rule="evenodd" d="M1.249 7.501C1.24875 6.28519 1.63383 5.10059 2.34892 4.11731C3.06401 3.13404 4.07233 2.40269 5.22905 2.0283C6.38578 1.65391 7.6314 1.65574 8.78702 2.03353C9.94264 2.41132 10.9488 3.14563 11.661 4.131L11.146 4.646C11.0759 4.71593 11.0281 4.8051 11.0088 4.90221C10.9894 4.99932 10.9993 5.09999 11.0372 5.19146C11.0751 5.28294 11.1394 5.36109 11.2217 5.41602C11.3041 5.47095 11.401 5.50018 11.5 5.5H13.5C13.6326 5.5 13.7598 5.44732 13.8536 5.35355C13.9473 5.25978 14 5.13261 14 5V3C14.0002 2.90098 13.9709 2.80413 13.916 2.72175C13.8611 2.63936 13.7829 2.57513 13.6915 2.53721C13.6 2.4993 13.4993 2.48939 13.4022 2.50876C13.3051 2.52813 13.2159 2.57589 13.146 2.646L12.554 3.239C11.6634 2.07905 10.4319 1.22712 9.03241 0.802783C7.63291 0.378449 6.13566 0.40302 4.75084 0.873047C3.36602 1.34307 2.16315 2.23496 1.31109 3.42351C0.459023 4.61205 0.000540698 6.03758 0 7.5C0 7.66576 0.065848 7.82473 0.183058 7.94194C0.300269 8.05915 0.45924 8.125 0.625 8.125C0.79076 8.125 0.949731 8.05915 1.06694 7.94194C1.18415 7.82473 1.25 7.66576 1.25 7.5M7 3.375C7.345 3.375 7.625 3.655 7.625 4V4.557C7.9525 4.60045 8.26158 4.73368 8.51803 4.94194C8.77448 5.15021 8.96829 5.42538 9.078 5.737C9.10856 5.81507 9.12309 5.8985 9.12074 5.98231C9.11839 6.06612 9.0992 6.1486 9.06431 6.22484C9.02942 6.30107 8.97956 6.36952 8.91767 6.42608C8.85579 6.48265 8.78316 6.52619 8.7041 6.55411C8.62505 6.58203 8.54118 6.59375 8.4575 6.58859C8.37381 6.58343 8.29202 6.56148 8.217 6.52406C8.14197 6.48663 8.07524 6.43449 8.02079 6.37075C7.96633 6.307 7.92525 6.23295 7.9 6.153C7.86284 6.04723 7.79367 5.95564 7.70211 5.89095C7.61054 5.82627 7.50111 5.79168 7.389 5.792H6.486C6.38281 5.791 6.28293 5.82839 6.20577 5.89691C6.1286 5.96542 6.07966 6.06017 6.06844 6.16276C6.05722 6.26534 6.08453 6.36843 6.14506 6.452C6.2056 6.53558 6.29503 6.59367 6.396 6.615L7.772 6.915C8.18445 7.00452 8.55207 7.23675 8.81008 7.57076C9.06808 7.90477 9.19992 8.31914 9.18235 8.74083C9.16478 9.16252 8.99893 9.56447 8.71403 9.87587C8.42914 10.1873 8.04347 10.3881 7.625 10.443V11C7.625 11.1658 7.55915 11.3247 7.44194 11.4419C7.32473 11.5592 7.16576 11.625 7 11.625C6.83424 11.625 6.67527 11.5592 6.55806 11.4419C6.44085 11.3247 6.375 11.1658 6.375 11V10.443C6.0475 10.3996 5.73842 10.2663 5.48197 10.0581C5.22552 9.84979 5.03171 9.57461 4.922 9.263C4.89144 9.18492 4.87691 9.1015 4.87926 9.01769C4.88161 8.93388 4.9008 8.8514 4.93569 8.77516C4.97057 8.69892 5.02044 8.63048 5.08233 8.57391C5.14421 8.51735 5.21684 8.47381 5.2959 8.44589C5.37496 8.41797 5.45882 8.40624 5.5425 8.41141C5.62619 8.41657 5.70797 8.43852 5.783 8.47594C5.85803 8.51337 5.92475 8.5655 5.97921 8.62925C6.03367 8.693 6.07475 8.76705 6.1 8.847C6.13716 8.95277 6.20633 9.04436 6.29789 9.10904C6.38946 9.17373 6.49889 9.20832 6.611 9.208H7.389C7.5223 9.20751 7.65075 9.15792 7.74979 9.0687C7.84883 8.97948 7.91152 8.85689 7.92587 8.72437C7.94022 8.59184 7.90524 8.45867 7.82759 8.35032C7.74995 8.24196 7.6351 8.16601 7.505 8.137L6.13 7.836C5.73784 7.75038 5.38978 7.52605 5.14982 7.20428C4.90987 6.8825 4.79415 6.48491 4.82396 6.08462C4.85377 5.68433 5.0271 5.30826 5.31207 5.02557C5.59703 4.74289 5.97448 4.57259 6.375 4.546V4C6.375 3.655 6.655 3.375 7 3.375ZM0.309 12.462C0.217564 12.4242 0.139396 12.3601 0.0843905 12.2779C0.0293854 12.1956 1.60608e-05 12.0989 0 12L0 10C0 9.86739 0.0526784 9.74021 0.146447 9.64645C0.240215 9.55268 0.367392 9.5 0.5 9.5H2.5C2.59902 9.49982 2.69586 9.52905 2.77825 9.58398C2.86064 9.63891 2.92487 9.71706 2.96278 9.80854C3.0007 9.90001 3.0106 10.0007 2.99124 10.0978C2.97187 10.1949 2.92411 10.2841 2.854 10.354L2.339 10.868C3.0512 11.8534 4.05736 12.5877 5.21298 12.9655C6.3686 13.3433 7.61422 13.3451 8.77095 12.9707C9.92767 12.5963 10.936 11.865 11.6511 10.8817C12.3662 9.89841 12.7512 8.7138 12.751 7.498C12.7511 7.41592 12.7673 7.33466 12.7988 7.25886C12.8302 7.18306 12.8763 7.11419 12.9344 7.0562C12.9925 6.99821 13.0614 6.95223 13.1373 6.92088C13.2131 6.88953 13.2944 6.87343 13.3765 6.8735C13.4586 6.87356 13.5398 6.8898 13.6156 6.92127C13.6914 6.95273 13.7603 6.99883 13.8183 7.05691C13.8763 7.11499 13.9223 7.18393 13.9536 7.25978C13.985 7.33564 14.0011 7.41692 14.001 7.499C14.0009 8.96175 13.5427 10.3877 12.6907 11.5767C11.8386 12.7657 10.6356 13.6579 9.25047 14.1281C7.86535 14.5983 6.36774 14.6229 4.96796 14.1983C3.56818 13.7738 2.33654 12.9214 1.446 11.761L0.854 12.354C0.784022 12.4239 0.694892 12.4714 0.597882 12.4907C0.500872 12.5099 0.40034 12.4999 0.309 12.462Z" fill="#014754"/>
</g>
<defs>
<clipPath id="clip0_741_52991">
<rect width="14" height="14" fill="white" transform="translate(0 0.5)"/>
</clipPath>
</defs>
</svg>
