<svg width="20" height="20" viewBox="0 0 20 20" fill="none" xmlns="http://www.w3.org/2000/svg">
<rect width="20" height="20" rx="10" fill="#008BA5"/>
<path d="M8.58346 11.9691L6.94485 10.3305C6.85655 10.2422 6.7368 10.1926 6.61193 10.1926C6.48706 10.1926 6.36731 10.2422 6.27901 10.3305C6.19072 10.4188 6.14111 10.5386 6.14111 10.6634C6.14111 10.7253 6.15329 10.7865 6.17695 10.8436C6.20061 10.9007 6.23529 10.9526 6.27901 10.9964L8.2529 12.9703C8.43707 13.1544 8.73457 13.1544 8.91873 12.9703L13.9148 7.97414C14.0031 7.88585 14.0527 7.76609 14.0527 7.64123C14.0527 7.51636 14.0031 7.3966 13.9148 7.30831C13.8265 7.22001 13.7068 7.17041 13.5819 7.17041C13.4571 7.17041 13.3373 7.22001 13.249 7.30831L8.58346 11.9691Z" fill="white"/>
</svg>
