<svg width="170" height="189" viewBox="0 0 170 189" fill="none" xmlns="http://www.w3.org/2000/svg">
<g clip-path="url(#clip0_35_72708)">
<path d="M139.815 88.5085C140.56 87.2629 140.779 85.7725 140.425 84.3651C140.071 82.9576 139.173 81.7484 137.927 81.0036L100.356 58.5347C99.1109 57.7898 97.6205 57.5702 96.2131 57.9242C94.8056 58.2782 93.5964 59.1768 92.8515 60.4224C92.1067 61.6679 91.8871 63.1584 92.2411 64.5658C92.5951 65.9732 93.4937 67.1824 94.7393 67.9273L132.31 90.3962C133.555 91.1411 135.046 91.3607 136.453 91.0066C137.861 90.6526 139.07 89.754 139.815 88.5085ZM124.835 113.555C125.58 112.31 125.8 110.82 125.446 109.412C125.092 108.005 124.193 106.795 122.948 106.051L85.3772 83.5817C84.1317 82.8368 82.6413 82.6172 81.2338 82.9712C79.8264 83.3252 78.6172 84.2239 77.8723 85.4694C77.1274 86.7149 76.9078 88.2054 77.2618 89.6128C77.6158 91.0203 78.5145 92.2294 79.76 92.9743L117.331 115.443C118.576 116.188 120.066 116.408 121.474 116.054C122.881 115.7 124.091 114.801 124.835 113.555Z" fill="#DAEFF1"/>
<path fill-rule="evenodd" clip-rule="evenodd" d="M125.281 -11.5724C120.714 -14.3036 115.249 -15.1088 110.089 -13.8108C104.928 -12.5127 100.495 -9.21777 97.7633 -4.65079L45.3359 83.0137C42.6047 87.5807 41.7995 93.0456 43.0975 98.2063C44.3956 103.367 47.6905 107.801 52.2575 110.532L114.875 147.98C119.442 150.711 124.907 151.516 130.068 150.218C135.228 148.92 139.662 145.625 142.393 141.058L183.706 71.9787C185.133 69.593 185.742 66.8117 185.44 64.0469L181.527 27.9733C181.314 26.0106 180.648 24.1241 179.583 22.4619C178.518 20.7997 177.082 19.4071 175.388 18.3936L125.281 -11.5724ZM107.156 0.966429C109.74 -3.35418 115.344 -4.76367 119.664 -2.17974L165.062 24.9701L148.596 52.5031C147.046 55.0954 147.891 58.4576 150.484 60.008L170.834 72.1786L133 135.441C130.417 139.762 124.813 141.171 120.492 138.587L57.8747 101.139C53.5541 98.5552 52.1446 92.9516 54.7285 88.6309L107.156 0.966429Z" fill="#DAEFF1"/>
</g>
<defs>
<clipPath id="clip0_35_72708">
<rect width="175.107" height="175.107" fill="white" transform="translate(89.875 -51.875) rotate(30.8813)"/>
</clipPath>
</defs>
</svg>
