<svg width="18" height="19" viewBox="0 0 18 19" fill="none" xmlns="http://www.w3.org/2000/svg">
<path d="M4.22703 14.273C3.60023 13.6462 3.10303 12.9021 2.76381 12.0831C2.42459 11.2642 2.25 10.3864 2.25 9.5C2.25 8.61358 2.42459 7.73583 2.76381 6.91689C3.10303 6.09794 3.60023 5.35382 4.22703 4.72703C4.85382 4.10023 5.59794 3.60303 6.41689 3.26381C7.23583 2.92459 8.11358 2.75 9 2.75C9.88642 2.75 10.7642 2.92459 11.5831 3.26381C12.4021 3.60303 13.1462 4.10023 13.773 4.72703M4.22703 14.273C4.85382 14.8998 5.59794 15.397 6.41689 15.7362C7.23583 16.0754 8.11358 16.25 9 16.25C9.88642 16.25 10.7642 16.0754 11.5831 15.7362C12.4021 15.397 13.1462 14.8998 13.773 14.273C14.3998 13.6462 14.897 12.9021 15.2362 12.0831C15.5754 11.2642 15.75 10.3864 15.75 9.5C15.75 8.61358 15.5754 7.73583 15.2362 6.91689C14.897 6.09794 14.3998 5.35382 13.773 4.72703M4.22703 14.273L13.773 4.72703" stroke="#032C33" stroke-width="1.2" stroke-linecap="round" stroke-linejoin="round"/>
</svg>
