<svg width="17" height="17" viewBox="0 0 17 17" fill="none" xmlns="http://www.w3.org/2000/svg">
<path d="M9.91671 8.49998H14.1667M9.91671 11.3333H14.1667M9.91671 14.1666H14.1667M2.83337 3.54165C2.83337 3.35378 2.908 3.17362 3.04084 3.04078C3.17368 2.90794 3.35385 2.83331 3.54171 2.83331H13.4584C13.6462 2.83331 13.8264 2.90794 13.9592 3.04078C14.0921 3.17362 14.1667 3.35378 14.1667 3.54165V4.95831C14.1667 5.14617 14.0921 5.32634 13.9592 5.45918C13.8264 5.59202 13.6462 5.66665 13.4584 5.66665H3.54171C3.35385 5.66665 3.17368 5.59202 3.04084 5.45918C2.908 5.32634 2.83337 5.14617 2.83337 4.95831V3.54165ZM2.83337 9.20831C2.83337 9.02045 2.908 8.84028 3.04084 8.70745C3.17368 8.57461 3.35385 8.49998 3.54171 8.49998H6.37504C6.5629 8.49998 6.74307 8.57461 6.87591 8.70745C7.00875 8.84028 7.08337 9.02045 7.08337 9.20831V13.4583C7.08337 13.6462 7.00875 13.8263 6.87591 13.9592C6.74307 14.092 6.5629 14.1666 6.37504 14.1666H3.54171C3.35385 14.1666 3.17368 14.092 3.04084 13.9592C2.908 13.8263 2.83337 13.6462 2.83337 13.4583V9.20831Z" stroke="#014754" stroke-width="1.4" stroke-linecap="round" stroke-linejoin="round"/>
</svg>
