<svg width="17" height="17" viewBox="0 0 17 17" fill="none" xmlns="http://www.w3.org/2000/svg">
<path d="M15.2292 8.49998H13.7339M13.7339 8.49998C13.7339 9.88818 13.1828 11.2192 12.2012 12.2008C11.2196 13.1824 9.88824 13.7339 8.50004 13.7339M13.7339 8.49998C13.7339 7.11178 13.1828 5.78007 12.2012 4.79847C11.2196 3.81686 9.88824 3.2661 8.50004 3.2661M8.50004 1.77081V3.2661M8.50004 3.2661C7.11193 3.2661 5.78067 3.81682 4.79913 4.79836C3.81759 5.7799 3.26617 7.11116 3.26617 8.49927C3.26617 9.88738 3.81759 11.2186 4.79913 12.2002C5.78067 13.1817 7.11193 13.7339 8.50004 13.7339M1.77087 8.49998H3.26617M8.50004 15.2291V13.7339" stroke="#014754" stroke-width="1.2" stroke-miterlimit="10" stroke-linecap="round"/>
<path d="M8.49998 11.4906C9.29313 11.4906 10.0538 11.1755 10.6146 10.6146C11.1755 10.0538 11.4906 9.29313 11.4906 8.49998C11.4906 7.70683 11.1755 6.94616 10.6146 6.38532C10.0538 5.82448 9.29313 5.5094 8.49998 5.5094C7.70683 5.5094 6.94616 5.82448 6.38532 6.38532C5.82448 6.94616 5.5094 7.70683 5.5094 8.49998C5.5094 9.29313 5.82448 10.0538 6.38532 10.6146C6.94616 11.1755 7.70683 11.4906 8.49998 11.4906Z" stroke="#014754" stroke-width="1.2" stroke-miterlimit="10" stroke-linecap="round"/>
</svg>
