<svg width="19" height="20" viewBox="0 0 19 20" fill="none" xmlns="http://www.w3.org/2000/svg">
<path fill-rule="evenodd" clip-rule="evenodd" d="M6.28108 1.70801H12.7189C13.4203 1.70801 14.0252 1.70801 14.5097 1.77292C15.0282 1.84259 15.5262 2.00013 15.9291 2.40388C16.3329 2.80763 16.4904 3.3048 16.5601 3.82334C16.625 4.30784 16.625 4.91267 16.625 5.61409V6.41842C16.625 6.62839 16.5416 6.82975 16.3931 6.97822C16.2447 7.12668 16.0433 7.21009 15.8333 7.21009C15.6234 7.21009 15.422 7.12668 15.2735 6.97822C15.1251 6.82975 15.0417 6.62839 15.0417 6.41842V5.66634C15.0417 4.89763 15.0401 4.40047 14.991 4.03472C14.9443 3.69113 14.8699 3.58347 14.8097 3.5233C14.7495 3.46313 14.6419 3.38872 14.2983 3.34201C13.9333 3.29292 13.4354 3.29134 12.6667 3.29134H10.2917V16.7497C10.2917 16.9596 10.2083 17.161 10.0598 17.3095C9.91133 17.4579 9.70996 17.5413 9.5 17.5413C9.29004 17.5413 9.08867 17.4579 8.94021 17.3095C8.79174 17.161 8.70833 16.9596 8.70833 16.7497V3.29134H6.33333C5.56463 3.29134 5.06746 3.29292 4.70171 3.34201C4.35813 3.38872 4.25046 3.46313 4.19029 3.5233C4.13013 3.58347 4.05571 3.69113 4.009 4.03472C3.95992 4.39967 3.95833 4.89763 3.95833 5.66634V6.41842C3.95833 6.62839 3.87493 6.82975 3.72646 6.97822C3.57799 7.12668 3.37663 7.21009 3.16667 7.21009C2.9567 7.21009 2.75534 7.12668 2.60687 6.97822C2.45841 6.82975 2.375 6.62839 2.375 6.41842V5.61409C2.375 4.91267 2.375 4.30784 2.43992 3.82334C2.50958 3.3048 2.66712 2.80684 3.07087 2.40388C3.47462 2.00013 3.97179 1.84259 4.49033 1.77292C4.97483 1.70801 5.57967 1.70801 6.28108 1.70801Z" fill="#008BA5"/>
<path d="M5.5415 16.75H13.4582H5.5415Z" fill="#008BA5"/>
<path d="M5.5415 16.75H13.4582" stroke="#3F7A7E" stroke-width="1.80952" stroke-linecap="round" stroke-linejoin="round"/>
</svg>
