<svg width="16" height="17" viewBox="0 0 16 17" fill="none" xmlns="http://www.w3.org/2000/svg">
<path d="M4.8 15C4.57334 15 4.38347 14.9199 4.2304 14.7596C4.07734 14.5993 4.00054 14.4013 4 14.1653C3.99947 13.9294 4.07627 13.7313 4.2304 13.571C4.38454 13.4108 4.5744 13.3306 4.8 13.3306H11.2C11.4267 13.3306 11.6168 13.4108 11.7704 13.571C11.924 13.7313 12.0005 13.9294 12 14.1653C11.9995 14.4013 11.9227 14.5996 11.7696 14.7604C11.6165 14.9213 11.4267 15.0011 11.2 15H4.8ZM8 11.6613C7.77333 11.6613 7.58347 11.5812 7.4304 11.4209C7.27733 11.2607 7.20053 11.0626 7.2 10.8266V4.83789L5.68 6.40289C5.53334 6.55592 5.35014 6.63604 5.1304 6.64328C4.91067 6.65051 4.72054 6.57038 4.56 6.40289C4.41334 6.24987 4.34 6.05511 4.34 5.81862C4.34 5.58214 4.41334 5.38738 4.56 5.23436L7.44 2.22955C7.52 2.14608 7.60667 2.0871 7.7 2.0526C7.79333 2.0181 7.89333 2.00057 8 2.00001C8.10667 1.99946 8.20667 2.01698 8.3 2.0526C8.39333 2.08821 8.48 2.14719 8.56 2.22955L11.44 5.23436C11.5867 5.38738 11.6635 5.5788 11.6704 5.80861C11.6773 6.03842 11.6005 6.23652 11.44 6.40289C11.2933 6.55592 11.1067 6.63243 10.88 6.63243C10.6533 6.63243 10.4667 6.55592 10.32 6.40289L8.8 4.83789V10.8266C8.8 11.0631 8.72347 11.2615 8.5704 11.4218C8.41733 11.582 8.2272 11.6619 8 11.6613Z" fill="#032C33"/>
</svg>
