<svg width="18" height="18" viewBox="0 0 18 18" fill="none" xmlns="http://www.w3.org/2000/svg">
<path d="M9 9.1875C8.44374 9.1875 7.89997 9.02255 7.43746 8.71351C6.97495 8.40447 6.61446 7.96522 6.40159 7.4513C6.18872 6.93738 6.13302 6.37188 6.24154 5.82631C6.35006 5.28074 6.61793 4.7796 7.01126 4.38626C7.4046 3.99293 7.90574 3.72506 8.45131 3.61654C8.99688 3.50802 9.56238 3.56372 10.0763 3.77659C10.5902 3.98946 11.0295 4.34995 11.3385 4.81246C11.6475 5.27497 11.8125 5.81874 11.8125 6.375C11.8125 7.12092 11.5162 7.83629 10.9887 8.36374C10.4613 8.89119 9.74592 9.1875 9 9.1875ZM9 4.6875C8.66624 4.6875 8.33998 4.78647 8.06248 4.9719C7.78497 5.15732 7.56868 5.42087 7.44095 5.72922C7.31323 6.03757 7.27981 6.37687 7.34492 6.70422C7.41004 7.03156 7.57076 7.33224 7.80676 7.56824C8.04276 7.80424 8.34344 7.96496 8.67078 8.03008C8.99813 8.09519 9.33743 8.06177 9.64578 7.93405C9.95413 7.80632 10.2177 7.59003 10.4031 7.31253C10.5885 7.03502 10.6875 6.70876 10.6875 6.375C10.6875 5.92745 10.5097 5.49823 10.1932 5.18176C9.87677 4.86529 9.44755 4.6875 9 4.6875ZM14.25 14.4375C14.1014 14.4356 13.9595 14.3757 13.8544 14.2706C13.7493 14.1655 13.6894 14.0236 13.6875 13.875C13.6875 12.4125 12.8925 11.4375 9 11.4375C5.1075 11.4375 4.3125 12.4125 4.3125 13.875C4.3125 14.0242 4.25324 14.1673 4.14775 14.2727C4.04226 14.3782 3.89918 14.4375 3.75 14.4375C3.60082 14.4375 3.45774 14.3782 3.35225 14.2727C3.24676 14.1673 3.1875 14.0242 3.1875 13.875C3.1875 10.3125 7.26 10.3125 9 10.3125C10.74 10.3125 14.8125 10.3125 14.8125 13.875C14.8106 14.0236 14.7507 14.1655 14.6456 14.2706C14.5405 14.3757 14.3986 14.4356 14.25 14.4375Z" fill="#014754"/>
</svg>
