<svg width="17" height="17" viewBox="0 0 17 17" fill="none" xmlns="http://www.w3.org/2000/svg">
<path d="M14.5562 2.60303C14.5562 2.44365 14.5031 2.3374 14.3969 2.23115C14.2906 2.1249 14.1844 2.07178 14.025 2.07178C13.8656 2.07178 13.7594 2.1249 13.6531 2.23115L12.2188 3.66553C11.1562 3.13428 9.93437 2.81553 8.5 2.65615C5.84375 2.92178 3.71875 3.87803 2.23125 5.57803C0.74375 7.27803 0 8.23428 0 8.4999C0 8.76553 0.796875 9.72178 2.23125 11.4218C2.60312 11.8468 2.975 12.2187 3.45312 12.5374L2.01875 14.0249C1.9125 14.1312 1.85938 14.2374 1.85938 14.3968C1.85938 14.5562 1.9125 14.6624 2.01875 14.7687C2.125 14.8749 2.23125 14.928 2.39062 14.928C2.55 14.928 2.65625 14.8749 2.7625 14.7687L14.45 2.9749C14.5031 2.86865 14.5562 2.7624 14.5562 2.60303ZM3.825 11.3687C2.55 10.1999 1.7 9.24365 1.275 8.4999C1.75313 7.70303 2.60312 6.74678 3.825 5.63115C5.04688 4.51553 6.64062 3.8249 8.5 3.71865C9.5625 3.77178 10.5719 4.0374 11.4219 4.4624L10.5187 5.36553C9.93437 4.99365 9.29688 4.78115 8.5 4.78115C7.4375 4.78115 6.5875 5.15303 5.84375 5.84365C5.1 6.53428 4.78125 7.4374 4.78125 8.4999C4.78125 9.29678 4.99375 9.9874 5.36563 10.5718L4.25 11.7405C4.09062 11.6343 3.93125 11.4749 3.825 11.3687ZM6.1625 9.7749C5.95 9.40303 5.84375 8.97803 5.84375 8.4999C5.84375 7.75615 6.10938 7.11865 6.64062 6.64053C7.17188 6.1624 7.75625 5.84365 8.5 5.84365C8.97812 5.84365 9.40312 5.9499 9.72187 6.1624L6.1625 9.7749ZM14.7687 5.57803C14.5562 5.3124 14.2906 5.0999 14.0781 4.8874L13.2812 5.68428C14.5031 6.7999 15.3531 7.75615 15.7781 8.4999C15.3 9.29678 14.45 10.253 13.2281 11.3687C12.0062 12.4843 10.3594 13.1749 8.49998 13.2812C7.64998 13.228 6.85311 13.0687 6.16248 12.803L5.36561 13.5999C6.32186 13.9718 7.33123 14.2374 8.49998 14.3437C11.1562 14.078 13.2812 13.1218 14.7687 11.4218C16.2562 9.72178 17 8.76553 17 8.4999C17 8.23428 16.2031 7.27803 14.7687 5.57803Z" fill="#014754"/>
<path d="M8.49995 11.1562C8.28745 11.1562 8.07495 11.1031 7.86245 11.05L7.01245 11.9C7.49058 12.1125 7.9687 12.2187 8.49995 12.2187C9.56245 12.2187 10.4125 11.8468 11.1562 11.1562C11.8468 10.4656 12.2187 9.56245 12.2187 8.49995C12.2187 7.9687 12.1125 7.43745 11.9 7.01245L11.05 7.86245C11.1031 8.07495 11.1562 8.28745 11.1562 8.49995C11.1562 9.2437 10.8906 9.8812 10.3593 10.3593C9.82808 10.8375 9.2437 11.1562 8.49995 11.1562Z" fill="#014754"/>
</svg>
