<svg width="18" height="18" viewBox="0 0 18 18" fill="none" xmlns="http://www.w3.org/2000/svg">
<path d="M14.25 9.75V14.25C14.25 14.6478 14.092 15.0294 13.8107 15.3107C13.5294 15.592 13.1478 15.75 12.75 15.75H3.75C3.35218 15.75 2.97064 15.592 2.68934 15.3107C2.40804 15.0294 2.25 14.6478 2.25 14.25V5.25C2.25 4.85218 2.40804 4.47064 2.68934 4.18934C2.97064 3.90804 3.35218 3.75 3.75 3.75H8.25V5.25H3.75V14.25H12.75V9.75H14.25ZM9.75 2.25V3.75H13.1895L7.34475 9.59475L8.40525 10.6552L14.25 4.8105V8.25H15.75V2.25H9.75Z" fill="#032C33"/>
</svg>
