<svg width="16" height="16" viewBox="0 0 16 16" fill="none" xmlns="http://www.w3.org/2000/svg">
<path d="M12.6667 7.99998C12.6667 8.17679 12.5964 8.34636 12.4714 8.47138C12.3464 8.59641 12.1768 8.66665 12 8.66665C11.8232 8.66665 11.6536 8.59641 11.5286 8.47138C11.4036 8.34636 11.3333 8.17679 11.3333 7.99998C11.3333 7.82317 11.4036 7.6536 11.5286 7.52858C11.6536 7.40355 11.8232 7.33331 12 7.33331C12.1768 7.33331 12.3464 7.40355 12.4714 7.52858C12.5964 7.6536 12.6667 7.82317 12.6667 7.99998Z" fill="#014754"/>
<path fill-rule="evenodd" clip-rule="evenodd" d="M6.62934 2.16669H8.70401C9.92934 2.16669 10.9 2.16669 11.6593 2.26869C12.4407 2.37402 13.0733 2.59535 13.5727 3.09402C14.1887 3.71069 14.3853 4.53602 14.4567 5.60735C14.8413 5.77602 15.132 6.13402 15.1633 6.58735C15.1667 6.62802 15.1667 6.67135 15.1667 6.71135V9.28869C15.1667 9.32869 15.1667 9.37202 15.164 9.41202C15.132 9.86535 14.8413 10.224 14.4567 10.3934C14.3853 11.464 14.1887 12.2894 13.5727 12.906C13.0733 13.4047 12.4407 13.626 11.6593 13.7314C10.8993 13.8334 9.92934 13.8334 8.70401 13.8334H6.62934C5.40401 13.8334 4.43334 13.8334 3.67401 13.7314C2.89268 13.626 2.26001 13.4047 1.76068 12.906C1.26201 12.4067 1.04068 11.774 0.935343 10.9927C0.833344 10.2327 0.833344 9.26269 0.833344 8.03735V7.96269C0.833344 6.73735 0.833344 5.76669 0.935343 5.00735C1.04068 4.22602 1.26201 3.59335 1.76068 3.09402C2.26001 2.59535 2.89268 2.37402 3.67401 2.26869C4.43401 2.16669 5.40401 2.16669 6.62934 2.16669ZM13.4453 10.5H12.1533C10.7233 10.5 9.49934 9.41469 9.49934 8.00002C9.49934 6.58535 10.7233 5.50002 12.1527 5.50002H13.4447C13.3687 4.60602 13.1973 4.13335 12.8647 3.80135C12.5827 3.51935 12.196 3.35002 11.5253 3.26002C10.8407 3.16802 9.93734 3.16669 8.66601 3.16669H6.66601C5.39468 3.16669 4.49201 3.16802 3.80601 3.26002C3.13601 3.35002 2.74934 3.51935 2.46734 3.80135C2.18534 4.08335 2.01668 4.47002 1.92668 5.14002C1.83468 5.82535 1.83334 6.72802 1.83334 7.99935C1.83334 9.27069 1.83468 10.174 1.92668 10.8594C2.01668 11.5294 2.18601 11.916 2.46801 12.198C2.75001 12.48 3.13668 12.6494 3.80734 12.7394C4.49268 12.8314 5.39534 12.8327 6.66668 12.8327H8.66668C9.93801 12.8327 10.8413 12.8314 11.5267 12.7394C12.1967 12.6494 12.5833 12.48 12.8653 12.198C13.198 11.866 13.3693 11.394 13.4453 10.4994M3.50001 5.33335C3.50001 5.20075 3.55269 5.07357 3.64646 4.9798C3.74022 4.88603 3.8674 4.83335 4.00001 4.83335H6.66668C6.79928 4.83335 6.92646 4.88603 7.02023 4.9798C7.114 5.07357 7.16668 5.20075 7.16668 5.33335C7.16668 5.46596 7.114 5.59314 7.02023 5.68691C6.92646 5.78068 6.79928 5.83335 6.66668 5.83335H4.00001C3.8674 5.83335 3.74022 5.78068 3.64646 5.68691C3.55269 5.59314 3.50001 5.46596 3.50001 5.33335ZM13.9493 6.50002H12.1533C11.204 6.50002 10.4993 7.20602 10.4993 8.00002C10.4993 8.79402 11.204 9.50002 12.1527 9.50002H13.9647C14.102 9.49135 14.1613 9.39869 14.166 9.34269V6.65735C14.1613 6.60135 14.102 6.50869 13.9647 6.50069L13.9493 6.50002Z" fill="#014754"/>
</svg>
