<svg width="19" height="20" viewBox="0 0 19 20" fill="none" xmlns="http://www.w3.org/2000/svg">
<path d="M15.0413 9.62499C15.0413 9.83496 14.9579 10.0363 14.8095 10.1848C14.661 10.3333 14.4596 10.4167 14.2497 10.4167C14.0397 10.4167 13.8383 10.3333 13.6899 10.1848C13.5414 10.0363 13.458 9.83496 13.458 9.62499C13.458 9.41503 13.5414 9.21367 13.6899 9.0652C13.8383 8.91674 14.0397 8.83333 14.2497 8.83333C14.4596 8.83333 14.661 8.91674 14.8095 9.0652C14.9579 9.21367 15.0413 9.41503 15.0413 9.62499Z" fill="#032C33"/>
<path fill-rule="evenodd" clip-rule="evenodd" d="M7.87201 2.69792H10.3357C11.7908 2.69792 12.9434 2.69792 13.8451 2.81905C14.773 2.94413 15.5243 3.20696 16.1172 3.79913C16.8487 4.53142 17.0823 5.51151 17.167 6.78371C17.6238 6.98401 17.9689 7.40913 18.0061 7.94746C18.0101 7.99575 18.0101 8.04721 18.0101 8.09471V11.1553C18.0101 11.2028 18.0101 11.2543 18.0069 11.3018C17.9689 11.8401 17.6238 12.266 17.167 12.4671C17.0823 13.7385 16.8487 14.7186 16.1172 15.4509C15.5243 16.043 14.773 16.3059 13.8451 16.431C12.9426 16.5521 11.7908 16.5521 10.3357 16.5521H7.87201C6.41692 16.5521 5.26426 16.5521 4.36255 16.431C3.43472 16.3059 2.68342 16.043 2.09047 15.4509C1.4983 14.8579 1.23547 14.1066 1.11038 13.1788C0.989258 12.2763 0.989258 11.1244 0.989258 9.66934V9.58067C0.989258 8.12559 0.989258 6.97292 1.11038 6.07121C1.23547 5.14338 1.4983 4.39209 2.09047 3.79913C2.68342 3.20696 3.43472 2.94413 4.36255 2.81905C5.26505 2.69792 6.41692 2.69792 7.87201 2.69792ZM15.966 12.5938H14.4318C12.7336 12.5938 11.2801 11.3049 11.2801 9.62501C11.2801 7.94509 12.7336 6.65626 14.431 6.65626H15.9652C15.875 5.59463 15.6715 5.03334 15.2765 4.63909C14.9416 4.30421 14.4824 4.10313 13.686 3.99626C12.873 3.887 11.8003 3.88542 10.2905 3.88542H7.91555C6.40584 3.88542 5.33392 3.887 4.5193 3.99626C3.72367 4.10313 3.26451 4.30421 2.92963 4.63909C2.59476 4.97396 2.39447 5.43313 2.28759 6.22876C2.17834 7.04259 2.17676 8.1145 2.17676 9.62421C2.17676 11.1339 2.17834 12.2066 2.28759 13.0205C2.39447 13.8161 2.59555 14.2753 2.93042 14.6101C3.2653 14.945 3.72447 15.1461 4.52088 15.253C5.33472 15.3622 6.40663 15.3638 7.91634 15.3638H10.2913C11.801 15.3638 12.8738 15.3622 13.6876 15.253C14.4832 15.1461 14.9424 14.945 15.2773 14.6101C15.6723 14.2159 15.8758 13.6554 15.966 12.593M4.15592 6.45834C4.15592 6.30087 4.21848 6.14984 4.32983 6.03849C4.44118 5.92714 4.5922 5.86459 4.74967 5.86459H7.91634C8.07381 5.86459 8.22484 5.92714 8.33618 6.03849C8.44754 6.14984 8.51009 6.30087 8.51009 6.45834C8.51009 6.61581 8.44754 6.76683 8.33618 6.87818C8.22484 6.98953 8.07381 7.05209 7.91634 7.05209H4.74967C4.5922 7.05209 4.44118 6.98953 4.32983 6.87818C4.21848 6.76683 4.15592 6.61581 4.15592 6.45834ZM16.5645 7.84376H14.4318C13.3044 7.84376 12.4676 8.68213 12.4676 9.62501C12.4676 10.5679 13.3044 11.4063 14.431 11.4063H16.5827C16.7458 11.396 16.8163 11.2859 16.8218 11.2194V8.03059C16.8163 7.96409 16.7458 7.85405 16.5827 7.84455L16.5645 7.84376Z" fill="#032C33"/>
</svg>
