<svg width="14" height="14" viewBox="0 0 14 14" fill="none" xmlns="http://www.w3.org/2000/svg">
<path d="M7.00013 3.21549C7.32738 3.21549 7.65288 3.42199 7.9008 3.83499L11.3495 9.58316C11.8459 10.4086 11.4626 11.0841 10.5001 11.0841H3.50013C2.53763 11.0841 2.15438 10.408 2.6508 9.58316L6.09946 3.83499C6.34738 3.42199 6.67288 3.21549 7.00013 3.21549ZM7.00013 2.04883C6.24413 2.04883 5.5523 2.48049 5.09905 3.23358L1.65038 8.98291C1.19188 9.74649 1.14172 10.5608 1.5133 11.2171C1.88488 11.8733 2.60938 12.2507 3.50013 12.2507H10.5001C11.3909 12.2507 12.116 11.8739 12.487 11.2177C12.858 10.5614 12.8084 9.74708 12.3499 8.98349L8.90121 3.23533C8.44796 2.48049 7.75613 2.04883 7.00013 2.04883Z" fill="#D03B3D"/>
<path d="M7.00003 10.0909C7.41885 10.0909 7.75837 9.75137 7.75837 9.33255C7.75837 8.91374 7.41885 8.57422 7.00003 8.57422C6.58122 8.57422 6.2417 8.91374 6.2417 9.33255C6.2417 9.75137 6.58122 10.0909 7.00003 10.0909Z" fill="#D03B3D"/>
<path d="M7.87496 5.83398C7.87496 5.34982 7.48355 4.95898 6.99996 4.95898C6.85679 4.95915 6.71586 4.99444 6.58951 5.06177C6.46316 5.12909 6.35526 5.22639 6.27527 5.34513C6.19528 5.46387 6.14566 5.60043 6.13074 5.74282C6.11582 5.8852 6.13607 6.02908 6.18971 6.16182C6.51288 6.96448 6.99996 8.16732 6.99996 8.16732L7.81138 6.16182C7.85105 6.0609 7.87496 5.95007 7.87496 5.83398Z" fill="#D03B3D"/>
</svg>
