<svg width="20" height="20" viewBox="0 0 20 20" fill="none" xmlns="http://www.w3.org/2000/svg">
<path d="M15.5 18.3334H4.50003C4.23654 18.3334 3.97565 18.2813 3.73234 18.1802C3.48904 18.0791 3.26811 17.9308 3.08226 17.7441C2.89642 17.5573 2.74931 17.3356 2.64939 17.0918C2.54947 16.848 2.49871 16.5869 2.50003 16.3234V6.94339C2.50003 6.62505 2.65003 6.33172 2.90003 6.13922L9.38336 1.86755C9.55618 1.73708 9.76682 1.6665 9.98336 1.6665C10.1999 1.6665 10.4105 1.73708 10.5834 1.86755L17.1 6.13922C17.35 6.33172 17.5 6.62505 17.5 6.94339V16.3234C17.5013 16.5869 17.4506 16.848 17.3507 17.0918C17.2507 17.3356 17.1036 17.5573 16.9178 17.7441C16.7319 17.9308 16.511 18.0791 16.2677 18.1802C16.0244 18.2813 15.7635 18.3334 15.5 18.3334Z" stroke="white" stroke-width="1.5" stroke-miterlimit="10" stroke-linejoin="round"/>
<path d="M8.16667 10H11.8333C12.2 10 12.5 10.3 12.5 10.6667V18.3333H7.5V10.6667C7.5 10.3 7.8 10 8.16667 10Z" stroke="white" stroke-width="1.5" stroke-miterlimit="10" stroke-linejoin="round"/>
</svg>
