<svg width="17" height="18" viewBox="0 0 17 18" fill="none" xmlns="http://www.w3.org/2000/svg">
<path d="M7.79175 9.70836H4.25008C4.04939 9.70836 3.88128 9.64036 3.74575 9.50436C3.61022 9.36836 3.54222 9.20025 3.54175 9.00002C3.54128 8.7998 3.60928 8.63169 3.74575 8.49569C3.88222 8.35969 4.05033 8.29169 4.25008 8.29169H7.79175V4.75002C7.79175 4.54933 7.85975 4.38122 7.99575 4.24569C8.13175 4.11016 8.29986 4.04216 8.50008 4.04169C8.70031 4.04122 8.86865 4.10922 9.00513 4.24569C9.1416 4.38216 9.20936 4.55027 9.20842 4.75002V8.29169H12.7501C12.9508 8.29169 13.1191 8.35969 13.2551 8.49569C13.3911 8.63169 13.4589 8.7998 13.4584 9.00002C13.4579 9.20025 13.3899 9.36859 13.2544 9.50506C13.1189 9.64154 12.9508 9.7093 12.7501 9.70836H9.20842V13.25C9.20842 13.4507 9.14042 13.6191 9.00442 13.7551C8.86842 13.8911 8.70031 13.9588 8.50008 13.9584C8.29986 13.9579 8.13175 13.8899 7.99575 13.7544C7.85975 13.6188 7.79175 13.4507 7.79175 13.25V9.70836Z" fill="white"/>
</svg>
