<svg width="24" height="24" viewBox="0 0 24 24" fill="none" xmlns="http://www.w3.org/2000/svg">
<path d="M21.0843 11.5801H19.0613M19.0613 11.5801C19.0613 13.4583 18.3157 15.259 16.9876 16.5871C15.6595 17.9151 13.8583 18.6612 11.9801 18.6612M19.0613 11.5801C19.0613 9.70196 18.3157 7.90025 16.9876 6.57219C15.6595 5.24413 13.8583 4.49899 11.9801 4.49899M11.9801 2.47595V4.49899M11.9801 4.49899C10.1021 4.49899 8.301 5.24408 6.97303 6.57205C5.64506 7.90002 4.89902 9.70113 4.89902 11.5792C4.89902 13.4572 5.64506 15.2583 6.97303 16.5863C8.301 17.9142 10.1021 18.6612 11.9801 18.6612M2.87598 11.5801H4.89902M11.9801 20.6843V18.6612" stroke="white" stroke-width="1.6" stroke-miterlimit="10" stroke-linecap="round"/>
<path d="M11.9802 15.6262C13.0533 15.6262 14.0824 15.1999 14.8412 14.4412C15.6 13.6824 16.0262 12.6532 16.0262 11.5801C16.0262 10.5071 15.6 9.47792 14.8412 8.71913C14.0824 7.96034 13.0533 7.53406 11.9802 7.53406C10.9071 7.53406 9.87794 7.96034 9.11915 8.71913C8.36036 9.47792 7.93408 10.5071 7.93408 11.5801C7.93408 12.6532 8.36036 13.6824 9.11915 14.4412C9.87794 15.1999 10.9071 15.6262 11.9802 15.6262Z" stroke="white" stroke-width="1.6" stroke-miterlimit="10" stroke-linecap="round"/>
</svg>
