<svg width="23" height="23" viewBox="0 0 23 23" fill="none" xmlns="http://www.w3.org/2000/svg">
<path d="M17.6656 4.11888H15.8487V3.21044C15.8487 2.96951 15.753 2.73844 15.5827 2.56808C15.4123 2.39771 15.1812 2.302 14.9403 2.302C14.6994 2.302 14.4683 2.39771 14.2979 2.56808C14.1276 2.73844 14.0319 2.96951 14.0319 3.21044V4.11888H8.58123V3.21044C8.58123 2.96951 8.48552 2.73844 8.31516 2.56808C8.14479 2.39771 7.91373 2.302 7.67279 2.302C7.43186 2.302 7.2008 2.39771 7.03043 2.56808C6.86007 2.73844 6.76436 2.96951 6.76436 3.21044V4.11888H4.94748C4.22468 4.11888 3.53149 4.40601 3.02039 4.9171C2.5093 5.4282 2.22217 6.12139 2.22217 6.84419V17.7454C2.22217 18.4682 2.5093 19.1614 3.02039 19.6725C3.53149 20.1836 4.22468 20.4708 4.94748 20.4708H17.6656C18.3884 20.4708 19.0816 20.1836 19.5927 19.6725C20.1038 19.1614 20.3909 18.4682 20.3909 17.7454V6.84419C20.3909 6.12139 20.1038 5.4282 19.5927 4.9171C19.0816 4.40601 18.3884 4.11888 17.6656 4.11888ZM18.574 17.7454C18.574 17.9864 18.4783 18.2174 18.308 18.3878C18.1376 18.5582 17.9065 18.6539 17.6656 18.6539H4.94748C4.70655 18.6539 4.47548 18.5582 4.30512 18.3878C4.13475 18.2174 4.03904 17.9864 4.03904 17.7454V11.3864H18.574V17.7454ZM18.574 9.5695H4.03904V6.84419C4.03904 6.60326 4.13475 6.37219 4.30512 6.20183C4.47548 6.03146 4.70655 5.93575 4.94748 5.93575H6.76436V6.84419C6.76436 7.08512 6.86007 7.31619 7.03043 7.48655C7.2008 7.65692 7.43186 7.75263 7.67279 7.75263C7.91373 7.75263 8.14479 7.65692 8.31516 7.48655C8.48552 7.31619 8.58123 7.08512 8.58123 6.84419V5.93575H14.0319V6.84419C14.0319 7.08512 14.1276 7.31619 14.2979 7.48655C14.4683 7.65692 14.6994 7.75263 14.9403 7.75263C15.1812 7.75263 15.4123 7.65692 15.5827 7.48655C15.753 7.31619 15.8487 7.08512 15.8487 6.84419V5.93575H17.6656C17.9065 5.93575 18.1376 6.03146 18.308 6.20183C18.4783 6.37219 18.574 6.60326 18.574 6.84419V9.5695Z" fill="white"/>
</svg>
