<svg width="17" height="18" viewBox="0 0 17 18" fill="none" xmlns="http://www.w3.org/2000/svg">
<path d="M8.46442 12.87C8.71234 12.87 8.92201 12.7842 9.09342 12.6128C9.26484 12.4414 9.35031 12.232 9.34984 11.9845C9.34937 11.7371 9.26389 11.5274 9.09342 11.3555C8.92295 11.1836 8.71328 11.0982 8.46442 11.0991C8.21556 11.1001 8.00613 11.1858 7.83613 11.3562C7.66613 11.5267 7.58042 11.7361 7.579 11.9845C7.57759 12.2329 7.6633 12.4426 7.83613 12.6135C8.00896 12.7845 8.21839 12.87 8.46442 12.87ZM8.49984 15.7033C7.51998 15.7033 6.59914 15.5172 5.73734 15.1451C4.87553 14.773 4.12588 14.2684 3.48838 13.6314C2.85088 12.9944 2.34631 12.2447 1.97467 11.3825C1.60303 10.5202 1.41698 9.59934 1.4165 8.61995C1.41603 7.64057 1.60209 6.71973 1.97467 5.85745C2.34725 4.99518 2.85182 4.24552 3.48838 3.6085C4.12494 2.97147 4.87459 2.4669 5.73734 2.09479C6.60009 1.72268 7.52092 1.53662 8.49984 1.53662C9.47875 1.53662 10.3996 1.72268 11.2623 2.09479C12.1251 2.4669 12.8747 2.97147 13.5113 3.6085C14.1479 4.24552 14.6527 4.99518 15.0257 5.85745C15.3988 6.71973 15.5846 7.64057 15.5832 8.61995C15.5818 9.59934 15.3957 10.5202 15.025 11.3825C14.6543 12.2447 14.1497 12.9944 13.5113 13.6314C12.8729 14.2684 12.1232 14.7732 11.2623 15.1458C10.4015 15.5184 9.48064 15.7042 8.49984 15.7033ZM8.49984 14.2866C10.0818 14.2866 11.4217 13.7377 12.5196 12.6397C13.6175 11.5418 14.1665 10.2019 14.1665 8.61995C14.1665 7.03801 13.6175 5.69808 12.5196 4.60016C11.4217 3.50225 10.0818 2.95329 8.49984 2.95329C6.91789 2.95329 5.57796 3.50225 4.48005 4.60016C3.38213 5.69808 2.83317 7.03801 2.83317 8.61995C2.83317 10.2019 3.38213 11.5418 4.48005 12.6397C5.57796 13.7377 6.91789 14.2866 8.49984 14.2866ZM8.57067 5.57412C8.86581 5.57412 9.1227 5.66857 9.34134 5.85745C9.55998 6.04634 9.66906 6.28245 9.66859 6.56579C9.66859 6.82551 9.58902 7.05572 9.42988 7.25641C9.27074 7.45711 9.09059 7.646 8.88942 7.82308C8.61789 8.05919 8.37895 8.31891 8.17259 8.60225C7.96623 8.88558 7.86281 9.20433 7.86234 9.5585C7.86234 9.72377 7.92444 9.86261 8.04863 9.975C8.17282 10.0874 8.31732 10.1433 8.48213 10.1429C8.65921 10.1429 8.80985 10.0838 8.93405 9.96579C9.05824 9.84773 9.13781 9.70016 9.17275 9.52308C9.21998 9.27516 9.32623 9.05393 9.4915 8.85937C9.65678 8.66482 9.83387 8.47876 10.0228 8.3012C10.2943 8.04148 10.5276 7.75815 10.7226 7.4512C10.9176 7.14426 11.0149 6.8019 11.0144 6.42412C11.0144 5.82204 10.7696 5.32927 10.2799 4.94583C9.79018 4.56239 9.22045 4.37043 8.57067 4.36995C8.12206 4.36995 7.69423 4.4644 7.28717 4.65329C6.88012 4.84218 6.5701 5.13141 6.35713 5.521C6.27449 5.66266 6.24805 5.8133 6.2778 5.97291C6.30755 6.13252 6.38712 6.25341 6.51651 6.33558C6.68178 6.43002 6.85296 6.45954 7.03005 6.42412C7.20713 6.3887 7.3547 6.28836 7.47275 6.12308C7.60262 5.946 7.76506 5.81023 7.96009 5.71579C8.15512 5.62134 8.35864 5.57412 8.57067 5.57412Z" fill="white"/>
</svg>
