<svg width="16" height="17" viewBox="0 0 16 17" fill="none" xmlns="http://www.w3.org/2000/svg">
<path d="M10.833 14.125V10.9483C10.8328 10.809 10.8052 10.6711 10.7517 10.5425C10.6982 10.4139 10.6198 10.297 10.5211 10.1987C10.4224 10.1004 10.3053 10.0225 10.1765 9.96947C10.0477 9.91644 9.90965 9.88932 9.77034 9.88967H6.22901C6.08969 9.88932 5.95168 9.91644 5.82285 9.96947C5.69403 10.0225 5.57692 10.1004 5.47822 10.1987C5.37953 10.297 5.30118 10.4139 5.24767 10.5425C5.19415 10.6711 5.16652 10.809 5.16634 10.9483V14.125M10.833 2.31501V3.88967C10.8328 4.02899 10.8052 4.1669 10.7517 4.29552C10.6982 4.42415 10.6198 4.54096 10.5211 4.63929C10.4224 4.73761 10.3053 4.81552 10.1765 4.86855C10.0477 4.92158 9.90965 4.94869 9.77034 4.94834H6.22901C6.08969 4.94869 5.95168 4.92158 5.82285 4.86855C5.69403 4.81552 5.57692 4.73761 5.47822 4.63929C5.37953 4.54096 5.30118 4.42415 5.24767 4.29552C5.19415 4.1669 5.16652 4.02899 5.16634 3.88967V2.12501M10.833 2.31501C10.5565 2.1898 10.2565 2.12502 9.95301 2.12501H5.16634M10.833 2.31501C11.0623 2.41901 11.2737 2.56434 11.4557 2.74501L13.0437 4.32834C13.2409 4.52455 13.3974 4.75776 13.5042 5.0146C13.6111 5.27143 13.6662 5.54683 13.6663 5.82501V12.0063C13.6662 12.285 13.611 12.5609 13.5041 12.8183C13.3972 13.0757 13.2406 13.3094 13.0433 13.5062C12.8459 13.703 12.6118 13.8589 12.3541 13.9651C12.0964 14.0713 11.8204 14.1256 11.5417 14.125H4.45834C4.17966 14.1257 3.90357 14.0715 3.64588 13.9654C3.38818 13.8593 3.15393 13.7034 2.95653 13.5067C2.75913 13.3099 2.60246 13.0762 2.49547 12.8189C2.38848 12.5616 2.33327 12.2857 2.33301 12.007V4.24234C2.33336 3.96371 2.38863 3.68789 2.49566 3.43064C2.60269 3.17339 2.75938 2.93976 2.95677 2.74311C3.15416 2.54646 3.38838 2.39065 3.64603 2.28459C3.90368 2.17854 4.17971 2.12431 4.45834 2.12501H5.16634" stroke="white" stroke-width="1.2" stroke-linecap="round" stroke-linejoin="round"/>
</svg>
