<svg width="16" height="17" viewBox="0 0 16 17" fill="none" xmlns="http://www.w3.org/2000/svg">
<path d="M12.6668 8.12016C12.6668 8.29697 12.5966 8.46654 12.4716 8.59156C12.3465 8.71659 12.177 8.78682 12.0002 8.78682C11.8234 8.78682 11.6538 8.71659 11.5288 8.59156C11.4037 8.46654 11.3335 8.29697 11.3335 8.12016C11.3335 7.94335 11.4037 7.77378 11.5288 7.64875C11.6538 7.52373 11.8234 7.45349 12.0002 7.45349C12.177 7.45349 12.3465 7.52373 12.4716 7.64875C12.5966 7.77378 12.6668 7.94335 12.6668 8.12016Z" fill="#E4EDF0"/>
<path fill-rule="evenodd" clip-rule="evenodd" d="M6.6295 2.28674H8.70416C9.9295 2.28674 10.9002 2.28674 11.6595 2.38874C12.4408 2.49408 13.0735 2.71541 13.5728 3.21408C14.1888 3.83074 14.3855 4.65608 14.4568 5.72741C14.8415 5.89608 15.1322 6.25408 15.1635 6.70741C15.1668 6.74808 15.1668 6.79141 15.1668 6.83141V9.40874C15.1668 9.44874 15.1668 9.49208 15.1642 9.53208C15.1322 9.98541 14.8415 10.3441 14.4568 10.5134C14.3855 11.5841 14.1888 12.4094 13.5728 13.0261C13.0735 13.5247 12.4408 13.7461 11.6595 13.8514C10.8995 13.9534 9.9295 13.9534 8.70416 13.9534H6.6295C5.40416 13.9534 4.4335 13.9534 3.67416 13.8514C2.89283 13.7461 2.26016 13.5247 1.76083 13.0261C1.26216 12.5267 1.04083 11.8941 0.935496 11.1127C0.833496 10.3527 0.833496 9.38274 0.833496 8.15741V8.08274C0.833496 6.85741 0.833496 5.88674 0.935496 5.12741C1.04083 4.34608 1.26216 3.71341 1.76083 3.21408C2.26016 2.71541 2.89283 2.49408 3.67416 2.38874C4.43416 2.28674 5.40416 2.28674 6.6295 2.28674ZM13.4455 10.6201H12.1535C10.7235 10.6201 9.4995 9.53474 9.4995 8.12008C9.4995 6.70541 10.7235 5.62008 12.1528 5.62008H13.4448C13.3688 4.72608 13.1975 4.25341 12.8648 3.92141C12.5828 3.63941 12.1962 3.47008 11.5255 3.38008C10.8408 3.28808 9.9375 3.28674 8.66616 3.28674H6.66616C5.39483 3.28674 4.49216 3.28808 3.80616 3.38008C3.13616 3.47008 2.7495 3.63941 2.4675 3.92141C2.1855 4.20341 2.01683 4.59008 1.92683 5.26008C1.83483 5.94541 1.8335 6.84808 1.8335 8.11941C1.8335 9.39074 1.83483 10.2941 1.92683 10.9794C2.01683 11.6494 2.18616 12.0361 2.46816 12.3181C2.75016 12.6001 3.13683 12.7694 3.8075 12.8594C4.49283 12.9514 5.3955 12.9527 6.66683 12.9527H8.66683C9.93816 12.9527 10.8415 12.9514 11.5268 12.8594C12.1968 12.7694 12.5835 12.6001 12.8655 12.3181C13.1982 11.9861 13.3695 11.5141 13.4455 10.6194M3.50016 5.45341C3.50016 5.3208 3.55284 5.19362 3.64661 5.09986C3.74038 5.00609 3.86755 4.95341 4.00016 4.95341H6.66683C6.79944 4.95341 6.92661 5.00609 7.02038 5.09986C7.11415 5.19362 7.16683 5.3208 7.16683 5.45341C7.16683 5.58602 7.11415 5.71319 7.02038 5.80696C6.92661 5.90073 6.79944 5.95341 6.66683 5.95341H4.00016C3.86755 5.95341 3.74038 5.90073 3.64661 5.80696C3.55284 5.71319 3.50016 5.58602 3.50016 5.45341ZM13.9495 6.62008H12.1535C11.2042 6.62008 10.4995 7.32608 10.4995 8.12008C10.4995 8.91408 11.2042 9.62008 12.1528 9.62008H13.9648C14.1022 9.61141 14.1615 9.51874 14.1662 9.46274V6.77741C14.1615 6.72141 14.1022 6.62874 13.9648 6.62074L13.9495 6.62008Z" fill="#E4EDF0"/>
</svg>
