<svg width="22" height="18" viewBox="0 0 22 18" fill="none" xmlns="http://www.w3.org/2000/svg">
<path d="M3.86375 16.2149C3.36411 16.2149 2.93654 16.0372 2.58104 15.6817C2.22553 15.3262 2.04748 14.8983 2.04688 14.3981V3.49681C2.04688 2.99717 2.22493 2.56959 2.58104 2.21409C2.93714 1.85859 3.36472 1.68054 3.86375 1.67993H18.3988C18.8984 1.67993 19.3263 1.85799 19.6824 2.21409C20.0385 2.5702 20.2162 2.99777 20.2156 3.49681V14.3981C20.2156 14.8977 20.0379 15.3256 19.6824 15.6817C19.3269 16.0378 18.899 16.2155 18.3988 16.2149H3.86375ZM18.3988 5.31368L11.6082 9.56063C11.5325 9.60605 11.4531 9.64027 11.3702 9.66328C11.2872 9.68629 11.2076 9.6975 11.1313 9.69689C11.0549 9.69629 10.9756 9.68508 10.8932 9.66328C10.8109 9.64148 10.7312 9.60726 10.6543 9.56063L3.86375 5.31368V14.3981H18.3988V5.31368ZM11.1313 8.03899L18.3988 3.49681H3.86375L11.1313 8.03899ZM3.86375 5.54079V4.20085V4.22356V4.21266V5.54079Z" fill="white"/>
</svg>
