<svg width="23" height="23" viewBox="0 0 23 23" fill="none" xmlns="http://www.w3.org/2000/svg">
<path d="M15.6692 4.41945C15.5852 4.30184 15.4744 4.20595 15.346 4.13975C15.2175 4.07355 15.0751 4.03895 14.9306 4.03882H3.12093C2.95411 4.03897 2.79055 4.08505 2.64819 4.17202C2.50582 4.25898 2.39016 4.38346 2.31387 4.53182C2.23758 4.68017 2.20361 4.84667 2.2157 5.01305C2.22778 5.17944 2.28544 5.33928 2.38237 5.47506L6.54665 11.3063L2.38146 17.1376C2.28449 17.2734 2.22682 17.4333 2.21477 17.5998C2.20273 17.7663 2.23677 17.9328 2.31317 18.0812C2.38957 18.2296 2.50537 18.3541 2.64786 18.441C2.79035 18.5279 2.95403 18.5738 3.12093 18.5738H14.9306C15.0751 18.5737 15.2175 18.5391 15.346 18.4729C15.4744 18.4067 15.5852 18.3108 15.6692 18.1932L20.2114 11.8341C20.3213 11.6801 20.3804 11.4956 20.3804 11.3063C20.3804 11.1171 20.3213 10.9325 20.2114 10.7785L15.6692 4.41945ZM14.4628 16.7569H4.88602L8.40167 11.8341C8.51163 11.6801 8.57073 11.4956 8.57073 11.3063C8.57073 11.1171 8.51163 10.9325 8.40167 10.7785L4.88602 5.85569H14.4628L18.3563 11.3063L14.4628 16.7569Z" fill="white"/>
</svg>
