<svg width="23" height="23" viewBox="0 0 23 23" fill="none" xmlns="http://www.w3.org/2000/svg">
<path d="M13.3332 11.08H18.8332M13.3332 14.7467H18.8332M13.3332 18.4134H18.8332M4.1665 4.66337C4.1665 4.42026 4.26308 4.1871 4.43499 4.01519C4.6069 3.84328 4.84006 3.7467 5.08317 3.7467H17.9165C18.1596 3.7467 18.3928 3.84328 18.5647 4.01519C18.7366 4.1871 18.8332 4.42026 18.8332 4.66337V6.4967C18.8332 6.73982 18.7366 6.97298 18.5647 7.14488C18.3928 7.31679 18.1596 7.41337 17.9165 7.41337H5.08317C4.84006 7.41337 4.6069 7.31679 4.43499 7.14488C4.26308 6.97298 4.1665 6.73982 4.1665 6.4967V4.66337ZM4.1665 11.9967C4.1665 11.7536 4.26308 11.5204 4.43499 11.3485C4.6069 11.1766 4.84006 11.08 5.08317 11.08H8.74984C8.99295 11.08 9.22611 11.1766 9.39802 11.3485C9.56993 11.5204 9.6665 11.7536 9.6665 11.9967V17.4967C9.6665 17.7398 9.56993 17.973 9.39802 18.1449C9.22611 18.3168 8.99295 18.4134 8.74984 18.4134H5.08317C4.84006 18.4134 4.6069 18.3168 4.43499 18.1449C4.26308 17.973 4.1665 17.7398 4.1665 17.4967V11.9967Z" stroke="white" stroke-width="1.4" stroke-linecap="round" stroke-linejoin="round"/>
</svg>
