<svg width="17" height="18" viewBox="0 0 17 18" fill="none" xmlns="http://www.w3.org/2000/svg">
<path d="M7.08317 6.49504C7.08317 6.11931 7.23243 5.75898 7.4981 5.4933C7.76378 5.22762 8.12411 5.07837 8.49984 5.07837C8.87556 5.07837 9.23589 5.22762 9.50157 5.4933C9.76725 5.75898 9.9165 6.11931 9.9165 6.49504C9.9165 6.87076 9.76725 7.23109 9.50157 7.49677C9.23589 7.76245 8.87556 7.9117 8.49984 7.9117C8.12411 7.9117 7.76378 7.76245 7.4981 7.49677C7.23243 7.23109 7.08317 6.87076 7.08317 6.49504ZM7.7915 8.9742C7.22792 8.9742 6.68742 9.19809 6.2889 9.5966C5.89039 9.99511 5.6665 10.5356 5.6665 11.0992C5.6665 11.2871 5.74113 11.4672 5.87397 11.6001C6.00681 11.7329 6.18698 11.8075 6.37484 11.8075H10.6248C10.8127 11.8075 10.9929 11.7329 11.1257 11.6001C11.2585 11.4672 11.3332 11.2871 11.3332 11.0992C11.3332 10.5356 11.1093 9.99511 10.7108 9.5966C10.3123 9.19809 9.77176 8.9742 9.20817 8.9742H7.7915Z" fill="white"/>
<path fill-rule="evenodd" clip-rule="evenodd" d="M5.34318 2.16215C7.43686 1.86099 9.56287 1.86099 11.6566 2.16215C12.1609 2.23435 12.6262 2.47459 12.9772 2.84402C13.3281 3.21346 13.5441 3.69047 13.5903 4.1979L13.6796 5.18674C13.8871 7.47111 13.8871 9.76966 13.6796 12.0533L13.5896 13.0422C13.5429 13.5493 13.3268 14.026 12.9762 14.3953C12.6255 14.7646 12.1606 15.0051 11.6566 15.0779C9.56287 15.3791 7.43686 15.3791 5.34318 15.0779C4.83924 15.0049 4.37455 14.7644 4.024 14.3951C3.67345 14.0258 3.45746 13.5492 3.41084 13.0422L3.32088 12.0533C3.11309 9.76918 3.11309 7.47088 3.32088 5.18674L3.41084 4.1979C3.45746 3.69085 3.67345 3.21427 4.024 2.84495C4.37455 2.47564 4.83924 2.23512 5.34318 2.16215ZM11.5057 3.21332C9.5123 2.92658 7.48814 2.92658 5.49476 3.21332C5.22729 3.25224 4.9807 3.38002 4.79465 3.57608C4.60861 3.77214 4.49394 4.0251 4.46909 4.29424L4.37913 5.28307C4.17718 7.50313 4.17718 9.73693 4.37913 11.957L4.46909 12.9458C4.51868 13.5004 4.94368 13.9474 5.49476 14.0267C7.48821 14.3125 9.51223 14.3125 11.5057 14.0267C11.7733 13.9883 12.0202 13.8607 12.2063 13.6645C12.3925 13.4684 12.507 13.2151 12.5313 12.9458L12.6213 11.957C12.8233 9.73693 12.8233 7.50313 12.6213 5.28307L12.5313 4.29424C12.5065 4.0251 12.3918 3.77214 12.2058 3.57608C12.0197 3.38002 11.7731 3.25224 11.5057 3.21332Z" fill="white"/>
</svg>
