<svg width="14" height="15" viewBox="0 0 14 15" fill="none" xmlns="http://www.w3.org/2000/svg">
<g clip-path="url(#clip0_843_83506)">
<path fill-rule="evenodd" clip-rule="evenodd" d="M1.249 7.62099C1.24875 6.40519 1.63383 5.22058 2.34892 4.23731C3.06401 3.25404 4.07233 2.52268 5.22905 2.14829C6.38578 1.7739 7.6314 1.77573 8.78702 2.15352C9.94264 2.53131 10.9488 3.26562 11.661 4.25099L11.146 4.76599C11.0759 4.83592 11.0281 4.92509 11.0088 5.0222C10.9894 5.11931 10.9993 5.21998 11.0372 5.31146C11.0751 5.40293 11.1394 5.48109 11.2217 5.53601C11.3041 5.59094 11.401 5.62017 11.5 5.61999H13.5C13.6326 5.61999 13.7598 5.56732 13.8536 5.47355C13.9473 5.37978 14 5.2526 14 5.11999V3.11999C14.0002 3.02097 13.9709 2.92413 13.916 2.84174C13.8611 2.75935 13.7829 2.69513 13.6915 2.65721C13.6 2.61929 13.4993 2.60939 13.4022 2.62876C13.3051 2.64812 13.2159 2.69589 13.146 2.76599L12.554 3.35899C11.6634 2.19905 10.4319 1.34711 9.03241 0.922778C7.63291 0.498444 6.13566 0.523015 4.75084 0.993043C3.36602 1.46307 2.16315 2.35495 1.31109 3.5435C0.459023 4.73205 0.000540698 6.15758 0 7.61999C0 7.78575 0.065848 7.94473 0.183058 8.06194C0.300269 8.17915 0.45924 8.24499 0.625 8.24499C0.79076 8.24499 0.949731 8.17915 1.06694 8.06194C1.18415 7.94473 1.25 7.78575 1.25 7.61999M7 3.49499C7.345 3.49499 7.625 3.77499 7.625 4.11999V4.67699C7.9525 4.72044 8.26158 4.85367 8.51803 5.06194C8.77448 5.27021 8.96829 5.54538 9.078 5.85699C9.10856 5.93507 9.12309 6.01849 9.12074 6.1023C9.11839 6.18611 9.0992 6.26859 9.06431 6.34483C9.02942 6.42107 8.97956 6.48951 8.91767 6.54608C8.85579 6.60265 8.78316 6.64619 8.7041 6.6741C8.62505 6.70202 8.54118 6.71375 8.4575 6.70859C8.37381 6.70342 8.29202 6.68148 8.217 6.64405C8.14197 6.60663 8.07524 6.55449 8.02079 6.49074C7.96633 6.427 7.92525 6.35294 7.9 6.27299C7.86284 6.16722 7.79367 6.07564 7.70211 6.01095C7.61054 5.94626 7.50111 5.91168 7.389 5.91199H6.486C6.38281 5.91099 6.28293 5.94838 6.20577 6.0169C6.1286 6.08542 6.07966 6.18017 6.06844 6.28275C6.05722 6.38533 6.08453 6.48843 6.14506 6.572C6.2056 6.65557 6.29503 6.71367 6.396 6.73499L7.772 7.03499C8.18445 7.12452 8.55207 7.35674 8.81008 7.69076C9.06808 8.02477 9.19992 8.43913 9.18235 8.86082C9.16478 9.28251 8.99893 9.68447 8.71403 9.99586C8.42914 10.3073 8.04347 10.5081 7.625 10.563V11.12C7.625 11.2858 7.55915 11.4447 7.44194 11.5619C7.32473 11.6791 7.16576 11.745 7 11.745C6.83424 11.745 6.67527 11.6791 6.55806 11.5619C6.44085 11.4447 6.375 11.2858 6.375 11.12V10.563C6.0475 10.5195 5.73842 10.3863 5.48197 10.178C5.22552 9.96978 5.03171 9.69461 4.922 9.38299C4.89144 9.30492 4.87691 9.22149 4.87926 9.13768C4.88161 9.05388 4.9008 8.9714 4.93569 8.89516C4.97057 8.81892 5.02044 8.75048 5.08233 8.69391C5.14421 8.63734 5.21684 8.5938 5.2959 8.56588C5.37496 8.53796 5.45882 8.52624 5.5425 8.5314C5.62619 8.53656 5.70797 8.55851 5.783 8.59594C5.85803 8.63336 5.92475 8.6855 5.97921 8.74925C6.03367 8.81299 6.07475 8.88704 6.1 8.96699C6.13716 9.07277 6.20633 9.16435 6.29789 9.22904C6.38946 9.29373 6.49889 9.32831 6.611 9.32799H7.389C7.5223 9.32751 7.65075 9.27792 7.74979 9.18869C7.84883 9.09947 7.91152 8.97689 7.92587 8.84436C7.94022 8.71183 7.90524 8.57867 7.82759 8.47031C7.74995 8.36195 7.6351 8.28601 7.505 8.25699L6.13 7.95599C5.73784 7.87038 5.38978 7.64605 5.14982 7.32427C4.90987 7.00249 4.79415 6.6049 4.82396 6.20461C4.85377 5.80432 5.0271 5.42826 5.31207 5.14557C5.59703 4.86288 5.97448 4.69258 6.375 4.66599V4.11999C6.375 3.77499 6.655 3.49499 7 3.49499ZM0.309 12.582C0.217564 12.5442 0.139396 12.4801 0.0843905 12.3979C0.0293854 12.3156 1.60608e-05 12.2189 0 12.12L0 10.12C0 9.98739 0.0526784 9.86021 0.146447 9.76644C0.240215 9.67267 0.367392 9.61999 0.5 9.61999H2.5C2.59902 9.61982 2.69586 9.64904 2.77825 9.70397C2.86064 9.7589 2.92487 9.83706 2.96278 9.92853C3.0007 10.02 3.0106 10.1207 2.99124 10.2178C2.97187 10.3149 2.92411 10.4041 2.854 10.474L2.339 10.988C3.0512 11.9734 4.05736 12.7077 5.21298 13.0855C6.3686 13.4633 7.61422 13.4651 8.77095 13.0907C9.92767 12.7163 10.936 11.985 11.6511 11.0017C12.3662 10.0184 12.7512 8.8338 12.751 7.61799C12.7511 7.53592 12.7673 7.45466 12.7988 7.37885C12.8302 7.30305 12.8763 7.23419 12.9344 7.1762C12.9925 7.11821 13.0614 7.07223 13.1373 7.04088C13.2131 7.00953 13.2944 6.99343 13.3765 6.99349C13.4586 6.99356 13.5398 7.00979 13.6156 7.04126C13.6914 7.07273 13.7603 7.11882 13.8183 7.17691C13.8763 7.23499 13.9223 7.30392 13.9536 7.37978C13.985 7.45563 14.0011 7.53692 14.001 7.61899C14.0009 9.08175 13.5427 10.5077 12.6907 11.6967C11.8386 12.8857 10.6356 13.7779 9.25047 14.2481C7.86535 14.7183 6.36774 14.7429 4.96796 14.3183C3.56818 13.8938 2.33654 13.0414 1.446 11.881L0.854 12.474C0.784022 12.5439 0.694892 12.5914 0.597882 12.6107C0.500872 12.6299 0.40034 12.6199 0.309 12.582Z" fill="white"/>
</g>
<defs>
<clipPath id="clip0_843_83506">
<rect width="14" height="14" fill="white" transform="translate(0 0.619995)"/>
</clipPath>
</defs>
</svg>
