<svg width="17" height="17" viewBox="0 0 17 17" fill="none" xmlns="http://www.w3.org/2000/svg">
<path d="M13.4583 2.83335H12.0416V2.12502C12.0416 1.93716 11.967 1.75699 11.8342 1.62415C11.7013 1.49131 11.5212 1.41669 11.3333 1.41669C11.1454 1.41669 10.9653 1.49131 10.8324 1.62415C10.6996 1.75699 10.625 1.93716 10.625 2.12502V2.83335H6.37496V2.12502C6.37496 1.93716 6.30033 1.75699 6.16749 1.62415C6.03466 1.49131 5.85449 1.41669 5.66663 1.41669C5.47876 1.41669 5.2986 1.49131 5.16576 1.62415C5.03292 1.75699 4.95829 1.93716 4.95829 2.12502V2.83335H3.54163C2.97804 2.83335 2.43754 3.05724 2.03902 3.45575C1.64051 3.85427 1.41663 4.39477 1.41663 4.95835V13.4584C1.41663 14.0219 1.64051 14.5624 2.03902 14.961C2.43754 15.3595 2.97804 15.5834 3.54163 15.5834H13.4583C14.0219 15.5834 14.5624 15.3595 14.9609 14.961C15.3594 14.5624 15.5833 14.0219 15.5833 13.4584V4.95835C15.5833 4.39477 15.3594 3.85427 14.9609 3.45575C14.5624 3.05724 14.0219 2.83335 13.4583 2.83335ZM14.1666 13.4584C14.1666 13.6462 14.092 13.8264 13.9592 13.9592C13.8263 14.0921 13.6462 14.1667 13.4583 14.1667H3.54163C3.35376 14.1667 3.1736 14.0921 3.04076 13.9592C2.90792 13.8264 2.83329 13.6462 2.83329 13.4584V8.50002H14.1666V13.4584ZM14.1666 7.08335H2.83329V4.95835C2.83329 4.77049 2.90792 4.59032 3.04076 4.45749C3.1736 4.32465 3.35376 4.25002 3.54163 4.25002H4.95829V4.95835C4.95829 5.14622 5.03292 5.32638 5.16576 5.45922C5.2986 5.59206 5.47876 5.66669 5.66663 5.66669C5.85449 5.66669 6.03466 5.59206 6.16749 5.45922C6.30033 5.32638 6.37496 5.14622 6.37496 4.95835V4.25002H10.625V4.95835C10.625 5.14622 10.6996 5.32638 10.8324 5.45922C10.9653 5.59206 11.1454 5.66669 11.3333 5.66669C11.5212 5.66669 11.7013 5.59206 11.8342 5.45922C11.967 5.32638 12.0416 5.14622 12.0416 4.95835V4.25002H13.4583C13.6462 4.25002 13.8263 4.32465 13.9592 4.45749C14.092 4.59032 14.1666 4.77049 14.1666 4.95835V7.08335Z" fill="#014754"/>
</svg>
