<svg width="17" height="17" viewBox="0 0 17 17" fill="none" xmlns="http://www.w3.org/2000/svg">
<path d="M11.9092 3.1301C11.8438 3.0384 11.7574 2.96363 11.6572 2.91201C11.5571 2.86039 11.446 2.83341 11.3334 2.83331H2.12503C1.99495 2.83343 1.86742 2.86936 1.75642 2.93717C1.64542 3.00498 1.55523 3.10204 1.49574 3.21772C1.43626 3.3334 1.40977 3.46322 1.41919 3.59295C1.42862 3.72268 1.47358 3.84732 1.54915 3.95319L4.79615 8.49998L1.54844 13.0468C1.47284 13.1527 1.42787 13.2774 1.41847 13.4072C1.40908 13.537 1.43563 13.6669 1.4952 13.7826C1.55477 13.8983 1.64506 13.9953 1.75616 14.0631C1.86727 14.1308 1.99489 14.1667 2.12503 14.1666H11.3334C11.446 14.1665 11.5571 14.1396 11.6572 14.0879C11.7574 14.0363 11.8438 13.9616 11.9092 13.8699L15.4509 8.91152C15.5366 8.79142 15.5827 8.64754 15.5827 8.49998C15.5827 8.35242 15.5366 8.20854 15.4509 8.08844L11.9092 3.1301ZM10.9686 12.75H3.50132L6.24257 8.91152C6.3283 8.79142 6.37439 8.64754 6.37439 8.49998C6.37439 8.35242 6.3283 8.20854 6.24257 8.08844L3.50132 4.24998H10.9686L14.0045 8.49998L10.9686 12.75Z" fill="#03333C"/>
</svg>
