<svg width="29" height="29" viewBox="0 0 29 29" fill="none" xmlns="http://www.w3.org/2000/svg">
<path d="M20.1875 23.2667C21.3795 23.2667 22.3458 22.3003 22.3458 21.1083C22.3458 19.9163 21.3795 18.95 20.1875 18.95C18.9955 18.95 18.0292 19.9163 18.0292 21.1083C18.0292 22.3003 18.9955 23.2667 20.1875 23.2667Z" stroke="#014754" stroke-width="1.5" stroke-linecap="round" stroke-linejoin="round"/>
<path d="M9.39582 23.2667C10.5878 23.2667 11.5542 22.3003 11.5542 21.1083C11.5542 19.9163 10.5878 18.95 9.39582 18.95C8.20381 18.95 7.23749 19.9163 7.23749 21.1083C7.23749 22.3003 8.20381 23.2667 9.39582 23.2667Z" stroke="#014754" stroke-width="1.5" stroke-linecap="round" stroke-linejoin="round"/>
<path d="M7.2375 21.0781C6.05365 21.0198 5.31658 20.8439 4.78995 20.3184C4.26332 19.7928 4.08849 19.0547 4.03022 17.8708M11.5542 21.1083H18.0292M22.3458 21.0781C23.5297 21.0198 24.2668 20.8439 24.7934 20.3184C25.5833 19.5274 25.5833 18.2561 25.5833 15.7125V13.5542H20.5113C19.7073 13.5542 19.3058 13.5542 18.981 13.4484C18.6571 13.3432 18.3627 13.1627 18.1218 12.9219C17.881 12.6811 17.7006 12.3867 17.5953 12.0628C17.4896 11.7379 17.4896 11.3365 17.4896 10.5325C17.4896 9.32707 17.4896 8.7249 17.3309 8.23711C17.1731 7.75124 16.9024 7.30964 16.5412 6.94839C16.1799 6.58715 15.7383 6.31652 15.2525 6.15864C14.7647 6 14.1625 6 12.9571 6H4M4 10.3167H10.475M4 13.5542H8.31667" stroke="#014754" stroke-width="1.5" stroke-linecap="round" stroke-linejoin="round"/>
<path d="M17.4896 8.15836H19.4547C21.026 8.15836 21.8105 8.15836 22.4494 8.54038C23.0894 8.92133 23.4617 9.61307 24.2063 10.9966L25.5833 13.5542" stroke="#014754" stroke-width="1.5" stroke-linecap="round" stroke-linejoin="round"/>
</svg>
