<svg width="13" height="13" viewBox="0 0 13 13" fill="none" xmlns="http://www.w3.org/2000/svg">
<path d="M3.25008 11.9167C2.95216 11.9167 2.69722 11.8107 2.48525 11.5987C2.27328 11.3867 2.16711 11.1316 2.16675 10.8333V2.16667C2.16675 1.86875 2.27291 1.61381 2.48525 1.40184C2.69758 1.18986 2.95253 1.0837 3.25008 1.08334H7.13654C7.28098 1.08334 7.41875 1.11042 7.54983 1.16459C7.68091 1.21875 7.79593 1.29549 7.89487 1.39479L10.522 4.02188C10.6213 4.12118 10.698 4.23638 10.7522 4.36746C10.8063 4.49854 10.8334 4.63613 10.8334 4.78021V10.8333C10.8334 11.1313 10.7274 11.3864 10.5155 11.5987C10.3035 11.811 10.0484 11.917 9.75008 11.9167H3.25008ZM7.04175 4.33334V2.16667H3.25008V10.8333H9.75008V4.875H7.58341C7.42994 4.875 7.30139 4.823 7.19775 4.719C7.09411 4.615 7.04211 4.48645 7.04175 4.33334Z" fill="#666666"/>
</svg>
