<svg width="15" height="15" viewBox="0 0 15 15" fill="none" xmlns="http://www.w3.org/2000/svg">
<g clip-path="url(#clip0_784_11382)">
<path d="M0.695984 3.24752V4.09802H8.77573V10.4768H6.15789C5.96823 9.74577 5.3108 9.20102 4.52323 9.20102C3.73567 9.20102 3.07823 9.74577 2.88857 10.4768H2.39698V8.35052H1.54648V11.3273H2.88857C3.07823 12.0583 3.73567 12.603 4.52323 12.603C5.3108 12.603 5.96823 12.0583 6.15789 11.3273H9.69257C9.88223 12.0583 10.5397 12.603 11.3272 12.603C12.1148 12.603 12.7722 12.0583 12.9619 11.3273H14.304V7.85894L14.2772 7.79217L13.4267 5.24067L13.3344 4.94852H9.62623V3.24752H0.695984ZM1.12123 4.94852V5.79902H4.94848V4.94852H1.12123ZM9.62623 5.79902H12.7225L13.4535 7.97843V10.4768H12.9619C12.7722 9.74577 12.1148 9.20102 11.3272 9.20102C10.5397 9.20102 9.88223 9.74577 9.69257 10.4768H9.62623V5.79902ZM1.54648 6.64952V7.50002H4.09798V6.64952H1.54648ZM4.52323 10.0515C4.99824 10.0515 5.37373 10.427 5.37373 10.902C5.37373 11.377 4.99824 11.7525 4.52323 11.7525C4.04823 11.7525 3.67273 11.377 3.67273 10.902C3.67273 10.427 4.04823 10.0515 4.52323 10.0515ZM11.3272 10.0515C11.8022 10.0515 12.1777 10.427 12.1777 10.902C12.1777 11.377 11.8022 11.7525 11.3272 11.7525C10.8522 11.7525 10.4767 11.377 10.4767 10.902C10.4767 10.427 10.8522 10.0515 11.3272 10.0515Z" fill="#5298A7"/>
</g>
<defs>
<clipPath id="clip0_784_11382">
<rect width="13.608" height="13.608" fill="white" transform="translate(0.695984 0.695999)"/>
</clipPath>
</defs>
</svg>
