<svg width="15" height="15" viewBox="0 0 15 15" fill="none" xmlns="http://www.w3.org/2000/svg">
<path fill-rule="evenodd" clip-rule="evenodd" d="M3.37931 2.55469H11.6211C12.0582 2.55469 12.4775 2.72835 12.7866 3.03748C13.0958 3.3466 13.2694 3.76587 13.2694 4.20304V10.7964C13.2694 11.2336 13.0958 11.6529 12.7866 11.962C12.4775 12.2711 12.0582 12.4448 11.6211 12.4448H3.37931C2.94214 12.4448 2.52287 12.2711 2.21375 11.962C1.90462 11.6529 1.73096 11.2336 1.73096 10.7964V4.20304C1.73096 3.76587 1.90462 3.3466 2.21375 3.03748C2.52287 2.72835 2.94214 2.55469 3.37931 2.55469Z" stroke="#032C33" stroke-linecap="round" stroke-linejoin="round"/>
<path d="M3.37933 8.32392H7.50021M3.37933 9.97227H7.50021M9.97274 4.20304H10.7969C11.0155 4.20304 11.2251 4.28987 11.3797 4.44444C11.5343 4.599 11.6211 4.80863 11.6211 5.02722V5.85139C11.6211 6.06998 11.5343 6.27961 11.3797 6.43417C11.2251 6.58874 11.0155 6.67557 10.7969 6.67557H9.97274C9.75416 6.67557 9.54452 6.58874 9.38996 6.43417C9.2354 6.27961 9.14856 6.06998 9.14856 5.85139V5.02722C9.14856 4.80863 9.2354 4.599 9.38996 4.44444C9.54452 4.28987 9.75416 4.20304 9.97274 4.20304Z" stroke="#032C33" stroke-linecap="round" stroke-linejoin="round"/>
</svg>
