<svg width="12" height="13" viewBox="0 0 12 13" fill="none" xmlns="http://www.w3.org/2000/svg">
<path d="M3.08342 5.33334C2.96804 5.33334 2.85526 5.36755 2.75933 5.43165C2.6634 5.49575 2.58864 5.58685 2.54449 5.69344C2.50033 5.80003 2.48878 5.91732 2.51129 6.03047C2.5338 6.14363 2.58936 6.24757 2.67094 6.32915C2.75252 6.41073 2.85646 6.46629 2.96961 6.4888C3.08277 6.5113 3.20006 6.49975 3.30665 6.4556C3.41324 6.41145 3.50434 6.33668 3.56844 6.24076C3.63254 6.14483 3.66675 6.03204 3.66675 5.91667C3.66675 5.76196 3.60529 5.61359 3.49589 5.50419C3.3865 5.3948 3.23812 5.33334 3.08342 5.33334ZM10.0834 3.00001H9.50008V1.25001C9.50008 1.0953 9.43862 0.946922 9.32923 0.837526C9.21983 0.72813 9.07146 0.666672 8.91675 0.666672H3.08342C2.92871 0.666672 2.78033 0.72813 2.67094 0.837526C2.56154 0.946922 2.50008 1.0953 2.50008 1.25001V3.00001H1.91675C1.45262 3.00001 1.0075 3.18438 0.679311 3.51257C0.351123 3.84076 0.166748 4.28588 0.166748 4.75001V8.25001C0.166748 8.71413 0.351123 9.15925 0.679311 9.48744C1.0075 9.81563 1.45262 10 1.91675 10H2.50008V11.75C2.50008 11.9047 2.56154 12.0531 2.67094 12.1625C2.78033 12.2719 2.92871 12.3333 3.08342 12.3333H8.91675C9.07146 12.3333 9.21983 12.2719 9.32923 12.1625C9.43862 12.0531 9.50008 11.9047 9.50008 11.75V10H10.0834C10.5475 10 10.9927 9.81563 11.3209 9.48744C11.649 9.15925 11.8334 8.71413 11.8334 8.25001V4.75001C11.8334 4.28588 11.649 3.84076 11.3209 3.51257C10.9927 3.18438 10.5475 3.00001 10.0834 3.00001ZM3.66675 1.83334H8.33342V3.00001H3.66675V1.83334ZM8.33342 11.1667H3.66675V8.83334H8.33342V11.1667ZM10.6667 8.25001C10.6667 8.40472 10.6053 8.55309 10.4959 8.66248C10.3865 8.77188 10.2381 8.83334 10.0834 8.83334H9.50008V8.25001C9.50008 8.0953 9.43862 7.94692 9.32923 7.83753C9.21983 7.72813 9.07146 7.66667 8.91675 7.66667H3.08342C2.92871 7.66667 2.78033 7.72813 2.67094 7.83753C2.56154 7.94692 2.50008 8.0953 2.50008 8.25001V8.83334H1.91675C1.76204 8.83334 1.61367 8.77188 1.50427 8.66248C1.39487 8.55309 1.33341 8.40472 1.33341 8.25001V4.75001C1.33341 4.5953 1.39487 4.44692 1.50427 4.33753C1.61367 4.22813 1.76204 4.16667 1.91675 4.16667H10.0834C10.2381 4.16667 10.3865 4.22813 10.4959 4.33753C10.6053 4.44692 10.6667 4.5953 10.6667 4.75001V8.25001Z" fill="#7F6DC3"/>
</svg>
