<svg width="15" height="15" viewBox="0 0 15 15" fill="none" xmlns="http://www.w3.org/2000/svg">
<g clip-path="url(#clip0_843_28185)">
<path d="M0.696045 3.24753V4.09803H8.77579V10.4768H6.15796C5.96829 9.74577 5.31086 9.20103 4.52329 9.20103C3.73573 9.20103 3.0783 9.74577 2.88863 10.4768H2.39704V8.35053H1.54654V11.3273H2.88863C3.0783 12.0583 3.73573 12.603 4.52329 12.603C5.31086 12.603 5.96829 12.0583 6.15796 11.3273H9.69263C9.8823 12.0583 10.5397 12.603 11.3273 12.603C12.1149 12.603 12.7723 12.0583 12.962 11.3273H14.304V7.85894L14.2773 7.79218L13.4268 5.24068L13.3345 4.94853H9.6263V3.24753H0.696045ZM1.12129 4.94853V5.79903H4.94854V4.94853H1.12129ZM9.6263 5.79903H12.7225L13.4535 7.97843V10.4768H12.962C12.7723 9.74577 12.1149 9.20103 11.3273 9.20103C10.5397 9.20103 9.8823 9.74577 9.69263 10.4768H9.6263V5.79903ZM1.54654 6.64953V7.50003H4.09804V6.64953H1.54654ZM4.52329 10.0515C4.9983 10.0515 5.3738 10.427 5.3738 10.902C5.3738 11.377 4.9983 11.7525 4.52329 11.7525C4.04829 11.7525 3.67279 11.377 3.67279 10.902C3.67279 10.427 4.04829 10.0515 4.52329 10.0515ZM11.3273 10.0515C11.8023 10.0515 12.1778 10.427 12.1778 10.902C12.1778 11.377 11.8023 11.7525 11.3273 11.7525C10.8523 11.7525 10.4768 11.377 10.4768 10.902C10.4768 10.427 10.8523 10.0515 11.3273 10.0515Z" fill="#5298A7"/>
</g>
<defs>
<clipPath id="clip0_843_28185">
<rect width="13.608" height="13.608" fill="white" transform="translate(0.696045 0.696014)"/>
</clipPath>
</defs>
</svg>
