<svg width="14" height="15" viewBox="0 0 14 15" fill="none" xmlns="http://www.w3.org/2000/svg">
<path d="M5.25001 9.9325L3.22585 7.90833C3.11678 7.79926 2.96885 7.73799 2.8146 7.73799C2.66035 7.73799 2.51242 7.79926 2.40335 7.90833C2.29428 8.0174 2.233 8.16533 2.233 8.31958C2.233 8.39596 2.24805 8.47159 2.27727 8.54215C2.3065 8.61271 2.34934 8.67683 2.40335 8.73083L4.84168 11.1692C5.06918 11.3967 5.43668 11.3967 5.66418 11.1692L11.8358 4.9975C11.9449 4.88843 12.0062 4.7405 12.0062 4.58625C12.0062 4.432 11.9449 4.28407 11.8358 4.175C11.7268 4.06593 11.5788 4.00465 11.4246 4.00465C11.2703 4.00465 11.1224 4.06593 11.0133 4.175L5.25001 9.9325Z" fill="#57B057"/>
</svg>
