<svg width="12" height="13" viewBox="0 0 12 13" fill="none" xmlns="http://www.w3.org/2000/svg">
<g clip-path="url(#clip0_784_16391)">
<path d="M2.81802 9.68198C2.40016 9.26412 2.06869 8.76804 1.84254 8.22208C1.6164 7.67611 1.5 7.09095 1.5 6.5C1.5 5.90905 1.6164 5.32389 1.84254 4.77792C2.06869 4.23196 2.40016 3.73588 2.81802 3.31802C3.23588 2.90016 3.73196 2.56869 4.27792 2.34254C4.82389 2.1164 5.40905 2 6 2C6.59095 2 7.17611 2.1164 7.72208 2.34254C8.26804 2.56869 8.76412 2.90016 9.18198 3.31802C10.0259 4.16193 10.5 5.30653 10.5 6.5C10.5 7.69347 10.0259 8.83807 9.18198 9.68198C8.33807 10.5259 7.19347 11 6 11C4.80653 11 3.66193 10.5259 2.81802 9.68198Z" stroke="#75723A" stroke-linecap="round" stroke-linejoin="round"/>
<path d="M7.76776 8.26777L5.99999 6.5V4.37868" stroke="#75723A" stroke-linecap="round" stroke-linejoin="round"/>
</g>
<defs>
<clipPath id="clip0_784_16391">
<rect width="12" height="12" fill="white" transform="matrix(1 0 0 -1 0 12.5)"/>
</clipPath>
</defs>
</svg>
