<svg width="154" height="38" viewBox="0 0 154 38" fill="none" xmlns="http://www.w3.org/2000/svg">
<path d="M62.635 21.5576C62.6718 21.392 62.703 21.2279 62.7412 21.061C62.8786 20.3917 62.7242 19.7814 62.3616 19.3423C61.9961 18.9004 61.4209 18.627 60.7282 18.627H52.2692C52.1446 18.627 52.0326 18.7191 52.0142 18.8314C51.6969 20.3254 51.3852 21.8195 51.0736 23.3136C50.7619 24.8077 50.4502 26.3018 50.1329 27.7945C50.1145 27.9067 50.1896 27.9974 50.3071 27.9974H58.7661C59.4645 27.9974 60.1558 27.7239 60.6984 27.2835C61.241 26.843 61.6646 26.2342 61.802 25.5648C61.8388 25.3993 61.87 25.2352 61.9082 25.0697C62.0456 24.4047 61.8955 23.7728 61.4903 23.3122C62.0825 22.853 62.5004 22.2211 62.6378 21.5561L62.635 21.5576ZM58.5394 25.0726C58.5337 25.087 58.5337 25.1014 58.5266 25.1172C58.4459 25.513 58.0407 25.8383 57.6285 25.8383H53.914C54.0131 25.3576 54.1137 24.8768 54.2129 24.396H57.9345C58.3269 24.396 58.5961 24.6954 58.5394 25.074V25.0726ZM59.2874 21.5115C59.2817 21.5259 59.2817 21.5417 59.2746 21.5561C59.1684 21.9347 58.776 22.2341 58.3836 22.2341H54.6691C54.7682 21.7533 54.8688 21.2726 54.968 20.7918H58.6896C59.0947 20.7918 59.3696 21.1157 59.2874 21.5129V21.5115Z" fill="#008BA5"/>
<path d="M75.4813 19.3438C75.1215 18.9048 74.5492 18.6284 73.8536 18.6284H66.6895C65.9939 18.6284 65.304 18.9033 64.7557 19.3438C64.2061 19.7843 63.7924 20.3931 63.6507 21.0624C63.4921 21.8138 63.3377 22.5652 63.1776 23.3151C63.0175 24.0664 62.8645 24.8164 62.7044 25.5677C62.5642 26.2371 62.7186 26.8445 63.0869 27.2864C63.4524 27.7254 64.0247 28.0003 64.7217 28.0003H71.8858C72.5814 28.0003 73.2742 27.7297 73.821 27.2864C74.3593 26.8488 74.7772 26.2371 74.9189 25.5677C75.0776 24.8164 75.2348 24.065 75.3907 23.3151C75.5479 22.5637 75.7108 21.8138 75.8695 21.0624C76.0112 20.3931 75.8426 19.7857 75.4799 19.3438H75.4813ZM72.3916 21.6022C72.2697 22.1722 72.155 22.7451 72.0332 23.3136C71.9113 23.8836 71.798 24.4551 71.6762 25.0251C71.5812 25.4713 71.1208 25.8369 70.6675 25.8369H66.8623C66.3962 25.8369 66.0931 25.4713 66.1852 25.0251C66.3042 24.4551 66.4246 23.8822 66.5422 23.3136C66.6597 22.7436 66.7872 22.1737 66.9062 21.6022C66.9983 21.1574 67.4488 20.7904 67.9149 20.7904H71.7201C72.1791 20.7904 72.4851 21.156 72.3902 21.6022H72.3916Z" fill="#008BA5"/>
<path d="M88.4906 18.6284H77.8798C77.7636 18.6284 77.6404 18.7205 77.6191 18.8328C77.4959 19.4172 77.3726 20.0016 77.2508 20.5874C77.2224 20.6997 77.3089 20.7918 77.425 20.7918H83.1526C82.0023 21.6252 80.8463 22.4601 79.6959 23.2906C78.5399 24.124 77.3882 24.956 76.2393 25.788C76.1812 25.8283 76.1387 25.8801 76.1231 25.9405C75.9928 26.5595 75.8624 27.177 75.7321 27.7959C75.7109 27.9082 75.7973 27.9989 75.9134 27.9989H86.5243C86.6475 27.9989 86.7552 27.9082 86.7779 27.7959C86.9011 27.2115 87.0244 26.6271 87.1462 26.0413C87.1745 25.929 87.0952 25.8369 86.9734 25.8369H81.2529C82.4032 25.0049 83.5606 24.1715 84.7095 23.3396C85.8599 22.5076 87.0173 21.6727 88.1662 20.8408C88.2243 20.8005 88.2597 20.7486 88.2753 20.6882C88.4056 20.0693 88.5359 19.4518 88.6663 18.8328C88.6875 18.7205 88.6153 18.6284 88.4934 18.6284H88.4906Z" fill="#008BA5"/>
<path d="M101.16 18.6284H90.549C90.4328 18.6284 90.3096 18.7205 90.2883 18.8328C90.1651 19.4172 90.0418 20.0016 89.92 20.5874C89.8917 20.6997 89.9781 20.7918 90.0943 20.7918H95.8233C94.6729 21.6252 93.5169 22.4601 92.3666 23.2906C91.2106 24.124 90.0588 24.956 88.9099 25.788C88.8518 25.8283 88.8093 25.8801 88.7938 25.9405C88.6634 26.5595 88.5331 27.177 88.4028 27.7959C88.3815 27.9082 88.4679 27.9989 88.5841 27.9989H99.1949C99.3182 27.9989 99.4258 27.9082 99.4485 27.7959C99.5718 27.2115 99.695 26.6271 99.8168 26.0413C99.8452 25.929 99.7658 25.8369 99.6426 25.8369H93.9221C95.0724 25.0049 96.2298 24.1715 97.3788 23.3396C98.5291 22.5076 99.6865 21.6727 100.835 20.8408C100.894 20.8005 100.929 20.7486 100.945 20.6882C101.075 20.0693 101.205 19.4518 101.336 18.8328C101.357 18.7205 101.285 18.6284 101.161 18.6284H101.16Z" fill="#008BA5"/>
<path d="M117.086 18.6284H114.06C113.983 18.6284 113.907 18.6673 113.856 18.7321C113.007 19.79 112.166 20.8494 111.327 21.9059C110.486 22.9653 109.636 24.0218 108.798 25.0783C108.396 24.0218 107.985 22.9639 107.586 21.9059C107.188 20.8494 106.781 19.79 106.386 18.7321C106.366 18.6658 106.302 18.6284 106.233 18.6284H103.207C103.092 18.6284 102.97 18.7205 102.952 18.8328C102.639 20.3269 102.326 21.821 102.014 23.3151C101.701 24.8092 101.388 26.3033 101.075 27.7974C101.049 27.9096 101.133 28.0003 101.241 28.0003H104.19C104.299 28.0003 104.414 27.9096 104.439 27.7974C104.554 27.2461 104.672 26.6948 104.791 26.1435C104.908 25.5936 105.02 25.0409 105.135 24.4882C105.352 25.0568 105.563 25.6253 105.78 26.1939C105.996 26.7624 106.207 27.3296 106.424 27.8981C106.45 27.9643 106.508 28.0018 106.59 28.0018H109.776C109.86 28.0018 109.936 27.9643 109.987 27.8981C110.433 27.3296 110.891 26.7653 111.347 26.1939C111.798 25.6296 112.247 25.0568 112.707 24.4882C112.585 25.0409 112.47 25.5922 112.356 26.1435C112.241 26.6948 112.126 27.2461 112.011 27.7974C111.986 27.9096 112.07 28.0003 112.177 28.0003H115.121C115.243 28.0003 115.351 27.9096 115.376 27.7974C115.689 26.3033 116.002 24.8092 116.315 23.3151C116.628 21.821 116.941 20.3269 117.253 18.8328C117.273 18.7205 117.202 18.6284 117.087 18.6284H117.086Z" fill="#008BA5"/>
<path d="M128.847 23.2201C128.34 21.7274 127.824 20.2319 127.314 18.7378C127.296 18.6687 127.226 18.6284 127.146 18.6284H124.042C123.961 18.6284 123.88 18.6687 123.836 18.7378C122.696 20.2319 121.553 21.7246 120.421 23.2201C119.29 24.7127 118.151 26.2083 117.018 27.7009C116.974 27.7657 116.961 27.8391 116.98 27.901C117.011 27.9643 117.068 27.9989 117.136 27.9989H120.47C120.551 27.9989 120.632 27.96 120.683 27.8909C120.958 27.5224 121.244 27.1525 121.524 26.7826H126.262C126.386 27.1525 126.511 27.5224 126.641 27.8909C126.667 27.96 126.722 27.9989 126.803 27.9989H130.138C130.213 27.9989 130.288 27.9629 130.337 27.901C130.387 27.8377 130.405 27.7657 130.387 27.7009C129.876 26.2068 129.356 24.7142 128.847 23.2201ZM123.169 24.6221C123.712 23.9124 124.247 23.1999 124.79 22.4889C125.026 23.1999 125.27 23.911 125.519 24.6221H123.169Z" fill="#008BA5"/>
<path d="M136.738 18.6284H133.801C133.682 18.6284 133.567 18.7205 133.543 18.8328C133.235 20.3283 132.916 21.821 132.603 23.3151C132.29 24.8092 131.975 26.3033 131.662 27.7959C131.644 27.9082 131.724 27.9989 131.838 27.9989H134.78C134.893 27.9989 135.008 27.9068 135.031 27.7959C135.34 26.3018 135.658 24.8077 135.972 23.3151C136.285 21.821 136.603 20.3283 136.912 18.8328C136.935 18.7205 136.856 18.6284 136.737 18.6284H136.738Z" fill="#008BA5"/>
<path d="M145.881 25.8383H140.907C140.441 25.8383 140.142 25.4727 140.237 25.0265C140.455 23.9945 140.668 22.961 140.882 21.9304C141.096 20.8983 141.317 19.8663 141.533 18.8328C141.553 18.7205 141.477 18.6284 141.361 18.6284H138.417C138.302 18.6284 138.197 18.7205 138.175 18.8328C137.942 19.957 137.699 21.0783 137.466 22.201C137.234 23.3223 137 24.445 136.764 25.5677C136.623 26.2371 136.779 26.8445 137.14 27.2864C137.5 27.7254 138.073 28.0003 138.768 28.0003H145.428C145.543 28.0003 145.66 27.9096 145.683 27.7974C145.806 27.213 145.929 26.6286 146.053 26.0427C146.077 25.9305 145.994 25.8383 145.88 25.8383H145.881Z" fill="#008BA5"/>
<path d="M152.313 18.6284L151.349 19.9426L150.378 18.6284H149.938V21.6252H150.352V19.315L151.349 20.5946L152.33 19.315V21.6252H152.745V18.6284H152.313Z" fill="#008BA5"/>
<path d="M147.013 19.0314H148.01V21.6252H148.425V19.0314H149.431V18.6284H147.013V19.0314Z" fill="#008BA5"/>
<path d="M36.2638 13.117C35.1347 11.7193 33.1358 11.3638 31.4103 11.358C28.6662 11.3365 25.9646 11.3537 23.2531 11.348C20.4368 11.348 17.6006 11.348 14.7446 11.348C12.145 11.4833 12.7967 10.1691 13.2231 8.23744C14.117 4.83471 13.1537 3.54645 9.55675 3.70478C8.15709 3.72494 6.74467 3.65153 5.35067 3.76524C3.25967 3.84009 2.0045 5.46948 1.68717 7.47168C1.31175 9.10971 0.575088 11.7323 2.72842 12.3584C4.41709 12.7931 6.20775 12.5268 7.93609 12.5988C8.58775 12.6132 9.49584 12.5815 9.81317 13.2595C10.0087 13.6654 9.89959 14.339 9.79759 14.8399C8.6515 20.2434 7.51817 25.6181 6.37775 30.977C5.86067 32.9835 6.42167 33.8169 8.54242 33.7248C10.9975 33.7248 13.4554 33.7248 15.9034 33.7248C19.2553 33.7248 22.7133 33.7262 26.1431 33.7233C28.3885 33.7824 30.7317 33.3721 32.4756 31.8349C35.2763 29.6239 35.3826 25.7865 36.1745 22.5378C36.625 19.5453 38.3803 15.8705 36.3148 13.1774L36.2638 13.1155V13.117Z" fill="#008BA5"/>
</svg>
