<svg width="42" height="31" viewBox="0 0 42 31" fill="none" xmlns="http://www.w3.org/2000/svg">
<path d="M40.6725 9.61698C39.3884 8.21933 37.1152 7.8638 35.1528 7.85804C32.0321 7.83645 28.9597 7.85372 25.8761 7.84797C22.6732 7.84797 19.4477 7.84797 16.1997 7.84797C13.2433 7.98327 13.9844 6.66911 14.4694 4.73744C15.486 1.33471 14.3904 0.0464512 10.2998 0.204785C8.70806 0.224936 7.10178 0.151529 5.51645 0.265241C3.13845 0.34009 1.711 1.96948 1.35011 3.97168C0.92317 5.60971 0.0853919 8.23228 2.53428 8.85842C4.45473 9.29312 6.49117 9.02683 8.45673 9.0988C9.19784 9.11319 10.2306 9.08153 10.5914 9.75948C10.8138 10.1654 10.6897 10.839 10.5737 11.3399C9.27034 16.7434 7.98145 22.1181 6.6845 27.477C6.09645 29.4835 6.73445 30.3169 9.14628 30.2248C11.9383 30.2248 14.7336 30.2248 17.5176 30.2248C21.3295 30.2248 25.2622 30.2262 29.1627 30.2233C31.7163 30.2824 34.3811 29.8721 36.3644 28.3349C39.5496 26.1239 39.6704 22.2865 40.571 19.0378C41.0833 16.0453 43.0795 12.3705 40.7305 9.67744L40.6725 9.61554V9.61698Z" fill="#008BA5"/>
</svg>
